<!-- Generator: Adobe Illustrator 26.3.1, SVG Export Plug-In . SVG Version: 6.00 Build 0)  -->
<svg version="1.1" id="_x3C_Layer_x3E_" xmlns="http://www.w3.org/2000/svg" xmlns:xlink="http://www.w3.org/1999/xlink" x="0px"
	 y="0px" viewBox="0 0 1947.1 1831.1" style="enable-background:new 0 0 1947.1 1831.1;" xml:space="preserve">
<style type="text/css">
	.st0{fill:#FFFFFF;}
	.st1{opacity:5.000000e-02;}
	.st2{fill:#6885A5;}
	.st3{opacity:0.3;}
	.st4{fill:#EDEDEF;}
	.st5{opacity:0.2;}
	.st6{opacity:0.4;}
	.st7{opacity:0.15;}
	.st8{fill:#315271;}
	.st9{fill:#FFBD99;}
	.st10{fill:#FFD762;}
	.st11{opacity:0.1;}
	.st12{fill:#D4D4D4;}
	.st13{fill:#9EE17D;}
	.st14{opacity:0.7;fill:#FFFFFF;}
	.st15{fill-rule:evenodd;clip-rule:evenodd;fill:#315271;}
	.st16{fill:#FF8879;}
	.st17{opacity:0.5;}
	.st18{fill:#5FA0CE;}
	.st19{fill:#00D19C;}
	.st20{opacity:0.6;}
	.st21{fill:#C0A8FF;}
</style>
<g>
	<g>
		<g>
			<g>
				<path class="st1" d="M424.5,1023.7c4.4-2.6,184.9-106.1,187.7-107.7c48.5-28,127.2-28,175.8,0.1c48.6,28,48.6,73.5,0.1,101.4
					c-4.3,2.5-192.7,110.3-195.2,111.6l-2.7,1.5l-0.2-0.1c-48.7,22.5-120.1,20.7-165.3-5.4C376,1097.2,376,1051.7,424.5,1023.7z"/>
				<path class="st2" d="M388.1,1073.6v-21.1l0,0c0-18.6,12.2-37.2,36.8-51.4c49.1-28.3,128.6-28.3,177.8,0.1
					c24.5,14.1,36.8,32.7,36.9,51.3l0,0l0,0c0,0,0,0,0,0.1v21.2l0,0c0,18.6-12.2,37.2-36.8,51.3c-49.1,28.4-128.7,28.4-177.8-0.1
					c-24.5-14.2-36.8-32.7-36.8-51.3l0,0v0C388.1,1073.6,388.1,1073.6,388.1,1073.6z"/>
				<path class="st3" d="M425,1103.7c49.1,28.4,128.8,28.4,177.8,0.1c24.5-14.1,36.8-32.7,36.8-51.3v21.2
					c0,18.6-12.2,37.2-36.8,51.3c-49.1,28.4-128.7,28.4-177.8-0.1c-24.5-14.2-36.8-32.7-36.8-51.3v0c0,0,0-0.1,0-0.1v-21.1l0,0
					C388.2,1071,400.4,1089.5,425,1103.7z"/>
				<path class="st3" d="M482.1,1034.1c17.5-10.1,45.9-10.1,63.4,0c17.5,10.1,17.5,26.5,0,36.6c-17.5,10.1-45.9,10.1-63.4,0
					C464.7,1060.6,464.7,1044.2,482.1,1034.1z"/>
				<path class="st4" d="M484.3,870.7L484.3,870.7c0-4.4,2.9-8.7,8.6-12.1c11.5-6.6,30.2-6.6,41.7,0c5.7,3.3,8.6,7.7,8.6,12l0,0l0,0
					c0,0,0,0,0,0v181.7l0,0c0,4.4-2.9,8.7-8.6,12c-11.5,6.6-30.2,6.6-41.7,0c-5.8-3.3-8.6-7.7-8.6-12h0V870.7z"/>
				<path d="M484.4,870.7c0-4.4,2.9-8.7,8.6-12.1c5.8-3.3,13.3-5,20.9-5v215.8c-7.5,0-15.1-1.7-20.9-5c-5.8-3.3-8.6-7.7-8.6-12h0
					L484.4,870.7L484.4,870.7z"/>
				<path class="st2" d="M488.2,991.5c-2.1,1.1-5,1-8.1-0.9l-0.1-0.1l-147.5-87.1c-3.9-2.3-7.4-7-9-12L283,763.7
					c-0.1-0.1-0.1-0.3-0.1-0.4c-0.4-1.3-0.7-2.6-0.7-3.9l21.5-242.6c-0.1-2.4,0.7-4,2.1-4.7l-0.1-0.1l157-90.7l0,0
					c1.1-0.8,2.7-0.9,4.5,0c3.7,1.9,6.8,6.8,7.1,11.2l48.2,205l39.2,117.8L703,835c6.5,3.8,11.7,12.9,11.6,20.3
					c0,3.6-1.4,6.2-3.5,7.4l0,0c0,0,0,0,0,0L488.2,991.5C488.2,991.5,488.2,991.5,488.2,991.5L488.2,991.5L488.2,991.5z"/>
				<path class="st5" d="M654.9,878.7c-67,39.2-69.4-5.7-96.2,8.9c-43.5,23.7-62.1,76-71.9,71.4
					c-110.3-51.4-121.4-130.2-136.8-175.6c-15.3-45.4-20.1-57.3-17.7-109.2c2.4-51.9,40.1-40.1,38.9-83.8
					c-1.2-43.7-18-88.8,17-106.2c29.7-14.8,65.3-3.4,85,43.6c2.2,5.2,15.3,18.5,31.6,33.8l17.8,75.8l34.6,104
					C554.8,760.8,671.4,869.1,654.9,878.7z"/>
				<path class="st3" d="M309.9,512.2c3.7,1.8,6.8,6.8,7.1,11.2l-17.3,242.8L338.8,884l141.3,79.7c6.4,3.8,11.6,12.9,11.6,20.3
					c-0.1,7.3-5.3,10.3-11.7,6.6l-0.1-0.1l-147.5-87.1c-3.9-2.3-7.4-7-9-12L283,763.7c-0.1-0.1-0.1-0.3-0.1-0.4
					c-0.4-1.3-0.7-2.6-0.7-3.9l21.5-242.6C303.5,512.4,306.2,510.4,309.9,512.2z"/>
				<path class="st6" d="M703,835c6.5,3.8,11.7,12.9,11.6,20.3c0,3.6-1.4,6.2-3.5,7.4l0,0c0,0,0,0,0,0L488.3,991.5c0,0,0,0,0,0
					l-0.1,0l0,0c2.2-1.2,3.5-3.8,3.6-7.4c0.1-7.4-5.1-16.5-11.6-20.3L338.8,884l222.9-128.7L703,835z"/>
				<polygon class="st7" points="522.5,637.5 561.7,755.3 338.8,884 299.7,766.2 				"/>
				<path class="st3" d="M313.3,515.1c-1-1.2-2.2-2.3-3.4-2.9c-1.7-0.8-3.1-0.8-4.1-0.2v0l-0.1-0.1l157-90.7l0,0
					c1.1-0.8,2.7-0.9,4.5,0c1.3,0.6,2.4,1.7,3.4,2.9L313.3,515.1z"/>
			</g>
			<path class="st1" d="M471.1,1259c8-39.3-23.9-82.3,6.1-89c26.3-9,38.2-6.3,82,21.6c45.3,28.9,12.7,40,23.3,80.1
				C592.9,1310.8,457.4,1327,471.1,1259z"/>
			<path class="st1" d="M772.2,1091.3c49.8,18.9,111.3,13.1,114.8,35c7.2,20.3,1.6,27-42.3,45.8c-45.5,19.3-54.3-5.7-108.3-12.7
				C683.6,1152.4,686.2,1058.7,772.2,1091.3z"/>
			<g>
				<g>
					<path class="st8" d="M793.9,1078c2.4,15.4,25.3,29.7,51.9,35.6c26.6,6,39.7,18.8,16,29.2c-12,5.3-79.2-1.9-110.7-11.2
						c-11.8-3.5-11.5-12.8-11.6-13.9c-1.3-11.8,7.2-21.9,2.7-34.6C736.8,1067.6,787.7,1038.7,793.9,1078z"/>
					<g class="st3">
						<path d="M860.9,1136.5c-12,5.3-79.2-1.9-110.6-11.2c-6.9-2-9.6-6.1-10.8-9.3c0,0.6,0,1.1,0,1.7c0.1,1.1-0.2,10.4,11.6,13.9
							c31.5,9.3,98.6,16.5,110.7,11.2c11.6-5.1,14.3-10.7,11-15.9C871.7,1130.2,868,1133.5,860.9,1136.5z"/>
						<path d="M742,1079.6c-0.2,1.2-0.1,2.5,0.3,3.6c0.2,0.4,0.2,0.9,0.3,1.3C742.6,1082.9,742.4,1081.2,742,1079.6z"/>
					</g>
					<path class="st3" d="M782.5,1094.5c4.6-2.5,11.3-9.1,12.9-11.5c-0.7-1.6-1.3-3.3-1.5-5c-6.2-39.4-57.1-10.4-51.6,5.1
						c1.1,3.1,1.6,5.8,1.8,8.2C755.7,1098.3,771.4,1100.5,782.5,1094.5z"/>
					<path class="st3" d="M739.5,1117.7c0.1,1.1-0.2,10.4,11.6,13.9c31.5,9.3,98.6,16.5,110.7,11.2c14.2-6.2,15.1-13.3,7.8-19.3
						c-0.7-0.6-1.5-1.1-2.2-1.6c0,0,0,0,0,0c-7.6,13.6-27.8,13.9-38.6,11.5c-11.7-2.6-33.7-6.7-49-8.7
						c-16.3-2.1-17.1-13.6-17.4-21.6c-1.3-46.9-6-21.8-13.1-34.8c0,0,0,0,0,0c-1.2,1.1-2.3,2.2-3.3,3.3c-0.1,0.1-0.2,0.3-0.3,0.4
						c-0.1,0.1-0.2,0.2-0.3,0.3c-0.5,0.6-1,1.3-1.4,2c-0.3,0.5-0.6,1.1-0.9,1.6c-0.1,0.1-0.1,0.2-0.2,0.4c-0.2,0.4-0.3,0.7-0.4,1
						c-0.3,0.9-0.5,1.7-0.6,2.6c0,0.2,0,0.4,0,0.5c0,0.9,0,1.9,0.3,2.7C746.7,1095.9,738.2,1106,739.5,1117.7z"/>
				</g>
				<path class="st8" d="M498.2,1183.4c-0.4,15.4-6.7,61.9,10.9,76c17.7,14.1,46.2,15.4,41.1-14.8c-5.1-30.1-16.4-58.7-14.4-87.2
					C537.6,1128.9,499,1150,498.2,1183.4z"/>
				<path class="st6" d="M498.2,1183.4c-0.4,15.4-6.7,61.9,10.9,76c16.5,13.2,42.6,15.2,41.6-9.5c-46.6,18.6-39.9-25.5-40.5-50.8
					c-0.3-10.9,0.6-24.7,4.8-45.7c0.3-1.6,0.3-3,0.2-4.2C506.6,1155.9,498.5,1168.4,498.2,1183.4z"/>
				<path class="st3" d="M511.8,1252c-17.6-14.1-11.3-60.6-10.9-76c0.1-3.7,0.7-7.3,1.6-10.6c-2.5,5.3-4.2,11.4-4.3,18
					c-0.4,15.4-6.7,61.9,10.9,76c15.3,12.2,38.6,14.8,41.4-4.3C543.2,1265.7,524.6,1262.3,511.8,1252z"/>
				<path class="st3" d="M535.7,1157.4c1.9-28.5-36.6-7.4-37.5,26c-0.1,2.8-0.3,6.6-0.6,11c6.6,4.5,30.5,9.4,40.6-4.1
					C536.1,1179.3,534.9,1168.3,535.7,1157.4z"/>
				<path class="st8" d="M559.6,760.9l125.6,62.8c35.7,17.9,61.5,50.8,70.4,89.7l37.3,154.8c3.2,14.1-10,27.4-24.4,26.8l-7-0.3
					c-9.3-0.3-17.5-6.4-20.5-15.2L673,930.8c-4.7-13.6-17.2-20.2-30-27.2l-90.6-44.3c-13-3.1-23.5,10.5-17.2,22.3l30.2,52.3
					c7.7,14.6,10.5,31.4,7.8,47.8l-32.2,195.1c-1.6,10-9.8,17.7-19.9,18.7c-13.5,1.4-25.4-9.1-25.4-22.8l-0.5-171.1
					c-0.1-19.4-7.6-38-21-52l-52.6-56.2c-23.9-25-32.7-60.7-23.1-93.9l14-48.5L559.6,760.9z"/>
				<path class="st5" d="M667.4,882.2L572.7,836c-23.1-9.8-58.4-2.5-39.3,39.3c-0.7-9.8,8.3-18.6,19-16.1l90.6,44.3
					c12.8,7.1,25.4,13.6,30,27.2l67.9,148.9c3,8.8,11.2,14.9,20.5,15.2l7,0.3c1.4,0,2.7-0.1,4.1-0.3l-77.2-182.6
					C690.6,898.7,679.4,888.1,667.4,882.2z"/>
				<path class="st5" d="M535.7,992c-0.1-19.4-7.6-38-21-51.9l-52.6-56.2c-23.9-24.9-32.7-60.7-23.1-93.9l10.5-36.5l-37.2-2.5
					l-14,48.5c-9.6,33.2-0.7,68.9,23.1,93.9l52.6,56.2c13.4,14,20.9,32.6,21,52l0.5,171.1c0.1,13.3,11.3,23.6,24.4,22.8L535.7,992z"
					/>
				<path class="st3" d="M546.8,787.8c0-10,0.8-21.3,2.1-33.5l-38.8,0.8l-7.1-1c-1.9,15.8-3.2,29.5-3.9,40.3
					C515.6,794.1,532.4,792,546.8,787.8z"/>
				<g>
					<g>
						<g>
							<path class="st9" d="M639.3,779.7c5.5,10.2,16.2,22.2,29.2,41.9c5.5,8.4,7.4,19.2,6.4,28.7c-1.1,9.5-2.1,11.9-6.1,17.7
								c-3.9,5.8-5.5,8.8-7.8,8.7c-2.3-0.1-3.9-3.5-3.9-3.5s-1.5,4.8-5.4,4.6c-3.9-0.2-3.8-6-3.8-6s-3,1.2-5-1.1
								c-2-2.2,0.9-7.5,0.9-7.5s-3.6,0.3-3.4-3.8c0.2-4.1,4.7-10.8,4.1-15.4c-0.7-4.5,1.9-3.5-3.8-10.5c-5.7-7-12.8-15.6-14.9-24.1
								c-2.1-8.5,0.2-8.2-5.8-15.2c-47.7-54.9-3.1-15.9,2.4-20.8C627.9,768.6,633.5,769,639.3,779.7z"/>
							<path class="st3" d="M666.9,840.3c-1.2-12.2-13.7-21.2-22.7-35.2c-5.9-9-14.6-19.9-24.4-31.3c-10.7-2.1-42.8-29,0.3,20.5
								c6,7,3.7,6.7,5.8,15.2c2.1,8.5,9.2,17,14.9,24.1c5.7,7,3.1,6,3.8,10.5c0.6,4.6-3.9,11.3-4.1,15.4c-0.2,4.1,3.4,3.8,3.4,3.8
								s-2.9,5.3-0.9,7.5c2,2.2,5,1.1,5,1.1s-0.1,5.8,3.8,6c3.9,0.2,5.4-4.6,5.4-4.6s0.8,1.6,2.1,2.6
								C672.5,859.2,668.1,852.4,666.9,840.3z"/>
							<path class="st3" d="M658.7,866.8c4.5,4.9,6.8,3.2,8.6,1.1c1.8-2.1-0.2-5.3-0.5-6.1c-0.3-0.9,1.1-1.8,1.6-4.4
								c0.6-2.6-0.5-3.4-0.4-6.4c0.1-3-0.7-9.5-2.2-12.4c-1.5-2.9-3.2-8.7-4.2-12.2c-1-3.5-2.3-2.5-2.9,2c-0.7,4.5,2.5,8.8,6.1,18.1
								c3.6,9.3,4.4,12.7-0.3,14.8c-4.7,2.1-10.8-9.1-12.4-14.1c-1.7-5-5.3-6.1-9.6-11.6l0,0c3.5,4.7,1.6,4.4,2.2,8.4
								c0.2,1.3-0.1,2.8-0.5,4.4c2.4,2.4,4.8,4.7,6.9,6.4C655.7,858.9,654.2,861.9,658.7,866.8z"/>
						</g>
						<g>
							<path class="st10" d="M596.2,666.5l59.4,134c1.7,15.4-21.8,24.9-30.2,16.2c-17.8-18.4-78.6-103.2-86-142.6
								C530.2,626.2,579.1,632.3,596.2,666.5z"/>
							<path class="st11" d="M596.2,666.5l59.4,134c1.7,15.4-21.8,24.9-30.2,16.2c-17.8-18.4-78.6-103.2-86-142.6
								C530.2,626.2,579.1,632.3,596.2,666.5z"/>
							<path class="st10" d="M528.3,506.7c-10.4,19.3,2.4,156.3,14.5,176.2c4.1,6.8,23.1,54.4,31.9,52.8c3.4-0.6,7.1-1.9,9.9-4.7
								c14.9-14.9,10.2-101.6,10.5-136c0.3-32.6-7.4-88.7-46.5-97.9C540.5,495.2,533.1,497.8,528.3,506.7z"/>
							<path class="st5" d="M528.3,506.7c-10.4,19.3,2.4,156.3,14.5,176.2c4.1,6.8,23.1,54.4,31.9,52.8c3.4-0.6,7.1-1.9,9.9-4.7
								c14.9-14.9,10.2-101.6,10.5-136c0.3-32.6-7.4-88.7-46.5-97.9C540.5,495.2,533.1,497.8,528.3,506.7z"/>
							<path class="st11" d="M562.4,678.7C562.4,678.7,562.4,678.7,562.4,678.7c-10.8-36.3-20.4-149.9-11-167.4
								c1.7-3.2,3.3-7.4,5.1-11.4c-2.5-1.1-5.1-2.1-7.9-2.8c-8.1-1.9-15.5,0.7-20.3,9.7c-9.4,17.5,0.2,131.1,11,167.4c0,0,0,0,0,0
								c7.4,39.4,68.3,124.2,86,142.6c4.4,4.5,12.7,4.1,19.6,0.6C623.7,793.1,569.4,715.7,562.4,678.7z"/>
						</g>
					</g>
					<path class="st3" d="M573.7,770.3l-3.9-6.8c-5.3-0.6-3.6-4.2-9.1-4.2c-52.3,0-92.8-51.3-99.1,37.5l-51.6-8.9l0.2,19.6
						c6,4.8,13.6,8.2,21.9,10.1C469.3,826.1,564.3,811.6,573.7,770.3z"/>
					<path class="st10" d="M572.2,677c3-68,12.8-76.7,12.8-121.9c0-24.9-5.9-41-16.3-50.1c-26.7-23-91.8-2.8-122.1,7.6
						c-13.7,4.7-27.2,10.2-38.3,16.5c-2.3,1.3-4.6,2.7-6.7,4.2c-1.1,0.6-2.2,1.3-3.3,2.3c-0.1,0.1-0.1,0.1-0.2,0.2h0l0,0
						c-4.8,3.7-8.9,7.8-11.7,12.6c-10.1,13.7-10.8,26-8.2,38.2c3.4,15.9,11.3,22.7,15.6,48.5l0,0l5,30c0,52.5-10.2,55-3.3,107.1
						c0,20,15.9,34.5,36.6,39.1c39.2,8.8,142.5-7.6,142.5-54.2C574.6,729.2,571.3,699.7,572.2,677z"/>
					<path class="st5" d="M446.6,512.7c-13.7,4.7-27.2,10.2-38.3,16.5c-2.3,1.3-4.6,2.7-6.7,4.2c-1.1,0.6-2.2,1.3-3.3,2.3
						c-0.1,0.1-0.1,0.1-0.2,0.2h0l0,0c-4.8,3.7-8.9,7.8-11.7,12.6c-10.1,13.7-10.8,26-8.2,38.2c3.4,15.9,11.3,22.7,15.6,48.5l0,0
						l5,30c0,52.5-10.2,55-3.3,107.1c0,20,15.9,34.5,36.6,39.1c5.3,1.2,11.8,1.9,19.1,2.2c0.3-0.4,0.5-0.7,0.8-0.7
						c-0.9-21.5-0.2-43.8,0.6-61.1c3-68,0-75.7,0-120.8c0-24.9-5.9-41-16.3-50c-8.3-7.1-20.2-10.1-33.7-10.5
						c2.7-12.8,10.5-24.1,22-30.6c11.1-6.3,24.6-11.8,38.3-16.5c26.3-8.9,78.6-25.3,109.5-14.5v0c-1.1-1.3-2.3-2.4-3.5-3.5
						C542,482.1,477,502.3,446.6,512.7z"/>
					<g>
						<path class="st9" d="M441.3,515c1.2,1.5,2.3,2.7,3.2,3.4c7.9,6.1,41.2,33.3,64.4,25.2c32.2-11.3,14-36.4,7-46.4
							c1.4-0.2,2.7-0.4,4.1-0.5c-4.4-5.5-7.1-15.1-7.1-34.6c0-26.5-19.7-42.3-35.6-41.4c-15.9,1-36,9.3-31.4,31.6
							C449,467.1,456.4,500.7,441.3,515z"/>
						<path class="st3" d="M441.3,515c1.2,1.5,2.3,2.7,3.2,3.4c1.9,1.5,5.3,4.1,9.6,7.2c17-8.6,15.1-35.6,14.7-60.7
							c-0.2-12.6,8.8-25.2,22.1-41.3c-4.5-2.2-9.1-3.2-13.5-3c-15.9,1-36,9.3-31.4,31.6C449,467.1,456.4,500.7,441.3,515z"/>
						<path class="st12" d="M509,543.6c13.9-4.9,18.4-12.3,18.5-20c-3.3-5.7-4-8.6-7.6-3.3c-3.1,4.8-9.4,14.9-22.1,11.6
							c-5.6-1.5-10.6,3.6-13.3,10.4C492.9,545.1,501.5,546.2,509,543.6z"/>
						<path class="st4" d="M450.5,491.9c0,0,3.6,20.3,22.7,28c19.1,7.8,32.2,6,32.2,11.9c0,6-8.4,7.8-6.6,16.1
							c1.8,8.4,11.3,15.5-9,7.8c-20.3-7.8-43.1-22.1-48.5-40C436,497.9,449.4,487.9,450.5,491.9z"/>
						<path class="st4" d="M517.3,505.1c0.7,11.9-6,18.5-4.2,23.3c1.8,4.8,9.5,1.8,11.9,11.9c2.4,10.1,2.7,22.1,4.8,5.4
							C532.8,522.3,516.1,485.4,517.3,505.1z"/>
						<path class="st9" d="M537.7,421.3c0,29.5,1,76-21.8,79.2c-22.8,3.2-77.9-34.6-77.9-76.6c0-42,33-64.7,61.2-57.4
							C526.2,373.4,537.7,403,537.7,421.3z"/>
						<path class="st8" d="M533.2,466c-2.3-3.7-5.6-0.5-12.5-1.3c-6.9-0.8-12.5,3.7-21,9c-8.2,5.1-15-1.5-18.8-7
							c-6.3-10.4-9.2-22.3-10.5-30.8c-1.1-7-2.2-6.4-4.5-9.3c-2.4-2.9-10.1,0.8-6,11.6c4.1,10.8,4.7,21.2,2.4,30.5
							c-0.4,1.8-0.2,3.6,0.5,5.3c17.6,17.3,40.3,28.3,53,26.5c8.9-1.3,14.2-9.2,17.3-20.2c0-0.1,0-0.1,0.1-0.2
							C537,470.4,535.5,469.7,533.2,466z M532.1,478.8c-1.3,1.8-2.8,3.2-4.5,4.4l0,0c-5.6,3.1-2.3-4.1-4.3-3.9
							c-2,0.2-3.9,0.7-4.6,3.3c-0.7,2.5-4.7,4.5-7.7,4.5c-0.8-0.1-1.6-0.1-2.4-0.2c-0.2,0-0.4,0-0.5-0.1c-0.3,0-0.5-0.1-0.8-0.2
							c-6.9-1.9,1.7-10.6,5-13.5c3.6-3.2,8.6-3.2,12.6-3.6c4-0.4,6.6,2,7.4,5.5C532.4,475.9,532.3,477.3,532.1,478.8z"/>
						<path class="st5" d="M437.9,423.9c0,42,55.2,79.9,77.9,76.6c4.7-0.7,8.4-3.3,11.3-7.2c-3.9,2-10.2,6.3-18,2.6
							c-14.4-6.8-35.4-25.1-36.7-41.2c-1.7-20.1-6.8-32-10-42.4c0,0-0.1-5.4-4-36C446.4,386.4,437.9,402.6,437.9,423.9z"/>
						<path class="st8" d="M525.8,374.9c14.5,14.5,30.4,18.6-1.3,34.2c-22.7,11.2-33.4-3.2-50.7,2.6c-10.1,3.4-1,28.3-3.8,29
							c-2.8,0.7-8.3,3.4-9.9-1.3c-6.2-18.6-19-8.5-17.8,1.4c1.2,9.9,11.2,21.8,8.4,31.5c-2.8,9.7-7-9.4-17.1-29.1
							c-10.2-19.7-11.1-56.6,18.2-74.7C481.3,350.4,509,358,525.8,374.9z"/>
						<path class="st5" d="M452,368.5c-29.3,18.1-28.4,55-18.2,74.7c10.2,19.7,14.3,38.8,17.1,29.1c2.8-9.7-7.2-21.6-8.4-31.5
							c-1.3-9.9,11.6-20,17.8-1.4c1.5,4.6,6.9,2.1,9.7,1.3c-2.9-10.1-7.8-17.1-11.9-24.2c-5.4-9.2-8.1-22.8,1.3-36.8
							c16-23.9,45.4-16.4,56.9-12.7C499.4,356.2,476.3,353.5,452,368.5z"/>
					</g>
				</g>
			</g>
		</g>
		<g>
			<path class="st1" d="M1203.3,1046.8c-23.9-31.9-72.8-43-60.9-65.1c8.2-21.6,61.5-43.8,106.1-50.1c46.2-6.4,63.9,25.7,104.6,20.7
				c49.8-6.2,86.6,34.6,109.8,54.3c51.9,39.3-38.2,102.3-89.6,85.1C1317.8,1073.1,1244.7,1101.8,1203.3,1046.8z"/>
			<g>
				<path class="st8" d="M1263.8,938.1c0,20.1-0.2,52.7,0.8,53.7c1,1,2.7,1.1,3.7,0c1.1-1.1,7.1-64.9,7.1-64.9L1263.8,938.1z"/>
				<path class="st3" d="M1263.8,938.1c0,20.1-0.2,52.7,0.8,53.7c1,1,2.7,1.1,3.7,0c1.1-1.1,7.1-64.9,7.1-64.9L1263.8,938.1z"/>
				<path class="st9" d="M1191.1,1009.9c0,0.8,0.1,1.5,0.2,2.2c5,4.7,16.3,3.5,25.7,0.5c12.6-4,22.8-8.7,30.7-39.4
					c7.9-30.7,22-25.2,30.7-41.7c2.9-5.6,2.6-9.1,0.9-12.9c-2.6-4.4-6.1-10-8-19.5c0,0,0,0,0,0c-1-4.6-1.6-10.1-1.6-16.9
					c0-1.9,0.1-3.8,0.1-5.6c-0.4,9-30.8,19.1-33.1,5.9c0,0-1.5,1-1.5,1c0.4,9.9,1.5,18.3-0.1,28c-1.7,10.5-4.9,21.3-10.2,33.6
					C1208.4,983.9,1191.1,998.1,1191.1,1009.9z M1236,906.2c-0.2,1.8-0.5,3.6-0.8,5.5C1235.4,909.8,1235.7,908,1236,906.2z"/>
				<path class="st8" d="M1191.4,1007.4c0-0.1,0-0.2,0-0.2c0.2-0.8,0.4-1.6,0.7-2.4c0-0.1,0.1-0.2,0.1-0.3c0.3-0.9,0.7-1.7,1.1-2.6
					c0,0,0.1-0.1,0.1-0.1c0.4-1,1-1.9,1.5-3c0,0,0.1-0.1,0.1-0.2c0.6-1,1.2-2,1.8-3c0.1-0.1,0.2-0.3,0.3-0.4c0.6-1,1.3-2,2-3.1
					c0.1-0.2,0.3-0.4,0.5-0.7c0.5-0.8,1.1-1.7,1.6-2.5c1.1-1.7,2.3-3.5,3.5-5.4c0,0,0,0,0,0c-12.9,28.9,29,5.6,37-14.1
					c8.1-19.8,13.2-26.9,22.1-36.4c8.8-9.4,14-14.2,12-20.5c1.2,2.5,2.5,4.6,3.6,6.5c1.7,3.7,1.7,3.7,0,0c3.4,5.7,5.5,9.5,1.5,17.2
					c-8.7,16.5-22.8,11-30.7,41.7c-7.9,30.7-18.1,35.4-30.7,39.4c-11.7,3.7-26.2,4.6-28.1-4.9c-0.1-0.7-0.2-1.4-0.2-2.2
					C1191.1,1009.1,1191.2,1008.2,1191.4,1007.4z"/>
				<path class="st3" d="M1217.1,1012.6c12.6-4,22.8-8.7,30.7-39.4c7.9-30.7,22-25.2,30.7-41.7c2.9-5.6,2.6-9.1,0.9-12.9
					c3.4,5.7,5.5,9.5,1.5,17.2c-8.7,16.5-22.8,11-30.7,41.7c-7.9,30.7-18.1,35.4-30.7,39.4c-11.7,3.7-26.2,4.6-28.1-4.9
					C1196.3,1016.8,1207.6,1015.6,1217.1,1012.6z"/>
				<path class="st8" d="M1208.5,484.3c6.9-34.5,21.8-22.1,55.6-9.5c33.7,12.6,30.3,79.2,30.3,108.7c0,29.5-19.2,65.7-19.2,107
					c0,4.6,0,10-0.1,16c2.4,31.4,11.9,47.9,11.9,76.7c0,27.6-12.5,52.3-16.5,84c-0.2,4.1-0.3,7.9-0.5,11.1
					c-0.4,9.7-33,20.5-35.5,6.3c-0.5-13.9-2.3-28.7-4.3-46.6c-5.1-46.4-13.9-141.2-22.9-214.5C1198.9,553.3,1199.2,531,1208.5,484.3
					z"/>
				<path class="st5" d="M1191.4,1007.6c4.8,3.1,16.1,5.9,30-2.6c15-9.1,18.2-41.4,35.5-56.6c17.3-15.2-0.9-27.8-0.4-53.1
					c0.5-25.3,8-277.2-7.8-340.3c0,0,10.9,27.7,45.8,22.6c0,2.1,0,4,0,5.9c0,29.5-19.2,65.7-19.2,107c0,4.6,0,10-0.1,16
					c2.4,31.4,11.9,47.9,11.9,76.7c0,27.6-12.5,52.3-16.5,84c-0.2,4.1-0.3,7.9-0.5,11.1c0,0.3-0.1,0.6-0.2,0.9c0,1-0.1,2-0.1,3.1
					c0,6.8,0.6,12.3,1.6,16.9c0,0,0,0,0,0c0.6,2.7,1.2,5.1,2,7.3c0.7,2.1,1.6,4,2.4,5.7c1.2,2.5,2.5,4.6,3.6,6.5
					c1.7,3.7,1.7,3.7,0,0c3.4,5.7,5.5,9.5,1.5,17.2c-8.7,16.5-22.8,11-30.7,41.7c-7.9,30.7-18.1,35.4-30.7,39.4
					c-11.7,3.7-26.2,4.6-28.1-4.9c-0.1-0.7-0.2-1.4-0.2-2.2C1191.1,1009.1,1191.2,1008.3,1191.4,1007.6z"/>
				<path class="st9" d="M1393.8,933.7c-0.5-5.2-1.2-10.8-2.1-17c-0.2-1.1-0.3-2.2-0.5-3.2c5.3,6.7,27.3,2,28.7-7.1
					c0.7,9,0.7,16.6,2.8,22.9l0,0c2,6.1,4.2,11.1,5.9,15.7c1.7,15.4-4,22.4-0.4,47.7c3.7,26.2,8.9,44.9-30.8,50.6
					c-6.9,1-11.7,0.8-14.8-0.5c-1.1-5.9,1.4-15.7,4.4-29.4C1392.3,988.7,1397.8,973.6,1393.8,933.7z"/>
				<path class="st8" d="M1386.9,1013.4c-4.2,34.7,35.1-0.4,36-12.9c0.9-12.5,0.5-28.7,1.8-38.6c1.3-9.9,0.6-22,0.3-26.2
					c1.3,3.4,2.6,6.5,3.6,9.4c0.8,7.6,0.9,7.6,0-0.1c1.1,3.1,2,5.9,2.4,8.7c2.3,15.9-3.8,22.2-0.2,47.2c3.6,25,8.4,42.9-29.5,48.4
					c-12.5,1.8-17.6-0.3-18.8-6.5C1381.4,1036.9,1383.9,1027.2,1386.9,1013.4z"/>
				<path class="st3" d="M1397.3,1043.3c39.7-5.7,34.6-24.4,30.8-50.6c-3.6-25.3,2.1-32.3,0.4-47.8c1.1,3.1,2,5.9,2.4,8.7
					c2.3,15.9-3.8,22.2-0.2,47.2c3.6,25,8.4,42.9-29.5,48.4c-12.5,1.8-17.6-0.3-18.8-6.5C1385.7,1044.2,1390.4,1044.3,1397.3,1043.3
					z"/>
				<path class="st8" d="M1274.2,502.8c-9.8-74,25.8-64.2,48.2-45.9c0.5-1,0.8-2,1.1-3c2.2,4.3,4.7,8.1,7.7,11.1c0,0,0,0,0,0
					c19.7,19,44.3,39.3,51.4,122.7c2.9,34.2,9.2,88.9,15.9,143.5c7,33.5,19.8,48.4,24.4,78.1c4.3,28.2-4.9,55.3-3.4,88.6
					c0.6,5,1,8.3,1.1,9.4c-1.5,10-23.7,14.9-29.5,7.5c-8.2-55.5-51.3-169.6-68.7-230.9C1299.8,604.6,1284.9,583.8,1274.2,502.8z"/>
				<path class="st5" d="M1403.4,1037.8c27.8-4.6,15.4-29.6,15.7-45c0.4-15.4-2-38-8.5-59.2c-6.4-21.2-43.9-296.8-58.7-341.5
					c-14.9-44.7-48.7-91.2-54.8-104.2c-12.6-26.6-19-33.3-19.4-34.6c7.8-5.6,22-2.6,26.5-7.3c3.8-4,16.8,14,18.2,10.8
					c0.5-1,0.8-2,1.1-3c2.2,4.3,4.7,8.1,7.7,11.1c0,0,0,0,0,0c19.7,19,44.3,39.3,51.4,122.7c2.9,34.2,9.2,88.9,15.9,143.5
					c7,33.5,19.8,48.4,24.4,78.1c4.3,28.2-4.9,55.3-3.4,88.6c0.6,5,1,8.3,1.1,9.4c-0.1,0.6-0.3,1.1-0.5,1.6
					c0.4,5.6,0.6,10.7,1.4,15.3c0,0.2,0,0.4,0.1,0.6c0.3,1.6,0.7,3.1,1.1,4.5c0.8,2.5,1.7,4.8,2.6,7c0,0,0,0,0,0
					c0,0.1,0,0.1,0.1,0.2c0.2,0.6,0.5,1.2,0.7,1.9c0.3,0.8,0.6,1.6,0.9,2.4c0.6,1.4,1.1,2.8,1.6,4.2c0.8,7.6,0.9,7.6,0-0.1
					c1.1,3.1,2,5.9,2.4,8.7c2.3,15.9-3.8,22.2-0.2,47.2c3.6,25,8.4,42.9-29.5,48.4c-12.5,1.8-17.6-0.3-18.8-6.5
					c-0.1-0.7-0.2-1.5-0.2-2.4c0,0,0,0,0,0l0,0C1386.1,1041.1,1392.3,1039.6,1403.4,1037.8z"/>
				<path class="st8" d="M1336.3,167.6c0-37.4-25.7-67.7-57.5-67.7c-31.8,0-57.5,30.3-57.5,67.7c0,37.4,25.7,67.7,57.5,67.7
					C1310.5,235.3,1336.3,205,1336.3,167.6z"/>
				<path class="st5" d="M1280.3,200.5c4.9-19.4,4.1-28.9,19.4-41.6c15-12.4-1.2-66.5-54.8-45.4c0.8-0.7,1.6-1.6,2.5-2.6
					c9-6.9,19.8-11,31.4-11c31.8,0,57.5,30.3,57.5,67.7c0,37.4-25.7,67.7-57.5,67.7c-10,0-19.3-3-27.5-8.2
					C1267.5,216.9,1278.9,206.2,1280.3,200.5z"/>
				<g>
					<path class="st9" d="M1160.2,484.5c-5.7,8.4-19.7,28.7-25.6,35.2c-5.9,6.5-8,16.1-7.9,24.4c0.1,8.3,0.8,10.5,3.8,15.9
						c3,5.4,4.1,8.1,6.1,8.2c2,0.1,3.7-2.7,3.7-2.7s1,4.3,4.3,4.4c3.4,0.1,3.8-4.9,3.8-4.9s2.5,1.3,4.4-0.5c1.9-1.8-0.2-6.6-0.2-6.6
						s3.1,0.6,3.2-3c0.1-3.6-3.2-9.8-2.3-13.7c0.9-3.9-1.3-3.2,4.2-8.8c5.5-5.6,12.4-12.5,14.9-19.7c2.5-7.2,0.5-7.2,6.3-12.7
						c45.9-43.8,4-13.6-0.3-18.3C1174.3,477,1166.1,475.6,1160.2,484.5z"/>
					<path class="st3" d="M1139.4,559.8c-4.3,3.9-6.1,2.2-7.5,0.3c-1.4-2,0.6-4.6,0.9-5.3c0.4-0.7-0.8-1.7-1.1-4
						c-0.3-2.3,0.7-3,0.9-5.5c0.1-2.6,1.4-8.2,3-10.6c1.5-2.4,3.6-7.3,4.7-10.3c1.1-3,2.2-1.9,2.4,2c0.2,4-2.8,7.4-6.8,15.3
						c-3.9,7.8-4.9,10.7-0.9,12.9c3.9,2.2,10.1-7,12-11.2c1.9-4.2,5.1-4.8,9.3-9.2l0,0c-3.4,3.8-1.7,3.7-2.6,7.1
						c-0.3,1.1-0.1,2.5,0.1,3.8c-2.2,1.9-4.6,3.7-6.5,5C1142.7,553.2,1143.7,555.9,1139.4,559.8z"/>
					<path class="st9" d="M1285.8,369.6c-13.4,24.9-21.1,33.1-41.8,57.4c-12,14.1-39.3,47.1-50.1,58.7
						c-13.9,14.9-10.7,5.2-17.9,11.5c-7.8,6.8-15.5,18.8-17.1,13.4c-5.1-16.8-1.1-23,12.1-42.4c13.2-19.4,48.2-77.9,60.1-92.8
						c11.9-14.8,22.7-20.7,24.4-25.8c5.4-16.4,12-4.3,20.4-3.7C1284.2,346.7,1292.2,357.8,1285.8,369.6z"/>
					<path class="st3" d="M1153.4,521.2c10-7.2,20.4-26.3,26.6-33c6.2-6.7,24.2-37.7,50.8-59.4c26.6-21.7,35.3-48.1,39.5-54.9
						c3.3-5.3,4.6-16.2,5.5-27.9c8.4,0.7,16.3,11.7,10,23.6c-13.4,24.9-21.1,33.1-41.8,57.4c-12,14.1-39.3,47.1-50.1,58.7
						c-3.4,3.7-5.8,5.9-7.6,7.2c-2.2,2.1-4.6,4.5-7.3,7.1c-5.8,5.5-3.8,5.5-6.3,12.7c-2.5,7.2-9.4,14-14.9,19.7
						c-5.5,5.6-3.2,4.9-4.2,8.8c-0.9,3.9,2.4,10.1,2.3,13.7c-0.1,3.6-3.2,3-3.2,3s2.1,4.8,0.2,6.6c-1.9,1.8-4.4,0.5-4.4,0.5
						s-0.4,5-3.8,4.9c-3.4-0.1-4.3-4.4-4.3-4.4s-0.8,1.2-1.8,2c-0.9-1.1-1.6-2.1-2-2.9C1129.8,551.1,1142.4,529.1,1153.4,521.2z"/>
				</g>
				<path class="st9" d="M1304,193.5c-13.7,16.7-7.5,58.1,8.9,64.3c17.8,6.8-15.1,59.2-60.7,38.3c-45.6-20.9-27.8-63.1-8.1-60.3
					c9.1,1.3,5.2-4.7,2.9-31.8c-2.3-27,14.9,1.7,26.2,4.3C1284.5,211.1,1305,192.3,1304,193.5z"/>
				<path class="st3" d="M1286.6,247.5c-1.6-14.6-5.6-23.4-2.7-48.7c0,0,20.7-6.2,20.1-5.4c-13.7,16.7-7.5,58.1,8.9,64.3
					c14.4,5.5-4.2,40.5-35.8,43.1c4.1-8,31.2-12.9,32.7-18.7C1315.4,260.7,1288.1,262.1,1286.6,247.5z"/>
				<path class="st4" d="M1173.7,329.9c11-32,18.9-30,21-54.4c2-23.9,13.6-41.7,24.5-41.7c9.6,0,19,0.9,28.6,2.6
					c-12.6-2.4-27.7,31.1,2.5,42.9c30.3,11.8,56.7-23.8,67.6-19.6c-0.1,0-0.2-0.1-0.2-0.1c38.7,14.5,55.7,20.5,27.6,71.3
					c-0.4,0.8-0.8,1.5-1.3,2.4c-0.7,1.2-1.2,2.4-1.7,3.6c-2.1,3.9-4.5,7.9-7.9,15.1c-5.6,11.9-20,71.7-9,105
					c-1.5,3.7-4.8,7.6-10.6,12.2c-7.8,6.2-21,14.1-35.1,19.8c-17.6,7.2-36.7,11.1-48.3,4.2c-10.9-6.5-17.5-9.8-21.4-15.2
					c3.1-22.1-9.5-44.8-12.8-58.7c-3.4-14.3-6.7-33.7-8.4-41.3C1187.1,370.4,1162.7,361.9,1173.7,329.9z"/>
				<path class="st6" d="M1186.1,373.7c-0.2-0.2-0.3-0.4-0.5-0.6c-1.9-2-4.2-4.2-6.6-6.9c-0.2-0.3-0.4-0.5-0.7-0.8
					c-0.6-0.7-1.2-1.5-1.7-2.3c-0.3-0.4-0.5-0.8-0.8-1.2c-0.5-0.8-1-1.6-1.5-2.5c-0.3-0.5-0.5-1.1-0.7-1.6c-1.1-2.4-2.1-5.1-2.5-8.2
					c0,0,0,0,0,0c1.1,2.5,3.4,5.5,6.5,8.4c9.8,5,22.3,9.4,38.1,14.1c51.8,15.1,65.3,1.6,74.9-19.1c6.8-14.9,12.3-30.4,23.2-47.5
					c9.4-19.8,24.2-23.5,3.9-34c-3.6-1.8-8.3-4.3-13.9-7c0,0,0,0,0,0s0,0,0,0c5.8-3.6,10.5-6,13.8-4.8c-0.1,0-0.2-0.1-0.2-0.1
					c9.9,3.7,18.4,6.9,25,10.3c1.2,0.6,2.4,1.3,3.5,2c0.6,0.4,1.1,0.7,1.6,1.1c0.7,0.5,1.3,0.9,1.9,1.4c0.5,0.4,1,0.8,1.5,1.2
					c0.9,0.8,1.7,1.5,2.4,2.3c8.9,9.7,7.6,24.1-8.4,53c-0.4,0.8-0.8,1.5-1.3,2.4c-0.7,1.2-1.2,2.4-1.7,3.6
					c-2.1,3.9-4.5,7.9-7.9,15.1c-5.6,11.9-20,71.7-9,105c-1.5,3.7-4.8,7.6-10.6,12.2c-5.1,4.1-12.6,8.8-21.1,13.3
					c-1.3-8.7-0.6-11.8-0.6-12.4c-0.1-1.4-0.2-2.7-0.2-4c0-0.2,0-0.3,0-0.5c0,0,0,0,0,0c-1.7-28.9-3.6-52.7-27.9-60.8
					c-23-7.7-57.7-15.2-74.2-17c-0.8-4-1.5-7.4-2-9.7c-0.1-0.6-0.5-1.3-0.9-1.9c-0.1-0.2-0.3-0.5-0.5-0.7
					C1187,374.8,1186.6,374.2,1186.1,373.7z"/>
				<path class="st3" d="M1246.4,236.3c-0.4,0-0.7,0-1.1,0.1c0,0-0.1,0-0.1,0c-0.4,0.1-0.8,0.2-1.1,0.3c0,0-0.1,0-0.1,0
					c-0.4,0.1-0.8,0.3-1.1,0.4c0,0,0,0,0,0c-1.6,0.7-3.1,2-4.5,3.5c-9.8-1.9-19.6-2.9-29-2.3c3.2-2.9,6.5-4.6,9.8-4.6
					c2.4,0,4.8,0.1,7.2,0.2c7.1,0.3,14.2,1.2,21.4,2.4c-0.4-0.1-0.8-0.1-1.2-0.1C1246.5,236.3,1246.4,236.3,1246.4,236.3z"/>
				<path class="st8" d="M1251.3,213.8c-26.6,23.6-47.8,41.2-46.4,74.8c1.3,33.5-2.2,38.8-5.3,47.6c-3.1,8.8,21.3-2.9,44.7-27.8
					c23.4-24.9-21.9-44.7,9.7-76.3C1285.5,200.6,1265.5,201.2,1251.3,213.8z"/>
				<path class="st5" d="M1254,232.1c-31.5,31.5,13.7,51.3-9.7,76.3c-23.4,24.9-47.8,36.6-44.7,27.8c1.7-5,3.6-8.8,4.7-17.3
					c2.7,3.4,8-3.7,13.3-6.6c7.6-4.1,15.8-19.3,14.6-38.1c-1.1-18.7,1.8-22.6,14.7-36.8c7.1-7.9,4.6-13.5,17.1-31.1
					C1272.8,203.7,1276.1,210,1254,232.1z"/>
				<path class="st9" d="M1231.4,157.6c1.9-8.3,16.6-14.7,25.4-3.4c11.9,15.1,12.8,21.7,27,37.7c1.3,1.5,2.6,2.7,3.7,3.8
					c0.1-1.3,0.4-2.6,0.7-4c2.4-8.5,9-14.2,14.8-12.6c5.8,1.6,8.6,9.8,6.3,18.4c-1.2,4.6-3.7,8.3-6.6,10.5
					c-9.6,15.5-21.7,26-38.4,32.7c-24.7,10-36.2-19.3-36.2-47.9C1228.1,177.7,1229.2,166.4,1231.4,157.6z"/>
				<path class="st3" d="M1277.6,213c1.9-12.6,5.3-22.1,6.2-21.1c1.3,1.5,2.6,2.7,3.7,3.8c0.1-1.3,0.4-2.6,0.7-4
					c2.4-8.5,9-14.2,14.8-12.6c4.3,1.2,7,6,7.1,11.9c0,1.8-0.3,3.8-0.8,5.7c-1.2,4.6-3.7,8.3-6.6,10.5c-0.7,1.2-1.3,2.4-1.9,3.6
					c-9.3,13.9-20.9,23.6-36.5,29.9c-5.9,2.4-11,2.5-15.4,1C1262.4,245.4,1275.8,224.9,1277.6,213z"/>
				<g>
					<path class="st9" d="M1106.2,372.3c7.4-4,11.3-3.8,16.5-5.7c5.2-1.9,16.2,3.2,25.1,8.4c4.7,2.8,35.4,10.2,37.1,10.8
						c18.5,6.8,70.6,22.7,90.3,30.6h0c0.9,0.8,1.7,1.8,2.5,2.9c0,0,0,0.1,0.1,0.1c0.8,1.1,1.4,2.4,1.9,3.8c0,0,0,0,0,0.1
						c0.5,1.4,0.8,3,1,4.6c0,0,0,0,0,0c0.2,1.6,0.1,3.4-0.3,5.2c-1.2,6.3-5.5,13.6-15.3,21.2c2.2,1.1,4.3,1.9,6.4,2.6
						c-2.1-0.7-4.3-1.6-6.6-2.7c-0.1-0.1-0.2-0.1-0.4-0.2c-3-1.5-5.7-2.7-8-3.7c-5.6-2.7-11.9-5.8-19.7-9.7
						c-13.4-6.7-42.7-21.3-57.7-28.8c-3.3-1.5-6.7-3-10.6-5c-11.2-5.5-14.4-1.6-24-0.8c-9.5,0.8-19.1-4-25.6-7
						c-6.5-3-9.3-3.6-11.4-4.4c-2.1-0.8-4-0.4-3.5,2.8c0.5,3.2-0.5,5-4.5,6c-3.9,1.1-4.9-6.4-5-8.2c-0.2-1.8-1-3.3,0.2-6.5
						c1.3-3.2-0.6-3,0.9-5.8c1.6-2.8,1.2-2.2,1-4.3C1096.4,376.8,1098.8,376.2,1106.2,372.3z"/>
					<path class="st3" d="M1136,396.3c11.4,3.4,12.4-1.9,23.2-0.7c2.2,0.3,5.2,1,8.4,1.9c0.3,0.1,0.5,0.1,0.8,0.2
						c4.1,1.2,8.6,2.8,13,4.7c0.4,0.1,0.7,0.3,1.1,0.4c0.3,0.1,0.6,0.2,0.9,0.4c15,6.1,33.1,14.7,47.4,21.6
						c18.7,9,32.7,14.5,44.4,19.2c-2.4,3.3-5.8,6.8-10.3,10.3c2.2,1.1,4.3,1.9,6.4,2.6c-2.1-0.7-4.3-1.6-6.6-2.7
						c-0.1-0.1-0.2-0.1-0.4-0.2c-3-1.5-5.7-2.7-8-3.7c-5.6-2.7-11.9-5.8-19.7-9.7c-13.4-6.7-42.7-21.3-57.7-28.7
						c-3.2-1.5-6.7-3.1-10.6-5c-11.2-5.5-14.4-1.6-24-0.8c-9.5,0.8-19.1-4-25.6-7c-6.5-3-9.3-3.6-11.4-4.4c-2.1-0.8-4-0.4-3.5,2.8
						c0.4,2.6-0.3,4.2-2.7,5.3c-1.4-3.4-2.4-7.1-0.6-9.9C1105.6,384.9,1124.6,392.9,1136,396.3z"/>
					<path class="st4" d="M1280.3,433.1c0.3-1.8,0.4-3.6,0.3-5.2c0,0,0,0,0,0c-0.1-1.6-0.5-3.2-1-4.6c0,0,0,0,0-0.1
						c-0.5-1.4-1.1-2.6-1.9-3.8c0,0,0-0.1-0.1-0.1c-0.8-1.1-1.6-2.1-2.5-2.9c8.9,3.3,11.5-1.6,12.8-6.3c0.2-0.8,0.4-1.6,0.6-2.4
						c0.1-0.4,0.2-0.8,0.3-1.2c0,0,0-0.1,0-0.1l0,0c3.2-13.2,6.7-26.6,8.5-32.7c7.7-25.6,21-60.1,37.6-79.2
						c16.6-19.2,18.6-15.5,20.1-13.1c10.7,17.4,9.7,25.2,3.3,47.4c-4.7,16.5-21.4,62.8-32.1,93.2c-2.4,6.1-5.9,13.3-10.6,19.7
						c0,0,0,0.1,0,0.1c-0.7,1-1.5,2-2.2,2.9c-0.2,0.3-0.5,0.6-0.7,0.9c-1.3,1.6-2.8,3.1-4.3,4.4c-0.1,0.1-0.2,0.2-0.4,0.4
						c-10,8.9-23.9,13.2-43,4C1274.8,446.7,1279.1,439.4,1280.3,433.1z"/>
					<path class="st4" d="M1318.1,297.7c10.2-16.4,25.5-25.4,34.2-20c8.7,5.4,7.6,23.1-2.6,39.5c-10.2,16.5-25.5,25.4-34.2,20
						C1306.7,331.8,1307.9,314.1,1318.1,297.7z"/>
					<path class="st6" d="M1318.1,297.7c5.1-8.2,11.4-14.5,17.5-18.1c0,0,0,0,0,0c4.7-2.8,9.2-4,13.1-3.2c0.5,0.1,1,0.4,1.5,0.6
						c0.6,0.2,1.3,0.4,1.9,0.7c0,0,0,0,0.1,0c0,0,0.1,0,0.1,0c2.5,1.6,4.1,4.3,5,7.6c8.1,14.7,6.9,23,1.1,43.5c-0.3,1-0.6,2-0.9,3.2
						c-0.1,0.4-0.2,0.8-0.4,1.1c-0.2,0.8-0.5,1.6-0.8,2.5c-0.2,0.5-0.3,1.1-0.5,1.6c-0.3,0.9-0.6,1.7-0.8,2.6
						c-0.2,0.6-0.4,1.1-0.6,1.7c-0.3,1-0.7,2-1,3.1c-0.2,0.5-0.3,1.1-0.5,1.6c-0.5,1.5-1.1,3.2-1.6,4.9c-0.2,0.6-0.5,1.3-0.7,2
						c-0.4,1.2-0.8,2.3-1.2,3.5c-0.2,0.7-0.5,1.3-0.7,2c-0.2,0.7-0.5,1.3-0.7,2l0,0c-6.8,19.7-15.3,43.2-21.6,61.2
						c-3.8,9.6-10.2,21.9-20,29.8c0,0,0.1,0,0.1,0c-0.5,0.4-1.1,0.8-1.6,1.1c-1.1,0.8-2.3,1.6-3.5,2.2c-1.3,0.8-2.7,1.4-4.1,2
						c-0.6,0.2-1.2,0.5-1.9,0.7c-8.2,2.7-18.2,2.4-30.3-3.5c4.6-3.5,7.9-7,10.3-10.3c21.3,8.5,32.2-16.1,33.4-19.7
						c4.8-14,16.4-44.4,25.8-71c0.2-0.6,0.4-1.2,0.6-1.7c0.9-2.5,1.7-4.9,2.6-7.3c3.1-9,5.7-17.3,7.7-23.8c1.4-4.4,2.2-8.3,2.5-11.9
						c0,0,0,0,0-0.1c0.1-1.5,0.1-2.9,0.1-4.3c0-0.5-0.1-1-0.1-1.5c-0.1-1.1-0.2-2.1-0.4-3.1c-0.1-0.4-0.2-0.7-0.3-1.1
						c-5.8-14.4-31.4-9.7-37.1,19.8c0-0.1,0-0.1,0-0.2C1311.1,311.8,1313.8,304.6,1318.1,297.7z"/>
				</g>
			</g>
		</g>
		<g>
			<path class="st1" d="M1546.7,920.9c-180-103.9-472.1-103.8-652.3,0.2c-90.1,52-135.1,120.1-135.3,188.2
				c0,23.8,5.5,47.5,16.4,70.6c-80.6,45.5-170.1,96-170.9,96.5c-15.8,9.1-15.8,24,0,33.1c14.8,8.5,38.1,9.1,54,1.8l0.1,0l0.9-0.5
				c0.4-0.2,73.5-41.4,147.4-83.1c21.7,25.3,50.6,49,87,70c74.4,43,168,68.1,265,75.5c-85.8,48.4-194.8,110-195.7,110.5
				c-15.8,9.1-15.8,24,0,33.1c14.8,8.5,38,9.1,54,1.8l0.1,0l0.9-0.5c0.6-0.3,173-97.6,256.1-144.5c99.4-6.8,195.7-32.1,272-76.2
				c90.1-52,135.2-120.1,135.3-188.2C1681.8,1041.2,1636.8,973,1546.7,920.9z"/>
			<g>
				<path class="st4" d="M1391.3,944.5c0-12.9-18.1-23.3-40.4-23.3c-22.3,0-40.4,10.4-40.4,23.3v348.6l0,0c0,0,0,0,0,0
					c0,12.9,18.1,23.3,40.4,23.3c22.3,0,40.4-10.5,40.4-23.3V944.5L1391.3,944.5C1391.3,944.5,1391.3,944.5,1391.3,944.5z"/>
				<path d="M1351,921.1L1351,921.1l0,395.3c22.3,0,40.4-10.5,40.4-23.3V944.5c0,0,0,0,0,0C1391.4,931.6,1373.3,921.1,1351,921.1z"
					/>
			</g>
			<g>
				<path class="st4" d="M1032.2,1151.8c0-12.9-18.1-23.3-40.4-23.3c-22.3,0-40.4,10.5-40.4,23.3v348.6l0,0c0,0,0,0,0,0
					c0,12.9,18.1,23.3,40.4,23.3c22.3,0,40.4-10.5,40.4-23.3V1151.8L1032.2,1151.8C1032.2,1151.8,1032.2,1151.8,1032.2,1151.8z"/>
				<path d="M991.8,1128.5L991.8,1128.5l0,395.3c22.3,0,40.4-10.5,40.4-23.3v-348.6c0,0,0,0,0,0
					C1032.2,1138.9,1014.2,1128.5,991.8,1128.5z"/>
			</g>
			<g>
				<path class="st4" d="M1032.7,737.3c0-12.9-18.1-23.3-40.4-23.3c-22.3,0-40.4,10.4-40.4,23.3V1086l0,0c0,0,0,0,0,0
					c0,12.9,18.1,23.3,40.4,23.3c22.3,0,40.4-10.5,40.4-23.3V737.3L1032.7,737.3C1032.7,737.4,1032.7,737.4,1032.7,737.3z"/>
				<path class="st3" d="M992.3,714L992.3,714l0,395.3c22.3,0,40.4-10.5,40.4-23.3V737.4c0,0,0,0,0,0
					C1032.7,724.5,1014.6,714,992.3,714z"/>
			</g>
			<g>
				<path class="st4" d="M673.5,944.5c0-12.9-18.1-23.3-40.4-23.3c-22.3,0-40.4,10.4-40.4,23.3v348.6l0,0c0,0,0,0,0,0
					c0,12.9,18.1,23.3,40.4,23.3c22.3,0,40.4-10.5,40.4-23.3V944.5L673.5,944.5C673.5,944.5,673.5,944.5,673.5,944.5z"/>
				<path d="M633.2,921.1L633.2,921.1l0,395.3c22.3,0,40.4-10.5,40.4-23.3V944.5c0,0,0,0,0,0C673.6,931.6,655.5,921.1,633.2,921.1z"
					/>
			</g>
			<g>
				<path class="st2" d="M1501.1,944.4V914h0c0.2-75.3-49.5-150.6-148.9-208c-198.7-114.7-521.1-114.6-720,0.3
					C532.8,763.7,483.1,838.9,482.9,914h0v30.6h0c-0.2,75.3,49.5,150.6,148.9,208c198.7,114.7,521.1,114.6,720-0.2
					c99.4-57.4,149.2-132.6,149.3-207.7h0V944.4C1501.1,944.4,1501.1,944.4,1501.1,944.4z"/>
				<path class="st3" d="M1111.7,721.4c9.1-5.3,24-5.3,33.1,0l189.5,109.4c9.1,5.3,9.1,13.8,0,19.1l-71,41c-9.1,5.3-23.9,5.3-33.1,0
					l-189.5-109.4c-9.1-5.3-9.1-13.9,0-19.1L1111.7,721.4z"/>
				<path class="st3" d="M622,857.5c-9.1-5.3-9.1-13.9,0-19.1L811.6,729c9.1-5.3,24-5.3,33.1,0l103.2,59.6c9.1,5.3,9.1,13.8,0,19.1
					L758.3,917.1c-9.1,5.3-23.9,5.3-33.1,0L622,857.5z"/>
				<path class="st3" d="M1351.8,1121.8c-199,114.8-521.3,115-720,0.2c-99.4-57.4-149.1-132.7-148.9-208h0v30.6h0
					c-0.2,75.3,49.5,150.6,148.9,208c198.7,114.7,521.1,114.6,720-0.2c99.4-57.4,149.2-132.6,149.3-207.7h0v-0.1c0,0,0,0,0-0.1V914
					h0C1501,989.2,1451.2,1064.4,1351.8,1121.8z"/>
			</g>
		</g>
		<g>
			<path class="st13" d="M1334.3,811.7l-71,41c-9.1,5.3-23.9,5.3-33.1,0l-189.5-109.4c-4.6-2.6-6.8-6.1-6.9-9.5l0,0l0,6.3
				c0,0,0,0,0,0l0,0.5h0.1c0.2,3.3,2.4,6.5,6.8,9l189.5,109.4c9.1,5.3,24,5.3,33.1,0l71-41c4.5-2.6,6.8-6,6.8-9.4l0,0v-6.5l0,0
				C1341.2,805.6,1338.9,809.1,1334.3,811.7z"/>
			<path class="st6" d="M1334.3,811.7l-71,41c-9.1,5.3-23.9,5.3-33.1,0l-189.5-109.4c-4.6-2.6-6.8-6.1-6.9-9.5l0,0l0,6.3
				c0,0,0,0,0,0l0,0.5h0.1c0.2,3.3,2.4,6.5,6.8,9l189.5,109.4c9.1,5.3,24,5.3,33.1,0l71-41c4.5-2.6,6.8-6,6.8-9.4l0,0v-6.5l0,0
				C1341.2,805.6,1338.9,809.1,1334.3,811.7z"/>
			<path class="st13" d="M1111.7,683.2c9.1-5.3,24-5.3,33.1,0l189.5,109.4c9.1,5.3,9.1,13.8,0,19.1l-71,41c-9.1,5.3-23.9,5.3-33.1,0
				l-189.5-109.4c-9.1-5.3-9.1-13.9,0-19.1L1111.7,683.2z"/>
			<path class="st13" d="M1252.2,814.5c0.1,0.3,0.1,0.5,0,0.8c0.1,0.3,0.1,0.5,0,0.8c0.1,0.3,0.1,0.5,0,0.8c0.1,0.3,0.1,0.5,0,0.8
				c0.1,0.3,0.1,0.5,0,0.8c0.1,0.3,0.1,0.5,0,0.8c0.1,0.3,0.1,0.5,0,0.8c0.2,0.9-0.2,1.9-1.5,2.7c-2.2,1.3-5.7,1.3-7.9,0
				l-150.2-86.7c-1.3-0.7-1.7-1.7-1.5-2.7c-0.1-0.3-0.1-0.5,0-0.8c-0.1-0.3-0.1-0.5,0-0.8c-0.1-0.3-0.1-0.5,0-0.8
				c-0.1-0.3-0.1-0.5,0-0.8c-0.1-0.3-0.1-0.5,0-0.8c-0.1-0.3-0.1-0.5,0-0.8c-0.1-0.3-0.1-0.5,0-0.8c0.1,0.7,0.6,1.4,1.5,1.9
				l150.2,86.7c2.2,1.3,5.8,1.3,8,0C1251.6,815.9,1252.1,815.2,1252.2,814.5z M1266.6,807.2c-2.2,1.3-5.7,1.3-7.9,0l-95-54.8
				c-0.9-0.5-1.3-1.2-1.5-1.9c0,0.3,0,0.5,0,0.8c0,0.3-0.1,0.5,0,0.8c0,0.3-0.1,0.5,0,0.8c0,0.3,0,0.5,0,0.8c-0.1,0.3,0,0.5,0,0.8
				c-0.1,0.3-0.1,0.5,0,0.8c0,0.3-0.1,0.5,0,0.8c-0.2,1,0.2,2,1.5,2.7l95,54.8c2.2,1.2,5.8,1.3,8,0c1.3-0.7,1.7-1.7,1.5-2.7
				c0.1-0.3,0.1-0.5,0-0.8c0.1-0.3,0.1-0.5,0-0.8c0.1-0.3,0.1-0.5,0-0.8c0.1-0.3,0.1-0.5,0-0.8c0-0.3,0.1-0.5,0-0.8
				c0-0.3,0.1-0.5,0-0.8c0.1-0.3,0.1-0.5,0-0.8v0C1267.9,806,1267.5,806.7,1266.6,807.2z M1282.4,798.1c-2.2,1.2-5.7,1.3-7.9,0
				l-122.6-70.8c-0.9-0.5-1.3-1.2-1.5-1.9l0,0c0,0.3-0.1,0.5,0,0.8c0,0.3-0.1,0.5,0,0.8c0,0.3-0.1,0.5,0,0.8c0,0.3-0.1,0.5,0,0.8
				c0,0.3-0.1,0.5,0,0.8c0,0.3-0.1,0.5,0,0.8c0,0.3-0.1,0.5,0,0.8c-0.2,1,0.2,1.9,1.5,2.7l122.6,70.8c2.2,1.3,5.8,1.3,7.9,0
				c1.3-0.7,1.7-1.7,1.5-2.7c0.1-0.3,0.1-0.5,0-0.8c0.1-0.3,0.1-0.5,0-0.8c0.1-0.3,0.1-0.5,0-0.8c0-0.3,0-0.5,0-0.8
				c0.1-0.3,0.1-0.5,0-0.8c0.1-0.3,0-0.5,0-0.8c0.1-0.3,0-0.5,0-0.8C1283.8,796.9,1283.4,797.5,1282.4,798.1z"/>
			<path class="st6" d="M1252.2,814.5c0.1,0.3,0.1,0.5,0,0.8c0.1,0.3,0.1,0.5,0,0.8c0.1,0.3,0.1,0.5,0,0.8c0.1,0.3,0.1,0.5,0,0.8
				c0.1,0.3,0.1,0.5,0,0.8c0.1,0.3,0.1,0.5,0,0.8c0.1,0.3,0.1,0.5,0,0.8c0.2,0.9-0.2,1.9-1.5,2.7c-2.2,1.3-5.7,1.3-7.9,0
				l-150.2-86.7c-1.3-0.7-1.7-1.7-1.5-2.7c-0.1-0.3-0.1-0.5,0-0.8c-0.1-0.3-0.1-0.5,0-0.8c-0.1-0.3-0.1-0.5,0-0.8
				c-0.1-0.3-0.1-0.5,0-0.8c-0.1-0.3-0.1-0.5,0-0.8c-0.1-0.3-0.1-0.5,0-0.8c-0.1-0.3-0.1-0.5,0-0.8c0.1,0.7,0.6,1.4,1.5,1.9
				l150.2,86.7c2.2,1.3,5.8,1.3,8,0C1251.6,815.9,1252.1,815.2,1252.2,814.5z M1266.6,807.2c-2.2,1.3-5.7,1.3-7.9,0l-95-54.8
				c-0.9-0.5-1.3-1.2-1.5-1.9c0,0.3,0,0.5,0,0.8c0,0.3-0.1,0.5,0,0.8c0,0.3-0.1,0.5,0,0.8c0,0.3,0,0.5,0,0.8c-0.1,0.3,0,0.5,0,0.8
				c-0.1,0.3-0.1,0.5,0,0.8c0,0.3-0.1,0.5,0,0.8c-0.2,1,0.2,2,1.5,2.7l95,54.8c2.2,1.2,5.8,1.3,8,0c1.3-0.7,1.7-1.7,1.5-2.7
				c0.1-0.3,0.1-0.5,0-0.8c0.1-0.3,0.1-0.5,0-0.8c0.1-0.3,0.1-0.5,0-0.8c0.1-0.3,0.1-0.5,0-0.8c0-0.3,0.1-0.5,0-0.8
				c0-0.3,0.1-0.5,0-0.8c0.1-0.3,0.1-0.5,0-0.8v0C1267.9,806,1267.5,806.7,1266.6,807.2z M1282.4,798.1c-2.2,1.2-5.7,1.3-7.9,0
				l-122.6-70.8c-0.9-0.5-1.3-1.2-1.5-1.9l0,0c0,0.3-0.1,0.5,0,0.8c0,0.3-0.1,0.5,0,0.8c0,0.3-0.1,0.5,0,0.8c0,0.3-0.1,0.5,0,0.8
				c0,0.3-0.1,0.5,0,0.8c0,0.3-0.1,0.5,0,0.8c0,0.3-0.1,0.5,0,0.8c-0.2,1,0.2,1.9,1.5,2.7l122.6,70.8c2.2,1.3,5.8,1.3,7.9,0
				c1.3-0.7,1.7-1.7,1.5-2.7c0.1-0.3,0.1-0.5,0-0.8c0.1-0.3,0.1-0.5,0-0.8c0.1-0.3,0.1-0.5,0-0.8c0-0.3,0-0.5,0-0.8
				c0.1-0.3,0.1-0.5,0-0.8c0.1-0.3,0-0.5,0-0.8c0.1-0.3,0-0.5,0-0.8C1283.8,796.9,1283.4,797.5,1282.4,798.1z"/>
			<path class="st14" d="M1092.6,725.1c2.2-1.3,5.8-1.3,8,0l150.2,86.7c2.2,1.3,2.2,3.3,0,4.6l0,0c-2.2,1.3-5.8,1.3-8,0l-150.2-86.7
				C1090.4,728.4,1090.4,726.4,1092.6,725.1L1092.6,725.1z M1151.9,722.7c2.2-1.3,5.7-1.3,7.9,0l122.6,70.8c2.2,1.3,2.2,3.3,0,4.6
				l0,0c-2.2,1.2-5.7,1.3-7.9,0l-122.6-70.8C1149.7,726,1149.7,724,1151.9,722.7L1151.9,722.7z M1163.7,747.8
				c-2.2,1.3-2.2,3.3,0,4.6l95,54.8c2.2,1.3,5.7,1.3,7.9,0l0,0c2.2-1.3,2.2-3.3,0-4.6l-95-54.8
				C1169.4,746.5,1165.8,746.5,1163.7,747.8L1163.7,747.8z"/>
		</g>
		<g>
			<g>
				<path class="st1" d="M417.8,1515c4.4-2.6,185.7-106.5,188.5-108.1c48.7-28.1,127.7-28.1,176.6,0.1
					c48.8,28.1,48.8,73.8,0.1,101.9c-4.3,2.5-193.5,110.8-196.1,112.1l-2.7,1.5l-0.2-0.1c-49,22.6-120.6,20.8-166-5.5
					C369.1,1588.8,369.1,1543.1,417.8,1515z"/>
				<path class="st1" d="M808.7,1594.9c28.5-31.6,79.4-42.8,70.4-64.7c-5.2-21.4-13.1-26.4-57.2-32.5c-45.6-6.2-39.1,20.1-77.3,41.6
					C707.3,1560.1,759.2,1649.4,808.7,1594.9z"/>
				<path class="st2" d="M633.8,1565v-21.2l0,0c0-18.7-12.3-37.4-36.9-51.6c-49.3-28.4-129.2-28.4-178.6,0.1
					c-24.7,14.2-37,32.8-37,51.5l0,0l0,0c0,0,0,0,0,0.1v21.3l0,0c0,18.7,12.3,37.3,37,51.6c49.3,28.5,129.2,28.5,178.6-0.1
					c24.6-14.2,36.9-32.8,37-51.5l0,0v0C633.8,1565.1,633.8,1565.1,633.8,1565z"/>
				<path class="st3" d="M596.8,1595.3c-49.4,28.5-129.3,28.5-178.6,0.1c-24.7-14.2-37-32.8-37-51.5v21.3c0,18.7,12.3,37.3,37,51.6
					c49.3,28.5,129.2,28.5,178.6-0.1c24.6-14.2,36.9-32.8,37-51.5v0c0,0,0-0.1,0-0.1v-21.2l0,0
					C633.8,1562.4,621.4,1581.1,596.8,1595.3z"/>
				<path class="st3" d="M539.4,1525.4c-17.6-10.1-46.1-10.1-63.6,0c-17.6,10.1-17.6,26.6,0,36.7c17.6,10.2,46.1,10.2,63.7,0
					C556.9,1552,556.9,1535.6,539.4,1525.4z"/>
				<path class="st4" d="M537.2,1361.3L537.2,1361.3c0-4.4-2.9-8.8-8.7-12.1c-11.6-6.7-30.3-6.7-41.9,0c-5.8,3.3-8.7,7.7-8.7,12.1
					l0,0l0,0c0,0,0,0,0,0v182.5l0,0c0,4.4,2.9,8.8,8.7,12.1c11.5,6.7,30.3,6.7,41.9,0c5.8-3.3,8.7-7.7,8.7-12.1h0V1361.3z"/>
				<path d="M537.2,1361.3c0-4.4-2.9-8.8-8.7-12.1c-5.8-3.3-13.4-5-21-5v216.7c7.6,0,15.1-1.7,20.9-5c5.8-3.3,8.7-7.7,8.7-12.1h0
					L537.2,1361.3L537.2,1361.3z"/>
			</g>
			<path class="st2" d="M668.6,1360.5l-141.9,83.9l-39.3-72.9l-19.7-122.9l3.5-2.1c3.3-1.8,6.2-1.9,8.3-0.6l197.4,114
				C674.7,1358.6,671.8,1358.7,668.6,1360.5z"/>
			<path class="st6" d="M668.6,1360.5l-141.9,83.9l-39.3-72.9l-19.7-122.9l3.5-2.1c3.3-1.8,6.2-1.9,8.3-0.6l197.4,114
				C674.7,1358.6,671.8,1358.7,668.6,1360.5z"/>
			<g>
				<path class="st8" d="M407.6,1285.6l24.2-49.8l46.4,48.4l17.8-5.5v110.2c-6.5,1.6-13.2,2.4-19.9,2.6l-0.2,0
					C420.6,1393.1,383.4,1335.4,407.6,1285.6z"/>
				<g>
					<path class="st9" d="M768.5,1423.9c0.8,15,3.7,29.1,11.4,45.3c15.8,33.3,28.8,55.9,40,55.7c11.2-0.1,32.4,9.4,19.4,22.1
						c-13,12.7-22.9,14.2-42.2,6.5c-19.3-7.7-27.7-35.8-52.9-35.8c-13.4,0-20.4-8.7-16.8-21.6c3.6-12.8,9.6-24.1,4.4-58
						c-0.1-0.4-0.1-0.7-0.2-1.1C740.2,1444.4,763,1433.6,768.5,1423.9z"/>
					<path class="st15" d="M726.6,1504.9c-0.7-6.7,1.5-16.8,4-22.5c20-3.3,45.1,18.9,57.4,35.8l2.9,3.7l0,0c1,1.1,2.1,2.2,3,3.4
						c9.6,11.9,18.7,20.8,29.7,12.2c9.7-7.5,3.5-9.3-4.2-12.8c0.2,0,0.4,0.1,0.6,0.1c11.2-0.1,32.4,9.4,19.4,22.1
						c-13,12.7-22.9,14.2-42.2,6.5c-19.3-7.7-27.7-35.8-52.9-35.8c-10,0-16.3-4.9-17.4-12.7L726.6,1504.9z"/>
					<path class="st3" d="M768.5,1423.9c0.8,15,3.7,29.1,11.4,45.3c15.8,33.3,28.8,55.9,40,55.7c11.2-0.1,32.4,9.4,19.4,22.1
						c-13,12.7-22.9,14.2-42.2,6.5c-19.3-7.7-27.7-35.8-52.9-35.8c-9.3,0-15.5-4.3-17.2-11.2c0,0,0,0,0,0c4.9-2.6,18.2,2.9,26.9,4.6
						c12.2,2.3,4.6-20.5,4-51.2c-0.1-5.7-0.8-14-2.1-25.2C761.4,1431.7,766.3,1427.7,768.5,1423.9z"/>
					<path class="st8" d="M781.2,1527.5c17.5,17.3,27,37.9,48.5,21.4c5.5-4.2,9.9-8.4,13.2-12.1c1,3,0.2,6.5-3.6,10.3
						c-13,12.7-22.9,14.2-42.2,6.5c-19.3-7.7-27.7-35.8-52.9-35.8c-8.6,0-14.6-3.7-16.8-9.7C741.2,1510.7,765.7,1512,781.2,1527.5z"
						/>
					<path class="st3" d="M781.2,1527.5c17.5,17.3,27,37.9,48.5,21.4c5.5-4.2,9.9-8.4,13.2-12.1c1,3,0.2,6.5-3.6,10.3
						c-13,12.7-22.9,14.2-42.2,6.5c-19.3-7.7-27.7-35.8-52.9-35.8c-8.6,0-14.6-3.7-16.8-9.7C741.2,1510.7,765.7,1512,781.2,1527.5z"
						/>
					<path class="st8" d="M741.7,1514.2c8.6,2.7,11.2-1.7,9.5,8.2c-1.7,9.8,7.3,46.8,5.7,49c-1.7,2.3-3.7,2.8-6.3,1
						c-2.6-1.9-8.2-42.8-15.4-51.3C728.1,1512.5,733.6,1511.7,741.7,1514.2z"/>
				</g>
				<path class="st8" d="M484.4,1249.7l-24.2,49.8c-24.2,49.8,13,107.5,68.3,105.9l0.2,0c13.3-0.4,26.4-3.5,38.5-9.1l108.4-50.7
					c2.3-2.2,6.2-0.9,6.8,2.2l2.2,11.7c3.9,20.5,12.5,39.9,25,56.6l13,17.4c7.9,10.6,21.6,14.9,34.2,10.8
					c8.6-2.8,14.2-12.4,12.3-21.3l-25.9-124.7c-6.9-33.1-40.8-53.2-73.1-43.2l-139.4,43L484.4,1249.7z"/>
				<path class="st5" d="M400.4,1312.4c2.7,59.1,120-21.7,119.7-25.5l10.7,11.2l139.4-43c32.3-10,66.3,10,73.1,43.2l25.9,124.7
					c1.9,8.9-3.7,18.4-12.3,21.3c-1.4,0.5-2.8,0.8-4.3,1.1l-26.7-36.6c-12.5-16.7-21.1-36.1-25-56.6l-2.2-11.7
					c-0.6-3.1-4.4-4.4-6.8-2.2l-13.7,6.4l0,0c-0.9,0-1.8,0.3-2.6,1l-108.4,50.7c-12.1,5.6-25.2,8.8-38.5,9.1l-0.2,0
					c-17.6,0.5-33.4-5.1-45.9-14.4c-2.1,0.2-4.3,0.5-6.4,0.5l-0.2,0C430.4,1392.8,397.2,1353.9,400.4,1312.4z"/>
				<g>
					<path class="st9" d="M497.5,1018.6c-5.3-1.9-10.1,28.9,5.5,37c15.6,8.1-79.7,6.7-72.8-1.6c6.8-8.3,4.3-17,10.1-16.7
						c5.7,0.3,29.5-22.6,16-46.3c-13.5-23.7,27.7-20.8,32.4-14.5c4.8,6.3,22.7,10.9,18.7,18.8
						C503.3,1003.1,505.6,1021.5,497.5,1018.6z"/>
					<path class="st5" d="M497.5,1018.6c-5.3-1.9-10.1,28.9,5.5,37c15.6,8.1-79.7,6.7-72.8-1.6c6.8-8.3,4.3-17,10.1-16.7
						c5.7,0.3,29.5-22.6,16-46.3c-13.5-23.7,27.7-20.8,32.4-14.5c4.8,6.3,22.7,10.9,18.7,18.8
						C503.3,1003.1,505.6,1021.5,497.5,1018.6z"/>
					<path class="st9" d="M529.1,930.6c-2.1-8.9-17.7-15.7-27.2-3.7c-12.7,16.1-13.6,23.2-28.8,40.3c-1.4,1.6-2.7,2.9-4,4
						c-0.1-1.4-0.4-2.8-0.8-4.3c-2.5-9.1-9.6-15.2-15.8-13.5c-6.2,1.7-9.2,10.5-6.7,19.6c1.3,4.9,4,8.8,7.1,11.2
						c10.2,16.5,12.7,22.7,30.5,29.9c14.3,5.8,32.9,8.6,36.6-3c3-9.4,12.5-16.7,12.5-30.8c0-9.1-4.9-25.7-3.5-33.7
						C529.8,941.8,530.1,934.7,529.1,930.6z"/>
					<path class="st5" d="M529.1,930.6c-2.1-8.9-17.7-15.7-27.2-3.7c-12.7,16.1-13.6,23.2-28.8,40.3c-1.4,1.6-2.7,2.9-4,4
						c-0.1-1.4-0.4-2.8-0.8-4.3c-2.5-9.1-9.6-15.2-15.8-13.5c-6.2,1.7-9.2,10.5-6.7,19.6c1.3,4.9,4,8.8,7.1,11.2
						c10.2,16.5,12.7,22.7,30.5,29.9c14.3,5.8,32.9,8.6,36.6-3c3-9.4,12.5-16.7,12.5-30.8c0-9.1-4.9-25.7-3.5-33.7
						C529.8,941.8,530.1,934.7,529.1,930.6z"/>
					<path class="st5" d="M495.5,1011.2c9.7-4.1,9.1,4.3,19.7-13.1c10.5-17.4,6.5-33.9,7.7-48.2c1.1-14.3,1-14.2-7.7-26.2
						c-0.8-1-1.5-2.1-2.2-3.1c7.5-0.8,14.8,4.1,16.2,10c1,4.1,0.7,11.1-0.2,16.3c-1.4,8,3.5,24.6,3.5,33.7c0,14-9.5,21.3-12.5,30.8
						c-2.4,7.5-11.1,8.9-20.8,7.5c-0.5,0-1.1,0-1.7-0.3c-5.3-1.9-10.1,28.9,5.5,37c5.3,2.8-2.3,3.9-14.4,4.3
						c-0.9-10.1-1.1-19.5-1.6-23.6C485.4,1025.2,485.7,1015.3,495.5,1011.2z"/>
					<g>
						<g>
							<path class="st9" d="M627.7,1039.6c0,0,17.4-17.9,24.4-17.7c7,0.2,26.7,2.5,37.6,2.8c10.9,0.3,14,5.6,18,1.9
								c4-3.8-5.7-12-14.4-12.3c-8.7-0.3-9.1-3.4-9-8c0.1-4.6,29.6-25.7,25-30.6c-4.6-4.9-17.3,11.1-23.8,10.9
								c-3.7-0.1-3.6-4.2-6.7-4.3c-3.1-0.1-2.9,1.1-4.3,1.1c-1.3,0-0.7-0.7-3.2-0.8c-2.5-0.1-3.3,1.5-4.2,1.5c-1,0-1.6-0.4-3.1-0.5
								c-1.5,0-8.8,2.4-13.8,7.1c-4.9,4.6-14,8.3-21.5,13.8c-7.4,5.4-11.7,16.8-12,26.2C616.5,1040.1,621.8,1045.3,627.7,1039.6z"/>
							<path class="st3" d="M627.7,1039.6c0,0,17.4-17.9,24.4-17.7c7,0.2,26.7,2.5,37.6,2.8c10.9,0.3,14,5.6,18,1.9
								c4-3.8-5.7-12-14.4-12.3c-8.7-0.3-9.1-3.4-9-8c0.1-4.6,29.6-25.7,25-30.6c-0.4-0.4-0.8-0.6-1.2-0.7
								c-8.7,8.3-26.6,25.6-38.5,27.4c-13.5,2.1-24.3,3.3-42.9,20.2c-3.8,3.4-7.1,6.3-9.9,8.8
								C616.8,1040.3,621.9,1045.1,627.7,1039.6z"/>
						</g>
						<path class="st9" d="M546.9,1059.5c-2-1.1-3.8-1.7-5.6-2c1.9-0.5,3.8-1.3,5.4-2.4l82.1-50.7l4.6,29.9l-59.3,51.3
							c-4.1,3.5-8.6,6.3-13.4,8.4c1.2-1.9,2-4.2,2-7.3C562.6,1076.7,555.6,1064.5,546.9,1059.5z"/>
						<path class="st13" d="M400.5,1057.7c2.5-13.4,15.5-22.2,28.9-19.5l105,19.6c2.3,0.5,4.6,0.4,6.8-0.2c1.7,0.2,3.6,0.8,5.6,2
							c8.7,5,15.7,17.2,15.7,27.3c0,3.1-0.8,5.5-2,7.3c-8.1,3.5-17,5-26,4.2l-110.8-9.7C408.5,1087.1,397.7,1072.8,400.5,1057.7z"/>
						<path class="st3" d="M571.5,1062.3c-7.9,6.3-14.5,3.8-17.1,3.7c0,0,0,0,0,0c2.4,2.9,4.4,6.3,5.9,9.8c0.1,0.2,0.1,0.4,0.2,0.6
							c0.6,1.4,1,2.9,1.4,4.3c0.1,0.4,0.2,0.8,0.3,1.2c0.3,1.6,0.5,3.3,0.5,4.8c0,3.1-0.8,5.5-2,7.3c4.8-2.1,9.4-4.9,13.4-8.4
							l59.3-51.3l-2.4-15.5C628.2,1020.9,571.5,1062.3,571.5,1062.3z"/>
						<path class="st5" d="M426.4,1037.8c12.5,9.8,112,33.5,127.9,28.2c4.9,5.9,8.3,13.8,8.2,20.7c0,3.1-0.8,5.5-2,7.3
							c-8.1,3.5-17,5-26,4.2l-110.8-9.7c-15.3-1.4-26.1-15.7-23.3-30.9C402.9,1045.3,414.2,1036.9,426.4,1037.8z"/>
					</g>
					<path class="st13" d="M427.7,1036.6c28.2,0.9,50.2,5.5,70.2,14.9c13.2,6.2,29.9,15.1,43.3,24.5c0.2,0.1,0.4,0.3,0.6,0.4
						c0.3,0.2,0.6,0.4,0.9,0.7c2.1,1.5,4.1,3,6,4.5c3.7,2.4,9,4.6,21.2,7c10.5,2.1,4.5,8.5-5.2,13.2c6.1,27.8,24.5,36.5,16.3,59.9
						c-7.3,20.8-22.9,18.4-26.9,42.8c-4,24.4-2.3,96.1-5.3,99.4c-3.1,3.3-47.5,20.5-89.7,3.3c-0.7-0.3-1.2-0.5-1.9-0.8
						c-26-10.7-41.1-19.6-46.6-28.1c3.1-7.5,5.3-15.2,5.3-24.7c0-32.8-3.6-37.9-11.2-70c-0.2-0.9-0.5-1.7-0.9-2.6
						c-0.5-1.7-1.1-3.4-1.6-4.7c-2.4-5.6-5-11-7.7-15.8c-18.8-34.2-21.5-65.5-21.5-95.1C373.2,1038.1,415.1,1036.4,427.7,1036.6z"/>
					<path class="st13" d="M623.6,1142.7c-21.6-0.9-66.4,5.9-69.4,61.9c-3,56-60.4,18.6-46.3-28.9c14.1-47.6,8.9-70.2,46.3-67.4
						c37.4,2.9,88.7,0.5,97.3,13.3C660.1,1134.5,640.7,1143.4,623.6,1142.7z"/>
					<path class="st13" d="M608.3,1095c-31-5.9-55.1-15.1-100.4-38.4c-45.3-23.3-64.5,19.7-50.8,38.4
						c13.7,18.7,103.5,31.1,131.3,25.1C616.2,1114.2,660.4,1105,608.3,1095z"/>
					<path class="st5" d="M651.5,1121.7c-7.6-11.5-49.3-10.8-84.7-12.6c-0.7-2.3-1.4-4.6-2-7.2c2.1-1,8.4-1.2,16.7-0.9
						c-18.1-8.7-24-18.1-44.7-30.1c-6.1-2.9-12.5-5.9-19.6-9.5c-1.9-1-3.7-2-5.6-3c-2.1-1-3.9-1.9-5.5-2.9c-2.9-1.4-5.7-2.8-8.3-4.1
						c-20-9.4-42-14-70.2-14.9c-0.7,0-1.6,0-2.5,0c-0.5,0-1,0-1.5,0c-0.5,0-0.9,0-1.4,0c-0.8,0-1.6,0.1-2.4,0.1c-0.3,0-0.6,0-1,0
						c-1,0.1-2,0.1-3,0.2c-0.2,0-0.4,0-0.6,0.1c-1.1,0.1-2.3,0.2-3.5,0.4c-0.1,0-0.3,0-0.4,0c-1.3,0.2-2.6,0.3-3.9,0.6
						c0,0-0.1,0-0.1,0c-12.9,2.1-27.1,7.2-32,18.6c-0.1-0.1-0.3-0.1-0.4-0.2c0,0.4,0,0.9-0.1,1.4c-0.2,0.5-0.4,0.9-0.6,1.4
						c0,0,0,0,0,0c0.2-0.1,0.4-0.2,0.5-0.3c-1.6,26.6,0,54.9,14,86.6c2.2,5.1,4.3,10.6,6.3,16.4c0.4,1.4,0.8,3.1,1.1,4.8
						c0.3,0.9,0.5,1.7,0.7,2.6c4.8,32.7,8,38.1,5.2,70.7c-0.8,9.5-3.7,17-7.4,24.2c4.8,8.9,19.1,19.1,44.1,32
						c0.6,0.3,1.2,0.6,1.8,0.9c23.3,11.9,48.2,12.5,65.9,10.3c0.1,0,0.1,0,0.2,0c-0.2,2.2-0.3,4.5-0.3,7.1h0c0,0,0.1,0,0.2,0
						c2.7-0.1,5.2-0.4,7.7-0.7c0.4,0,0.8-0.1,1.2-0.2c2.2-0.3,4.4-0.6,6.4-1c0.3-0.1,0.7-0.1,1-0.2c2.3-0.4,4.4-0.9,6.5-1.4
						c0,0,0.1,0,0.1,0c4.2-1,7.9-2.1,10.9-3.2c0.3-0.1,0.6-0.2,0.9-0.3c1.1-0.4,2-0.8,2.9-1.1c0.3-0.1,0.6-0.3,0.9-0.4
						c0.7-0.3,1.3-0.6,1.9-0.9c0.2-0.1,0.5-0.2,0.6-0.3c0.6-0.3,1.1-0.7,1.3-0.9c2.7-2.8,1.7-57.9,4.1-88.1c0.6-3.2,1-6.9,1.3-11.3
						c4-24.4,19.6-22,26.9-42.8c0.7-1.9,1.1-3.6,1.4-5.3c0.1-0.5,0.2-0.9,0.2-1.4c0.2-1.2,0.3-2.3,0.3-3.4c14-8,30-9.5,40.5-9
						C640.7,1143.4,660.1,1134.5,651.5,1121.7z M377,1057.5c13.4-7.6,33.3-8.4,41.4-8.2c28.2,0.9,50.2,5.5,70.2,14.9
						c8.8,4.1,19,9.4,28.8,15.3c1.8,1.1,3.6,2.2,5.4,3.3c0.3,0.2,0.5,0.3,0.8,0.5c1.6,1,3.1,2,4.6,3c0.7,0.5,1.4,1,2.1,1.4
						c0.2,0.2,0.5,0.3,0.7,0.5c5.1,3.6,3.7,9.8,0,18.5c0,0,0,0,0,0c-0.8,1.7-1.7,3.6-2.7,5.7c-4.8,10.7-8.9,18.5-12,26.3
						c-2.3-8.4-3.9-15.6-4.4-20.9C508.5,1076.8,442,1090.1,377,1057.5z"/>
					<path class="st8" d="M414.4,902c2.4-3.8,5.5-7.3,9-10.4c0.5-0.4,1-0.9,1.5-1.3c0.3-0.3,0.7-0.5,1-0.8c0.5-0.4,0.9-0.8,1.4-1.1
						l0.1,0c10.9-8.2,25.4-13.2,41.3-13.2c33.9,0,61.5,22.7,61.5,50.7c0,6.1-1.4,12-3.8,17.4c0,0.1-0.1,0.2-0.1,0.4
						c-9.3,27.8-12.8,20.8-16.2,47.2c-8,62.6,24.9,53.4,28.7,83.5c-8.7-5.9-18.6-11.5-27.8-16.4c0,0-0.1,0-0.1-0.1
						c-12.9-6.4-17.7,0.9-42.7-4.8c-25-5.7-42.5-11.6-60.9-54.4C395.4,971.4,395.4,929,414.4,902z"/>
					<path class="st5" d="M530.1,925.8c0,6.1-1.4,12-3.8,17.4c0,0.1-0.1,0.2-0.1,0.4c-9.3,27.8-12.8,20.8-16.2,47.2
						c-8,62.6,24.9,53.4,28.7,83.5c-8.7-5.9-18.6-11.5-27.8-16.4c0,0-0.1,0-0.1-0.1c-12.9-6.4-17.7,0.9-42.7-4.8
						c-25-5.7-42.5-11.6-60.9-54.4c-0.4-0.9-0.7-1.9-1.1-2.8c19.8,33.6,70.1,45.7,66.3,13.5c-6.7-57.7,17.4-77.1,23.7-101.3
						c5.7-21.7-31.2-28.3-51-29.2c7.2-2.5,15.2-3.9,23.5-3.9C502.6,875,530.1,897.7,530.1,925.8z"/>
					<g>
						<path class="st9" d="M744.5,1060.3c14.8-11.8,23.6-15,25.5-26.6c1.9-11.6,1.5-6.3,4-11.9c2.4-5.6,5.4-10.8,11.3-16.4
							c5.9-5.7,9.1-13.9,13.1-12.5c4,1.3,2.5,6.2,2.1,8.4c-0.4,2.2-7.8,13-7.3,13.7c0.5,0.7,6-0.9,10.4-2.2
							c4.4-1.2,9.2-3.6,13.2-6.3c4-2.7,19.5-12.5,22.5-10.6c2.9,1.9-0.1,6.4-0.1,6.4s5.6,0.7,1.7,7.4c-3.9,6.8-7.4,11.4-7.4,11.4
							s1.4,2.9-1.8,7.5c-3.2,4.6-4,4.4-4,4.4s1.7,3.1-7.2,11.9c-8.9,8.8-33.2,13.2-40.1,21.1c-7.1,8.1-5.6,7.5-19.1,19.1
							C756.1,1089.6,733.6,1069,744.5,1060.3z"/>
						<path class="st9" d="M679.2,1107.7c-2-1.2-3.8-1.7-5.6-2c1.9-0.5,3.8-1.3,5.4-2.4L757,1051l5.1,33.5l-55.6,49.5
							c-4.1,3.5-8.6,6.3-13.4,8.4c1.2-1.9,2-4.2,2-7.3C695,1124.9,687.9,1112.7,679.2,1107.7z"/>
						<path class="st13" d="M532.9,1105.9c2.5-13.4,15.5-22.2,28.9-19.5l105,19.6c2.3,0.4,4.6,0.4,6.8-0.2c1.7,0.2,3.6,0.8,5.6,2
							c8.7,5,15.8,17.2,15.7,27.3c0,3.1-0.8,5.5-2,7.3c-8.1,3.5-17,5-26,4.2l-110.8-9.7C540.9,1135.4,530.1,1121.1,532.9,1105.9z"/>
						<path class="st3" d="M686.7,1114.3c12.2-4,20.9-10.4,28.8-16.7c0,0,0,0,0.1,0c10.5-7.9,15.7-12,29.1-22.9
							c-0.1-0.1-0.1-0.1-0.2-0.2c1.5-1.1,3.1-2.3,4.6-3.4c14.3-12.1,22.1-16.6,23.9-18.6c6.1-6.6,10.5-19.5,21.5-24.6
							c5-2.3,30.8-15.8,44.7-25.5l0,0h0c0,0,0.1,0,0.2,0.1c0,0,0.1,0,0.1,0h0h0c0,0,0,0,0,0c1.3,0.4,4.2,1.9,1.1,7.3
							c-3.9,6.8-7.4,11.4-7.4,11.4s1.4,2.9-1.8,7.5c-3.2,4.6-4,4.4-4,4.4s1.7,3.1-7.2,11.9c-8.9,8.8-33.2,13.2-40.1,21.1
							c-6.9,7.9-5.7,7.6-18.2,18.4l0,0l-55.6,49.5c-4.1,3.5-8.6,6.3-13.4,8.4c1.2-1.9,2-4.2,2-7.3
							C695,1128.1,691.6,1120.2,686.7,1114.3z"/>
						<path class="st5" d="M558.8,1086.1c12.5,9.8,112,33.5,127.9,28.2c4.9,5.9,8.2,13.8,8.2,20.7c0,3.1-0.8,5.5-2,7.3
							c-8.1,3.5-17,5-26,4.2l-110.8-9.7c-15.3-1.4-26.1-15.7-23.3-30.9C535.2,1093.5,546.5,1085.2,558.8,1086.1z"/>
					</g>
				</g>
			</g>
			<path class="st2" d="M293.9,1002.2c-0.2-4.1,2.5-9.4,6.2-11.8c2-1.3,3.7-1.5,5-0.8l0,0l131.4,75.9h0c-1.3-0.5-3-0.3-4.8,0.9
				c-3.7,2.4-6.4,7.7-6.2,11.8l44.2,306.7c0.1,1.2,0.3,2.2,0.7,3.1c0.1,0.1,0.1,0.2,0.2,0.2l40.6,81.5c0.5,1.1,1.3,1.7,2.3,2.2
				c0,0,0,0,0,0l-0.1,0.1l-197.4-114l0.1-0.1c-1-0.5-1.8-1.2-2.4-2.3l-40.6-81.5c-0.1-0.1-0.1-0.2-0.2-0.2c-0.4-0.9-0.7-1.8-0.7-3.1
				L293.9,1002.2z"/>
			<path class="st2" d="M431.8,1066.5c3.7-2.4,6.8-1.1,7.2,2.9l48.4,302l39.3,72.9l141.9-83.9c6.5-3.6,11.7-0.5,11.6,7
				c-0.1,7.4-5.4,16.5-11.8,20.2c0,0-0.1,0-0.1,0.1l-148.2,83.6c-3.9,2.2-7.4,1.6-9-1.6l-40.6-81.5c-0.1-0.1-0.1-0.2-0.2-0.2
				c-0.4-0.9-0.7-1.9-0.7-3.1l-44.2-306.7C425.3,1074.2,428.1,1068.9,431.8,1066.5z"/>
			<path class="st3" d="M431.8,1066.5c3.7-2.4,6.8-1.1,7.2,2.9l48.4,302l39.3,72.9l141.9-83.9c6.5-3.6,11.7-0.5,11.6,7
				c-0.1,7.4-5.4,16.5-11.8,20.2c0,0-0.1,0-0.1,0.1l-148.2,83.6c-3.9,2.2-7.4,1.6-9-1.6l-40.6-81.5c-0.1-0.1-0.1-0.2-0.2-0.2
				c-0.4-0.9-0.7-1.9-0.7-3.1l-44.2-306.7C425.3,1074.2,428.1,1068.9,431.8,1066.5z"/>
			<path class="st7" d="M305.1,989.7L305.1,989.7l131.5,75.9h0c-1.3-0.5-3-0.3-4.8,0.9l-131.7-76C302,989.2,303.8,989,305.1,989.7z"
				/>
			<path class="st7" d="M469.7,1384.9c0.1,1.2,0.3,2.2,0.7,3.1c0.1,0.1,0.1,0.2,0.2,0.2l40.6,81.5c0.5,1.1,1.3,1.7,2.3,2.2
				c0,0,0,0,0,0l-0.1,0.1l-197.4-114l0.1-0.1c-1-0.5-1.8-1.2-2.4-2.3l-40.6-81.5c-0.1-0.1-0.1-0.2-0.2-0.2c-0.4-0.9-0.7-1.8-0.7-3.1
				L469.7,1384.9z"/>
		</g>
		<g>
			<path class="st16" d="M644.6,675.2c4.6,0.1-1.9,35.9-8.2,36.8C630.1,712.9,634.7,675.1,644.6,675.2z"/>
			<path class="st3" d="M644.6,675.2c4.6,0.1-1.9,35.9-8.2,36.8C630.1,712.9,634.7,675.1,644.6,675.2z"/>
			<g>
				<path class="st9" d="M612.2,676.7c11.5,0,29.5,4.2,35.1,0c9.3-7,5-4,10.3-6.9c5.3-2.9,10.8-5.2,18.8-6
					c8.1-0.9,15.5-5.4,17.8-1.9c2.3,3.5-1.8,6.3-3.5,7.8c-1.7,1.5-14,5.5-14,6.4c0,0.8,5.3,2.9,9.5,4.6c4.1,1.7,9.3,2.7,14.1,3.1
					c4.8,0.3,22.9,2,24.1,5.3c1.2,3.2-3.9,5-3.9,5s3.9,3.9-3.2,6.9c-7.1,3-12.7,4.5-12.7,4.5s-0.6,3.1-5.9,4.8
					c-5.3,1.7-5.8,1.1-5.8,1.1s-0.5,3.4-12.8,4.9c-12.3,1.5-33.6-7.2-43.7-5.3c-10.5,2-18,2.6-24.3,2
					C605.7,712.1,598.3,676.7,612.2,676.7z"/>
				<path class="st3" d="M612,712.7c6.3,0.6,13.8,0,24.3-2c10.1-2,31.4,6.8,43.7,5.3c12.3-1.5,12.8-4.9,12.8-4.9s0.5,0.6,5.8-1.1
					c5.3-1.7,5.9-4.8,5.9-4.8s5.6-1.5,12.7-4.5c7.1-3,3.2-6.9,3.2-6.9s0.4-0.1,1-0.4c-12.2,4.2-29.9,5.3-37.1,8.1
					c-10.3,3.9-29.1-2.9-46.2-4c-8.8-0.6-20-0.9-34.5-1.8C604.6,703.6,608.6,712.3,612,712.7z"/>
			</g>
			<path class="st10" d="M635.5,704.4c0-9.5,3.5-20,9.1-29.2l-131.7-4c-3.2-0.2-6.1-1.8-7.9-4.4l-71.2-103.6
				c-9.5-14-28.2-18.1-42.7-9.6c-14.7,8.7-18.7,28.2-8.6,42l82.5,114c11,15,29.4,22.6,47.7,19.8L636.4,712
				C635.9,709.7,635.5,707.2,635.5,704.4z"/>
			<path class="st5" d="M391.2,553.6c-14.7,8.7-18.7,28.2-8.6,42l82.5,114c11,15,29.4,22.6,47.7,19.8L636.4,712
				c-0.6-2.3-0.9-4.8-0.9-7.6c0-5.3,1.2-10.9,3.1-16.4l-130.8,5.5c-10.3-0.5-14.2-3.7-21.7-14.5l-70.3-102.3h0
				c-8.6-12.8-8.5-20.3-3.2-27C405.4,548.5,397.9,549.6,391.2,553.6z"/>
		</g>
		<g>
			<path class="st1" d="M1621.7,1502.7c23.9-31.9,72.8-43,60.9-65.1c-8.2-21.6-61.5-43.8-106.1-50.1c-46.2-6.4-63.9,25.7-104.7,20.7
				c-49.8-6.2-86.6,34.6-109.8,54.3c-51.9,39.3,38.2,102.3,89.6,85.1C1507.2,1529,1580.2,1557.7,1621.7,1502.7z"/>
			<g>
				<g>
					<path class="st8" d="M1602.2,1489L1602.2,1489c-11.3,1-21.4-7.4-22.4-18.7l-5.9-66.4c-1-11.3,7.4-21.4,18.7-22.4
						c11.3-1,21.4,7.4,22.4,18.7l5.9,66.4C1621.9,1477.9,1613.5,1488,1602.2,1489z"/>
					<path class="st3" d="M1574.3,1408.1l5.6,62.2c0.9,9.8,8.6,17.4,18,18.6l-5.5-62.2C1591.4,1416.9,1583.7,1409.3,1574.3,1408.1z"
						/>
					<path class="st3" d="M1601.6,1482.7c-8.8,0.8-16.8-3.6-21.4-10.4c1.9,10.3,11.4,17.7,22,16.8c10.6-1,18.6-10,18.7-20.4
						C1617.6,1476.2,1610.4,1481.9,1601.6,1482.7z"/>
					<path class="st3" d="M1592.6,1381.5c-11.3,1-19.7,11.1-18.7,22.4l3.9,43.7c4.9,5.4,12.1,8.4,19.8,7.9c9-0.7,16.6-5.7,21.2-12.7
						l-3.8-42.5C1614,1389,1603.9,1380.5,1592.6,1381.5z"/>
					<g>
						<path class="st8" d="M1488.9,1463.9c0,0,21.1,41.8,6.2,51.6c-14.9,9.8-29.6,2-47.7-3.5c-18.1-5.5-47.7-16.4-53.4-18.4
							c-5.7-2-19.2-7.8-18.7-22.6c0.5-14.7,23.4-17.4,54.2-12.8C1460.4,1462.8,1488.9,1463.9,1488.9,1463.9z"/>
						<path class="st3" d="M1445.2,1460.3l0.6,9.9c0.4,12.3,9.9,22.3,22.1,23.4c11.6,1.1,22.2-5.2,27.2-15c-3-8.3-6.2-14.7-6.2-14.7
							S1469.4,1463.1,1445.2,1460.3z"/>
						<path class="st3" d="M1462.1,1470c0,0-3.4-3.7-9-8.8c-7.4-0.8-15.3-1.7-23.5-2.9c-30.8-4.6-53.7-1.9-54.2,12.8
							c-0.5,14.8,13,20.6,18.7,22.6c5.7,2,35.2,12.9,53.4,18.4c8.4,2.5,16.1,5.6,23.4,7.1C1480.4,1506.2,1462.1,1470,1462.1,1470z"
							/>
						<path class="st3" d="M1494.7,1511.2c-14.9,9.8-29.6,1.9-47.7-3.5c-18.1-5.5-47.7-16.3-53.4-18.4c-4.9-1.7-15.9-6.4-18.3-17.3
							c0.1,14.1,13.1,19.7,18.6,21.7c5.7,2,35.2,12.9,53.4,18.4c18.1,5.5,32.8,13.3,47.7,3.5c5.2-3.4,6-10.6,4.9-18.6
							C1500.2,1503.1,1498.9,1508.4,1494.7,1511.2z"/>
					</g>
					<path class="st8" d="M1558.7,940.4c-31.2-35.6-89.2,20.8-66.8,58.8c0.8,1.4,1.7,2.8,2.6,4.2l-16.8,4.4l93.8,421.7
						c2.4,12,13.4,20.4,25.7,19.5c15.3-1.2,26.8-14.6,25.6-29.9l-28.7-369.5v0c-0.1-1.6-0.3-3.4-0.5-5.4
						C1591.5,1020.7,1587.5,973.3,1558.7,940.4z"/>
					<path class="st5" d="M1537.8,1101.8c2.9-9.2,4.1-19.4,3.2-30.1c-1.4-15.3-6.9-28.9-15.1-39.5l-6.1-35.5l-42.2,11.2l0.8,3.4
						c-28,4.5-47.9,35-44.8,69.9c3.2,36.2,29.9,63.5,59.5,60.8c4.8-0.4,9.3-1.7,13.5-3.5l64.7,291c2.4,12,13.4,20.4,25.7,19.5
						c0.1,0,0.3-0.1,0.4-0.1L1537.8,1101.8z"/>
					<path class="st8" d="M1543,1048.8c-1.1-12.8-5.3-24.4-11.3-34.1l2-25.5l-27.6,2.6c-7-3.1-14.7-4.5-22.5-3.8
						c-8,0.7-15.3,3.6-21.8,8l-42.1,3.9l25.7,463.9c0.4,12.3,9.9,22.3,22.1,23.4c15.3,1.4,28.8-9.9,30.2-25.2l27.3-357.4
						C1537.6,1091.5,1545,1071,1543,1048.8z"/>
					<path class="st5" d="M1467.5,1482.1l-5.7-464.6l69.9-3.5l1.9-24.8l-114.1,10.7l25.7,463.9c0.4,12.3,9.9,22.3,22.1,23.4
						c0.3,0,0.5,0,0.8,0C1467.7,1485.6,1467.5,1483.8,1467.5,1482.1z"/>
				</g>
				<path class="st3" d="M1517.2,992.1c-26.3-25-48.9,18.2-88.2,32.5c-5.2,1.9-9.2,3.7-14,6l1.9,6.8c8.9,13.7,26.4,19.4,44.9,16.9
					c34.6-4.6,107.7-42.8,118.3-81.1l-5.3-15L1517.2,992.1z"/>
				<path class="st16" d="M1460.4,722.8c-4.8,22.3,12.3,46.8,24.1,83.4c11.9,36.5,26.6,69.5,38,80c23.3,21.5,35.4,10.1,39.1-13.8
					c6.9-44.7-17.8-151.8-70.6-164C1478.1,705.4,1466.1,709.3,1460.4,722.8z"/>
				<path class="st11" d="M1460.4,722.8c-4.8,22.3,12.3,46.8,24.1,83.4c11.9,36.5,26.6,69.5,38,80c23.3,21.5,35.4,10.1,39.1-13.8
					c6.9-44.7-17.8-151.8-70.6-164C1478.1,705.4,1466.1,709.3,1460.4,722.8z"/>
				<g>
					<path class="st9" d="M1368.8,701.9c8.7,15.6,18.3,51.8,4.5,64.4c-13.8,12.7,25.1,9.5,39.4,3c14.3-6.4,62.4-36,51.2-44
						c-11.2-8-5.2-14-11.2-11.3c-6,2.8-23.6-6.7-41-52.3C1394.3,616.3,1359.4,685,1368.8,701.9z"/>
					<path class="st9" d="M1344.5,603.3c-17.2,6.3-19,4.3-23.6,22.1c-1.6,6.4-1.1,21.1,3.6,27.3c9.2,12.4,3.4,23.2,8.8,35.6
						c7.5,17.1,28.6,59.4,73.2,5.7c22-26.5-21.4-20.2-39.9-37.2C1348.8,640.4,1355.6,599.3,1344.5,603.3z"/>
					<path class="st8" d="M1353.5,674.5c1.2,8.8,1.6,37.7-10.4,21.9c-12-15.9-11.9-9.1-9.8-4.4c2.1,4.7,1.4,0.7,4.6,6
						c3.2,5.3,2.5,5.8,5.2,9.6c2.7,3.8-1,24.8,8.5,24.5c9.5-0.3,26.3-5.3,22.8-16.5c-3.5-11.2-14-27.9-15.2-40.2
						c-1.2-12.3-2.9-17.4-5.4-16.5C1351.3,659.8,1352.9,670.4,1353.5,674.5z"/>
					<path class="st5" d="M1417.5,766.9c0.1-0.1,0.3-0.1,0.4-0.2c0.7-0.4,1.5-0.8,2.3-1.2c0.2-0.1,0.5-0.3,0.8-0.4
						c0.9-0.5,1.9-1,2.9-1.6c0.1,0,0.2-0.1,0.2-0.1c1-0.6,2-1.1,3-1.7c0.2-0.1,0.4-0.2,0.6-0.4c1.1-0.7,2.3-1.3,3.4-2
						c0,0,0.1,0,0.1,0c1.2-0.7,2.4-1.5,3.6-2.3c0.1-0.1,0.1-0.1,0.2-0.1c1.2-0.8,2.5-1.6,3.7-2.4c-29.2-15.4-37.6-49-45.7-73.8
						c-2.5-7.8-5.1-17.2-7.8-27.9c-1.4,1.4-2.8,3.1-4.2,4.9c0,0,0,0,0,0c-1.3,1.8-2.6,3.7-3.7,5.7c0,0-0.1,0.1-0.1,0.1l0,0l0,0
						c-1.5-0.7-3-1.5-4.4-2.3c-2.2-1.3-4.2-2.6-6-4.3c-17.8-16.4-10.9-57.5-22-53.5c-17.2,6.3-19,4.3-23.6,22.1
						c-1.6,6.4-1.1,21.1,3.6,27.3c8.8,11.8,4,22.2,8.2,33.9c-0.9,0.7-0.3,3.2,0.7,5.4c2.1,4.7,1.4,0.7,4.6,6
						c0.4,0.7,0.8,1.5,1.3,2.2c1.8,3.3,1.7,4.2,3.9,7.4c2.7,3.8-1,24.8,8.5,24.5c8.4-0.3,22.6-4.2,23.2-13c0.3-0.1,0.7-0.2,1-0.4
						c0,0,0,0,0,0l0,0c3.6,11.7,5.8,25.3,3.6,35.7c0,0.1,0,0.1,0,0.2c-0.1,0.4-0.2,0.9-0.3,1.3c-1.1,4.2-2.9,7.8-5.7,10.4
						c-13.8,12.7,25.1,9.5,39.4,3c0.6-0.3,1.3-0.6,2-0.9c0.2-0.1,0.4-0.2,0.6-0.3C1415.9,767.8,1416.7,767.4,1417.5,766.9z"/>
					<path class="st5" d="M1381.8,709.1c-4.6-14.7-17.7,6.7-33.9-10.6c-16.2-17.3-8.6-31.7-15.6-44.1c-7-12.4-3.4-22.7-1-37.8
						c0.4-2.6,1.7-6,3.7-9.9c-1.1,0.4-2,0.7-2.9,1.1c-0.1,0-0.1,0-0.1,0.1c-0.8,0.3-1.5,0.7-2.2,1.1c-0.1,0-0.1,0.1-0.2,0.1
						c-0.7,0.4-1.3,0.8-1.8,1.3c0,0-0.1,0.1-0.1,0.1c-0.5,0.5-1,1-1.5,1.6c0,0,0,0-0.1,0.1c-0.5,0.6-0.9,1.3-1.3,2.1
						c-0.1,0.1-0.1,0.2-0.2,0.3c-0.4,0.8-0.8,1.7-1.2,2.7c0,0,0,0,0,0c-0.4,1-0.7,2.1-1.1,3.4c0,0.2-0.1,0.5-0.2,0.8
						c-0.4,1.3-0.7,2.6-1.1,4.1c-1.6,6.4-1.1,21.1,3.6,27.3c0.7,0.9,1.2,1.9,1.7,2.8c6.2,10.7,2.6,20.3,6.5,31.1
						c-0.9,0.7-0.3,3.2,0.7,5.4c2.1,4.7,1.4,0.7,4.6,6c0.4,0.7,0.8,1.5,1.3,2.2c1.8,3.3,1.7,4.2,3.9,7.4c2.7,3.8-1,24.8,8.5,24.5
						c8.4-0.3,22.6-4.2,23.2-13c0.3-0.1,0.7-0.2,1-0.4c0,0,0,0,0,0l0,0c3.6,11.7,5.8,25.3,3.6,35.7c0,0.1,0,0.1,0,0.2
						c-0.1,0.4-0.2,0.9-0.3,1.3c-1.1,4.2-2.9,7.8-5.7,10.4c-0.8,0.7-1.3,1.4-1.8,2c-0.1,0.2-0.2,0.4-0.3,0.5
						c-0.3,0.4-0.5,0.8-0.6,1.2c0,0.2-0.1,0.3-0.1,0.5c-0.1,0.5,0,0.9,0.1,1.2c0,0,0,0.1,0,0.1c0.2,0.4,0.5,0.8,0.9,1.1
						c0.1,0.1,0.3,0.2,0.4,0.3c0.3,0.2,0.7,0.4,1.2,0.6c0.2,0.1,0.4,0.2,0.6,0.2c0.5,0.2,1.1,0.3,1.7,0.4c0.2,0,0.4,0.1,0.6,0.1
						c0.8,0.1,1.7,0.2,2.6,0.3c0.4,0,0.8,0,1.2,0.1c0.6,0,1.2,0,1.8,0.1c0.5,0,1,0,1.6,0c0.6,0,1.1,0,1.7-0.1c0.6,0,1.1,0,1.7-0.1
						c0.5,0,0.9-0.1,1.4-0.1c1.3-0.1,2.6-0.2,3.9-0.4c0.4-0.1,0.8-0.1,1.3-0.1c0.8-0.1,1.6-0.2,2.3-0.3c0.4-0.1,0.8-0.1,1.2-0.2
						c0.8-0.2,1.6-0.3,2.4-0.4C1394.9,747.6,1384.4,717.5,1381.8,709.1z"/>
					<path class="st8" d="M1351.2,586.4c31.9-11.6,63.8-10.8,79.2,31.8c15.5,42.5-6.4,49.5-4.3,62.2c3.7,22.3-29.4,25.6-36.6,14.9
						c-7.2-10.7-12.8-28.4-22.1-29.3c-16.4-1.6-3.6,13.1-9.8,14.5c-6.1,1.4-1.7-14.7-11.8-19.2c-14.8-6.5-12.4-23-15.4-28.4
						c-1.2-2.2-4.8-4.1-8.3-5.2C1310.9,624.2,1318.6,598.3,1351.2,586.4z"/>
					<path class="st5" d="M1322,627.7c3.5,1.1,7.1,3,8.3,5.2c3.1,5.4,0.6,21.9,15.4,28.4c10.1,4.5,5.7,20.6,11.8,19.2
						c6.1-1.4-6.7-16.1,9.8-14.5c9.3,0.9,14.9,18.6,22.1,29.3c7.2,10.7,40.3,7.4,36.6-14.9c-1.5-9.2,9.5-15.5,9.8-34.4
						c-3.2,25-32.2,42.3-44.5,22.7c-22.9-36.7-8.3-38.2-48.9-57.2c-11.5-5.4,6.7-21.1,25.1-29.8c-5.4,1.1-10.9,2.7-16.4,4.7
						C1318.6,598.3,1310.9,624.2,1322,627.7z"/>
				</g>
				<path class="st16" d="M1528.4,750.7c-8.5-23.4-19.7-36.5-32.7-41.3c-33.4-12.4-88.8,29.4-114.3,49.6
					c-22.3,17.7-42.4,38-46.5,55.2l49.6,136.7l26.6,73.5c6.8,18.8,27,26.8,48.4,24c40.5-5.4,133.8-56.8,117.9-100.5
					c-14-25.9-38.3-60.9-39.4-113.2C1537.2,796.8,1535.1,768.9,1528.4,750.7z"/>
				<path class="st16" d="M1528.4,750.7c-8.5-23.4-19.7-36.5-32.7-41.3c-33.4-12.4-88.8,29.4-114.3,49.6c-8.2,6.5-16.1,13.4-23,20.4
					c-1,0.7-2,1.5-3.1,2.5c-12.9,11.7-26.6,26.2-45.5,37.1c-47,26.9-21.2,83.9,4.6,70.9c25.8-13,44.4,11.7,57.3,39.2
					c9.1,19.4,18.1,39,24.8,57.3c5.7,15.8,11.4,36.6,17.8,44.6c8.7,14.1,26.5,19.9,45.3,17.5c40.5-5.4,133.8-56.8,117.9-100.5
					c-14-25.9-38.3-60.9-39.4-113.2C1537.2,796.8,1535.1,768.9,1528.4,750.7z"/>
				<path class="st11" d="M1495.7,709.4c-33.4-12.4-88.8,29.4-114.3,49.6c-8.2,6.5-16.1,13.4-23,20.4c-1,0.7-2,1.5-3.1,2.5
					c-12.9,11.7-26.6,26.2-45.5,37.1c-47,26.9-21.2,83.9,4.6,70.9c25.8-13,44.4,11.7,57.3,39.2c9.1,19.4,18.1,39,24.8,57.3
					c5.7,15.8,11.4,36.6,17.8,44.6c8.7,14.1,26.5,19.9,45.3,17.5c2.4-0.3,5.1-0.8,7.8-1.5l0,0h0c-14.2-25.5-36.4-59.7-37.4-109.6
					c-0.5-25.7-17.2-80.2-41-107.9v0c0,0,0,0,0,0c-3-3.5-6.1-6.5-9.3-9.1c-10.8-10.7-19.7-21.4-10.8-30.1c7.6-8,16.6-16,26.1-23.5
					c25.1-19.9,79.2-60.6,112.8-50C1503.9,713.5,1499.9,710.9,1495.7,709.4z"/>
				<path class="st4" d="M1433.1,701.7c5.6,5.1,14.4,11.7,20.6,11.8c6.8,21.5-44.9,50.8-79.2,50.9c3.9-8,6-18.7,4.3-30.8
					C1412.2,731.7,1434.7,708.3,1433.1,701.7z"/>
				<g>
					<g>
						<path class="st9" d="M1193.7,825.5c-9.9-5.7-27.6-11.2-30.3-17.6c-4.5-10.7-2.3-6-5.4-11.2c-3.1-5.2-6.7-9.9-13.3-14.6
							c-6.5-4.8-10.7-12.4-14.5-10.6c-3.8,1.9-1.6,6.4-1,8.5c0.7,2.2,9.4,11.8,9,12.5c-0.4,0.7-6-0.1-10.5-0.8
							c-4.4-0.6-9.4-2.3-13.8-4.4c-4.3-2.1-20.8-9.7-23.5-7.5c-2.6,2.2,0.9,6.3,0.9,6.3s-5.4,1.4-0.7,7.6c4.7,6.2,8.7,10.2,8.7,10.2
							s-1,3,2.7,7.1c3.7,4.1,4.5,3.9,4.5,3.9s-1.3,3.2,8.6,10.7c9.9,7.5,32.7,10.6,40.5,17.4c8,7,14.2,11.3,20,13.9
							C1181.6,859.4,1205.7,832.4,1193.7,825.5z"/>
						<path class="st3" d="M1175.8,856.7c-5.8-2.6-12-6.9-20-13.9c-7.8-6.8-30.6-9.9-40.5-17.4c-9.9-7.5-8.6-10.7-8.6-10.7
							s-0.8,0.3-4.5-3.8c-3.7-4.1-2.7-7.1-2.7-7.1s-4.1-4.1-8.7-10.2c-4.7-6.1,0.7-7.6,0.7-7.6s-0.3-0.4-0.7-0.9
							c8.5,9.7,23.1,19.6,28,25.6c7,8.6,26.7,12.1,42,19.8c7.9,3.9,17.8,9.2,30.7,15.7C1186.7,852.6,1178.9,858.1,1175.8,856.7z"/>
					</g>
					<path class="st16" d="M1385.8,814.3L1385.8,814.3c7.3,15.1,1.9,33.3-12.5,41.9l-83.6,47.6c-16.9,10.1-38,9.4-54.2-1.8
						l-64.8-43.2c-12.7-8.8-15.6-26.3-6.4-38.6c4.6-6.2,13-8,19.8-4.3l60.8,33.5c3.3,1.9,7.4,1.8,10.7-0.1l86.5-48.3
						C1357.7,791.7,1377.9,797.9,1385.8,814.3z"/>
					<path class="st11" d="M1379.7,820.5c-8-7.9-15-15.8-14.5-22.9c-0.8-0.2-1.7-0.3-2.5-0.4c0,0,0-0.1,0.1-0.1
						c-0.4-0.1-0.7-0.1-1.1-0.1c-0.9-0.1-1.8-0.2-2.7-0.2c-0.8,0-1.6-0.1-2.4,0c-0.8,0-1.6,0.1-2.4,0.2c-0.9,0.1-1.8,0.2-2.7,0.4
						c-0.7,0.1-1.3,0.3-2,0.5c-1,0.3-2,0.6-3,1c-0.1,0-0.2,0-0.3,0.1c0,0-0.1,0.1-0.1,0.1c-1.3,0.5-2.7,1.1-4,1.9l-82.4,46
						c-11.1,6.2-31.3,21.2-53.7,7.4c-20.5-12.5-27.4-18.5-46.1-24.9c-2.8,10.7,1.2,22.5,10.9,29.2l64.8,43.2
						c16.2,11.2,37.3,11.9,54.2,1.8l83.6-47.6c9.7-5.8,15.2-16,15.6-26.7C1386,826,1382.9,823,1379.7,820.5z"/>
				</g>
			</g>
		</g>
		<g>
			<path class="st1" d="M1729.7,1058.7c32.8-18.9,86-18.9,118.8,0.1c32.8,18.9,32.9,49.7,0,68.6c-32.8,18.9-86,18.9-118.8,0
				C1696.9,1108.3,1696.9,1077.6,1729.7,1058.7z"/>
			<path class="st2" d="M1767,1023.7c12.2-7,32-7,44.2,0c12.2,7,12.2,18.5,0,25.5c-12.2,7-32,7-44.2,0
				C1754.8,1042.2,1754.8,1030.8,1767,1023.7z"/>
			<path class="st5" d="M1767,1023.7c12.2-7,32-7,44.2,0c12.2,7,12.2,18.5,0,25.5c-12.2,7-32,7-44.2,0
				C1754.8,1042.2,1754.8,1030.8,1767,1023.7z"/>
			<path class="st5" d="M1767,1042.6c12.2,7.1,32,7.1,44.2,0c4.6-2.7,7.5-6,8.6-9.4c1.8,5.6-1,11.7-8.6,16.1c-12.2,7-32,7-44.2,0
				c-7.6-4.4-10.4-10.4-8.6-16.1C1759.6,1036.6,1762.4,1039.9,1767,1042.6z"/>
			<path class="st2" d="M1759.1,1001.5c16.6-9.5,43.4-9.5,60,0c16.6,9.5,16.6,25.1,0,34.6c-16.6,9.6-43.4,9.6-60,0
				C1742.5,1026.6,1742.5,1011.1,1759.1,1001.5z"/>
			<path class="st5" d="M1759.1,1001.5c16.6-9.5,43.4-9.5,60,0c16.6,9.5,16.6,25.1,0,34.6c-16.6,9.6-43.4,9.6-60,0
				C1742.5,1026.6,1742.5,1011.1,1759.1,1001.5z"/>
			<path class="st2" d="M1759.1,983.9c16.6-9.6,43.4-9.6,60,0c16.6,9.5,16.6,25.1,0,34.6c-16.6,9.6-43.4,9.6-60,0
				C1742.5,1009,1742.5,993.5,1759.1,983.9z"/>
			<path class="st5" d="M1759.1,983.9c16.6-9.6,43.4-9.6,60,0c16.6,9.5,16.6,25.1,0,34.6c-16.6,9.6-43.4,9.6-60,0
				C1742.5,1009,1742.5,993.5,1759.1,983.9z"/>
			<path class="st5" d="M1759.1,1011.7c16.6,9.6,43.5,9.6,60,0c6.8-3.9,10.7-8.8,12-13.9c1.8,7.4-2.1,15.1-12,20.7
				c-16.6,9.6-43.4,9.6-60,0c-9.8-5.7-13.8-13.4-12-20.8C1748.4,1002.9,1752.4,1007.8,1759.1,1011.7z"/>
			<path class="st5" d="M1759.1,1029.3c16.6,9.6,43.5,9.6,60,0c6.8-3.9,10.7-8.8,12-13.9c1.8,7.4-2.1,15.1-12,20.7
				c-16.6,9.6-43.4,9.6-60,0c-9.8-5.7-13.8-13.4-12-20.8C1748.4,1020.5,1752.4,1025.4,1759.1,1029.3z"/>
			<path class="st10" d="M1789.1,781.6c48.4,0,87.6,39.2,87.6,87.6c0,19.1-6.1,36.8-16.5,51.2c-15.9,22.1-21.7,26.1-21.7,57.8v0v0
				c0,7.3-4.8,14.6-14.5,20.2c-9.6,5.6-22.3,8.4-34.9,8.4s-25.3-2.8-34.9-8.4c-9.6-5.6-14.5-12.9-14.5-20.2l0,0c0,0,0,0,0,0
				c0-31.7-5.8-35.8-21.7-57.8c-10.4-14.4-16.5-32.1-16.5-51.2C1701.5,820.8,1740.8,781.6,1789.1,781.6z"/>
			<path class="st3" d="M1705.1,893.8c13.8,23.2,39.1,38.8,68.1,38.8c43.8,0,79.3-35.5,79.3-79.3c0-29-15.6-54.2-38.8-68.1
				c36.4,10.7,62.9,44.2,62.9,84c0,18.6-5.8,35.7-15.7,49.9c0,0,0,0,0,0c-0.3,0.4-0.6,0.9-0.9,1.3c-15.9,22.1-21.7,26.1-21.7,57.8v0
				v0c0,0.3,0,0.6-0.1,0.8l0,0l0,0c-0.1,1.8-0.4,3.5-1.1,5.2c0,0,0,0,0,0c-0.3,0.8-0.7,1.7-1.1,2.5c0,0.1-0.1,0.1-0.1,0.2
				c-0.4,0.8-0.9,1.5-1.4,2.3c-0.1,0.1-0.2,0.3-0.4,0.4c-0.5,0.7-1,1.3-1.6,2c-0.2,0.2-0.5,0.5-0.8,0.7c-0.5,0.5-1.1,1.1-1.7,1.6
				c-0.4,0.4-0.9,0.7-1.4,1.1c-0.5,0.4-0.9,0.8-1.4,1.1c-1,0.7-2.1,1.4-3.3,2.1c-9.6,5.6-22.3,8.4-34.9,8.4s-25.3-2.8-34.9-8.4
				c-9.3-5.3-14.1-12.3-14.4-19.3c2.2,5,6.6,9.7,13.3,13.6c9.5,5.5,21.8,8.3,34.2,8.5c-6.4-66.7-29.7-37.5-59.3-67.1
				c-2.7-3.9-6-8.2-9.9-13.7c-0.3-0.4-0.6-0.9-0.9-1.3c0.1,0.1,0.1,0.2,0.2,0.3C1712,911.6,1707.8,903,1705.1,893.8z"/>
		</g>
		<g>
			<path class="st1" d="M1027.8,1549.5c-6-3.4-6-9.1,0-12.5l52.3-30.2c6-3.5,15.7-3.5,21.7,0l135.5,78.2c6,3.5,6,9.1,0,12.5
				l-52.3,30.2c-6,3.5-15.7,3.5-21.7,0L1027.8,1549.5z M1071.2,1680.9c6,3.5,15.7,3.5,21.7,0l52.3-30.2c6-3.5,6-9.1,0-12.5
				l-160.9-92.9c-6-3.4-15.7-3.4-21.7,0l-52.3,30.2c-6,3.5-6,9.1,0,12.5L1071.2,1680.9z M979.1,1734.1c6,3.5,15.7,3.5,21.7,0
				l52.3-30.2c6-3.5,6-9.1,0-12.5l-99.3-57.3c-6-3.5-15.7-3.4-21.7,0l-52.3,30.2c-6,3.5-6,9.1,0,12.5L979.1,1734.1z"/>
			<g>
				<path class="st4" d="M1106.6,1507.7L1106.6,1507.7c0-2.3,1.5-4.5,4.5-6.3l52.3-30.2c6-3.5,15.7-3.5,21.7,0l52.2,30.2
					c3,1.7,4.5,4,4.5,6.3l0,0v83.5c0,0,0,0,0,0l0,0l0,0c0,2.3-1.5,4.5-4.5,6.3l-52.3,30.2c-6,3.5-15.7,3.5-21.7,0l-52.2-30.2
					c-3-1.7-4.5-4-4.5-6.3h0V1507.7z"/>
				<path d="M1106.7,1507.4c-0.2,2.4,1.3,4.8,4.4,6.6l52.2,30.2c3,1.7,7,2.6,10.9,2.6v83.6c-3.9,0-7.9-0.9-10.9-2.6l-52.2-30.2
					c-3-1.7-4.5-4-4.5-6.3h0v-83.6C1106.6,1507.6,1106.7,1507.5,1106.7,1507.4z"/>
				<path class="st17" d="M1185.1,1544.1l52.3-30.2c3-1.7,4.5-4,4.5-6.2v0l0,0v83.5c0,0,0,0,0,0l0,0c0,2.3-1.5,4.5-4.5,6.3
					l-52.3,30.2c-3,1.7-6.9,2.6-10.8,2.6v-83.6C1178.2,1546.7,1182.1,1545.8,1185.1,1544.1z"/>
			</g>
			<g>
				<path class="st18" d="M1014.5,1502.4L1014.5,1502.4c0-2.3,1.5-4.5,4.5-6.3l52.3-30.2c6-3.5,15.7-3.5,21.7,0l52.2,30.2
					c3,1.7,4.5,4,4.5,6.3l0,0v142.1c0,0,0,0,0,0l0,0l0,0c0,2.3-1.5,4.5-4.5,6.3l-52.3,30.2c-6,3.5-15.7,3.5-21.7,0l-52.2-30.2
					c-3-1.7-4.5-4-4.5-6.3h0V1502.4z"/>
				<path class="st5" d="M1014.6,1502c-0.2,2.4,1.3,4.8,4.4,6.6l52.2,30.2c3,1.7,7,2.6,10.9,2.6v142.2c-3.9,0-7.9-0.9-10.9-2.6
					l-52.2-30.2c-3-1.7-4.5-4-4.5-6.3h0v-142.1C1014.5,1502.2,1014.6,1502.1,1014.6,1502z"/>
				<path class="st11" d="M1092.9,1538.8l52.3-30.2c3-1.7,4.5-4,4.5-6.2l0,0l0,0v142.1c0,0,0,0,0,0l0,0c0,2.3-1.5,4.5-4.5,6.3
					l-52.3,30.2c-3,1.7-6.9,2.6-10.8,2.6v-142.2C1086,1541.4,1090,1540.5,1092.9,1538.8z"/>
			</g>
			<g>
				<path class="st19" d="M922.4,1630.8L922.4,1630.8c0-2.3,1.5-4.5,4.5-6.3l52.3-30.2c6-3.5,15.7-3.5,21.7,0l52.2,30.2
					c3,1.7,4.5,4,4.5,6.3h0v66.8c0,0,0,0,0,0l0,0l0,0c0,2.3-1.5,4.5-4.5,6.3l-52.3,30.2c-6,3.5-15.7,3.5-21.7,0l-52.2-30.2
					c-3-1.7-4.5-4-4.5-6.3l0,0V1630.8z"/>
				<path class="st5" d="M922.5,1630.4c-0.2,2.4,1.3,4.8,4.4,6.6l52.2,30.2c3,1.7,6.9,2.6,10.9,2.6v66.9c-3.9,0-7.9-0.9-10.9-2.6
					l-52.2-30.2c-3-1.7-4.5-4-4.5-6.3l0,0v-66.9C922.4,1630.7,922.4,1630.6,922.5,1630.4z"/>
				<path class="st11" d="M1000.8,1667.2l52.3-30.2c3-1.7,4.5-4,4.5-6.2l0,0h0v66.8c0,0,0,0,0,0l0,0c0,2.3-1.5,4.5-4.5,6.3
					l-52.3,30.2c-3,1.7-6.9,2.6-10.8,2.6v-66.9C993.9,1669.8,997.8,1668.9,1000.8,1667.2z"/>
			</g>
		</g>
		<g>
			<path class="st3" d="M1129.7,1028.7c-48.8-28.2-128.1-28.2-177,0.1c-48.9,28.2-49,74-0.1,102.2c48.8,28.2,128.1,28.2,177-0.1
				C1178.5,1102.7,1178.5,1056.9,1129.7,1028.7z"/>
			<path class="st19" d="M1071.5,900.9l-30.3,80.1v19.1l138.8-17.5v-19.1C1168.1,932.3,1125.6,907.8,1071.5,900.9z"/>
			<polygon class="st5" points="1041.2,981.1 1041.2,1000.2 1179.9,982.7 1179.9,963.6 			"/>
			<path class="st4" d="M1166.3,981.1L1166.3,981.1c-0.1-5.2-1-10.3-2.9-15.4l-109.6,13.8l14-37.1v-31.9
				c-40.3-5.1-84,1.4-115.3,19.4c-24.5,14.1-36.7,32.6-36.6,51.1l0,0v31.8c0,0,0,0,0,0.1v0l0,0c0,18.5,12.3,37,36.7,51.1
				c48.9,28.2,128.2,28.3,177.1,0.1c24.4-14.1,36.5-32.6,36.5-51.1h0.1V981.1z"/>
			<path class="st20" d="M1041.2,980.9l23.8-31l2.9-7.6v-31.9c-40.2-5.1-83.9,1.3-115.1,19.3L1041.2,980.9z"/>
			<path d="M1166.2,981.1c0.1,18.5-12,37-36.5,51.2c-48.9,28.2-128.2,28.2-177.1-0.1c-24.5-14.1-36.7-32.6-36.7-51.1l0,0v31.8
				c0,0,0,0,0,0.1v0c0,18.5,12.3,37,36.7,51.1c48.9,28.2,128.2,28.3,177.1,0.1c24.4-14.1,36.5-32.6,36.5-51.1h0.1L1166.2,981.1
				L1166.2,981.1z"/>
			<path class="st19" d="M1071.5,881.8l-30.3,80.1v19.1l138.8-17.5v-19.1C1168.1,913.2,1125.6,888.6,1071.5,881.8z"/>
			<polygon class="st5" points="1041.2,961.9 1041.2,981.1 1179.9,963.6 1179.9,944.4 			"/>
		</g>
		<g>
			<path class="st16" d="M954.2,763.6c1.4,4.3-0.7,8.8-6.4,12.1L758.3,885.2c-9.1,5.3-23.9,5.3-33.1,0L622,825.6
				c-4.6-2.6-6.8-6.1-6.8-9.6l0,0l0,6l0.1,0c-0.2,3.6,2,7.2,6.8,9.9l103.2,59.6c9.1,5.3,23.9,5.3,33.1,0l189.5-109.4
				c4.6-2.7,6.9-6.1,6.9-9.6l0,0l0-6.3C954.7,765.4,954.5,764.5,954.2,763.6z"/>
			<path class="st6" d="M954.2,763.6c1.4,4.3-0.7,8.8-6.4,12.1L758.3,885.2c-9.1,5.3-23.9,5.3-33.1,0L622,825.6
				c-4.6-2.6-6.8-6.1-6.8-9.6l0,0l0,6l0.1,0c-0.2,3.6,2,7.2,6.8,9.9l103.2,59.6c9.1,5.3,23.9,5.3,33.1,0l189.5-109.4
				c4.6-2.7,6.9-6.1,6.9-9.6l0,0l0-6.3C954.7,765.4,954.5,764.5,954.2,763.6z"/>
			<path class="st16" d="M622,825.6c-9.1-5.3-9.1-13.8,0-19.1l189.5-109.4c9.1-5.3,24-5.3,33.1,0l103.2,59.6
				c9.1,5.3,9.1,13.8,0,19.1L758.3,885.2c-9.1,5.3-23.9,5.3-33.1,0L622,825.6z"/>
			<path class="st16" d="M710.9,812.2c-0.1-0.3-0.1-0.5,0-0.8c-0.1-0.3-0.1-0.5,0-0.8c-0.1-0.3-0.1-0.5,0-0.8
				c-0.1-0.3-0.1-0.5,0-0.8c-0.1-0.3-0.1-0.5,0-0.8c-0.1-0.3-0.1-0.5,0-0.8c-0.1-0.3-0.1-0.5,0-0.8c0.1,0.7,0.6,1.4,1.5,1.9
				c2.2,1.3,5.7,1.3,7.9,0l24.2-14c0.9-0.5,1.4-1.2,1.5-1.9c0.1,0.3,0.1,0.5,0,0.8c0.1,0.3,0.1,0.5,0,0.8c0.1,0.3,0.1,0.5,0,0.8
				c0.1,0.3,0.1,0.5,0,0.8c0.1,0.3,0.1,0.5,0,0.8c0.1,0.3,0.1,0.5,0,0.8c0.1,0.3,0.1,0.5,0,0.8c0.2,1-0.2,2-1.5,2.7l-24.2,14
				c-2.2,1.3-5.8,1.3-7.9,0C711.1,814.2,710.7,813.2,710.9,812.2z M777.8,816.6c0.1-0.3,0.1-0.5,0-0.8c0.1-0.3,0.1-0.5,0-0.8
				c0.1-0.3,0.1-0.5,0-0.8c0.1-0.3,0.1-0.5,0-0.8c0.1-0.3,0.1-0.5,0-0.8c0.1-0.3,0.1-0.5,0-0.8c0.1-0.3,0.1-0.5,0-0.8l0,0
				c-0.2,0.7-0.6,1.4-1.5,1.9l-46.4,26.8c-2.2,1.3-5.8,1.3-7.9,0c-0.9-0.5-1.4-1.2-1.5-1.9c-0.1,0.3-0.1,0.5,0,0.8
				c-0.1,0.3-0.1,0.5,0,0.8c-0.1,0.3-0.1,0.5,0,0.8c-0.1,0.3-0.1,0.5,0,0.8c0,0.3-0.1,0.5,0,0.8c-0.1,0.3-0.1,0.5,0,0.8
				c-0.1,0.3-0.1,0.5,0,0.8c-0.2,1,0.2,2,1.5,2.7c2.2,1.3,5.7,1.3,7.9,0l46.4-26.8C777.5,818.5,778,817.5,777.8,816.6z M730.2,789.1
				c0.1-0.3,0.1-0.5,0-0.8c0.1-0.3,0.1-0.5,0-0.8c0-0.3,0.1-0.5,0-0.8c0-0.3,0.1-0.5,0-0.8c0-0.3,0.1-0.5,0-0.8
				c0.1-0.3,0.1-0.5,0-0.8c0.1-0.3,0.1-0.5,0-0.8c-0.1,0.7-0.6,1.4-1.5,1.9l-46.4,26.8c-2.2,1.3-5.8,1.3-7.9,0
				c-0.9-0.5-1.4-1.2-1.5-1.9c0,0,0,0,0,0c-0.1,0.3-0.1,0.5,0,0.8c0,0.3,0,0.5,0,0.8c0,0.3,0,0.5,0,0.8c-0.1,0.3-0.1,0.5,0,0.8
				c0,0.3-0.1,0.5,0,0.8c-0.1,0.3-0.1,0.5,0,0.8c-0.1,0.3-0.1,0.5,0,0.8c-0.2,1,0.2,1.9,1.5,2.7c2.2,1.3,5.7,1.3,7.9,0l46.4-26.8
				C729.9,791,730.4,790,730.2,789.1z M792.1,822.1l-32.8,19c-2.2,1.3-5.8,1.3-7.9,0c-0.9-0.5-1.4-1.2-1.5-1.9l0,0
				c-0.1,0.3-0.1,0.5,0,0.8c-0.1,0.3-0.1,0.5,0,0.8c-0.1,0.3-0.1,0.5,0,0.8c-0.1,0.3-0.1,0.5,0,0.8c-0.1,0.3,0,0.6,0,0.8
				c-0.1,0.3-0.1,0.5,0,0.8c-0.1,0.3-0.1,0.5,0,0.8c-0.2,1,0.2,2,1.5,2.7c2.2,1.3,5.7,1.3,7.9,0l32.8-19c1.3-0.7,1.7-1.7,1.5-2.7
				c0.1-0.3,0.1-0.5,0-0.8c0.1-0.3,0.1-0.5,0-0.8c0.1-0.3,0.1-0.5,0-0.8c0.1-0.3,0.1-0.5,0-0.8c0.1-0.3,0.1-0.5,0-0.8
				c0.1-0.3,0.1-0.5,0-0.8c0.1-0.3,0.1-0.5,0-0.8C793.5,820.9,793.1,821.5,792.1,822.1z M761.9,807.4c0.1-0.3,0.1-0.5,0-0.8
				c0.1-0.3,0.1-0.5,0-0.8c0.1-0.3,0.1-0.5,0-0.8c0.1-0.3,0.1-0.5,0-0.8c0.1-0.3,0.1-0.5,0-0.8c0.1-0.3,0.1-0.5,0-0.8
				c0-0.3,0.1-0.5,0-0.8c-0.2,0.7-0.6,1.4-1.5,1.9L714,830.6c-2.2,1.3-5.8,1.3-7.9,0c-0.9-0.5-1.4-1.2-1.5-1.9l0,0
				c-0.1,0.3-0.1,0.5,0,0.8c-0.1,0.3-0.1,0.5,0,0.8c0,0.3-0.1,0.5,0,0.8c0,0.3-0.1,0.5,0,0.8c-0.1,0.3-0.1,0.5,0,0.8
				c-0.1,0.3-0.1,0.5,0,0.8c-0.1,0.3-0.1,0.5,0,0.8c-0.2,1,0.2,2,1.5,2.7c2.2,1.2,5.7,1.2,7.9,0l46.4-26.8
				C761.7,809.4,762.1,808.4,761.9,807.4z"/>
			<path class="st6" d="M710.9,812.2c-0.1-0.3-0.1-0.5,0-0.8c-0.1-0.3-0.1-0.5,0-0.8c-0.1-0.3-0.1-0.5,0-0.8c-0.1-0.3-0.1-0.5,0-0.8
				c-0.1-0.3-0.1-0.5,0-0.8c-0.1-0.3-0.1-0.5,0-0.8c-0.1-0.3-0.1-0.5,0-0.8c0.1,0.7,0.6,1.4,1.5,1.9c2.2,1.3,5.7,1.3,7.9,0l24.2-14
				c0.9-0.5,1.4-1.2,1.5-1.9c0.1,0.3,0.1,0.5,0,0.8c0.1,0.3,0.1,0.5,0,0.8c0.1,0.3,0.1,0.5,0,0.8c0.1,0.3,0.1,0.5,0,0.8
				c0.1,0.3,0.1,0.5,0,0.8c0.1,0.3,0.1,0.5,0,0.8c0.1,0.3,0.1,0.5,0,0.8c0.2,1-0.2,2-1.5,2.7l-24.2,14c-2.2,1.3-5.8,1.3-7.9,0
				C711.1,814.2,710.7,813.2,710.9,812.2z M777.8,816.6c0.1-0.3,0.1-0.5,0-0.8c0.1-0.3,0.1-0.5,0-0.8c0.1-0.3,0.1-0.5,0-0.8
				c0.1-0.3,0.1-0.5,0-0.8c0.1-0.3,0.1-0.5,0-0.8c0.1-0.3,0.1-0.5,0-0.8c0.1-0.3,0.1-0.5,0-0.8l0,0c-0.2,0.7-0.6,1.4-1.5,1.9
				l-46.4,26.8c-2.2,1.3-5.8,1.3-7.9,0c-0.9-0.5-1.4-1.2-1.5-1.9c-0.1,0.3-0.1,0.5,0,0.8c-0.1,0.3-0.1,0.5,0,0.8
				c-0.1,0.3-0.1,0.5,0,0.8c-0.1,0.3-0.1,0.5,0,0.8c0,0.3-0.1,0.5,0,0.8c-0.1,0.3-0.1,0.5,0,0.8c-0.1,0.3-0.1,0.5,0,0.8
				c-0.2,1,0.2,2,1.5,2.7c2.2,1.3,5.7,1.3,7.9,0l46.4-26.8C777.5,818.5,778,817.5,777.8,816.6z M730.2,789.1c0.1-0.3,0.1-0.5,0-0.8
				c0.1-0.3,0.1-0.5,0-0.8c0-0.3,0.1-0.5,0-0.8c0-0.3,0.1-0.5,0-0.8c0-0.3,0.1-0.5,0-0.8c0.1-0.3,0.1-0.5,0-0.8
				c0.1-0.3,0.1-0.5,0-0.8c-0.1,0.7-0.6,1.4-1.5,1.9l-46.4,26.8c-2.2,1.3-5.8,1.3-7.9,0c-0.9-0.5-1.4-1.2-1.5-1.9c0,0,0,0,0,0
				c-0.1,0.3-0.1,0.5,0,0.8c0,0.3,0,0.5,0,0.8c0,0.3,0,0.5,0,0.8c-0.1,0.3-0.1,0.5,0,0.8c0,0.3-0.1,0.5,0,0.8
				c-0.1,0.3-0.1,0.5,0,0.8c-0.1,0.3-0.1,0.5,0,0.8c-0.2,1,0.2,1.9,1.5,2.7c2.2,1.3,5.7,1.3,7.9,0l46.4-26.8
				C729.9,791,730.4,790,730.2,789.1z M792.1,822.1l-32.8,19c-2.2,1.3-5.8,1.3-7.9,0c-0.9-0.5-1.4-1.2-1.5-1.9l0,0
				c-0.1,0.3-0.1,0.5,0,0.8c-0.1,0.3-0.1,0.5,0,0.8c-0.1,0.3-0.1,0.5,0,0.8c-0.1,0.3-0.1,0.5,0,0.8c-0.1,0.3,0,0.6,0,0.8
				c-0.1,0.3-0.1,0.5,0,0.8c-0.1,0.3-0.1,0.5,0,0.8c-0.2,1,0.2,2,1.5,2.7c2.2,1.3,5.7,1.3,7.9,0l32.8-19c1.3-0.7,1.7-1.7,1.5-2.7
				c0.1-0.3,0.1-0.5,0-0.8c0.1-0.3,0.1-0.5,0-0.8c0.1-0.3,0.1-0.5,0-0.8c0.1-0.3,0.1-0.5,0-0.8c0.1-0.3,0.1-0.5,0-0.8
				c0.1-0.3,0.1-0.5,0-0.8c0.1-0.3,0.1-0.5,0-0.8C793.5,820.9,793.1,821.5,792.1,822.1z M761.9,807.4c0.1-0.3,0.1-0.5,0-0.8
				c0.1-0.3,0.1-0.5,0-0.8c0.1-0.3,0.1-0.5,0-0.8c0.1-0.3,0.1-0.5,0-0.8c0.1-0.3,0.1-0.5,0-0.8c0.1-0.3,0.1-0.5,0-0.8
				c0-0.3,0.1-0.5,0-0.8c-0.2,0.7-0.6,1.4-1.5,1.9L714,830.6c-2.2,1.3-5.8,1.3-7.9,0c-0.9-0.5-1.4-1.2-1.5-1.9l0,0
				c-0.1,0.3-0.1,0.5,0,0.8c-0.1,0.3-0.1,0.5,0,0.8c0,0.3-0.1,0.5,0,0.8c0,0.3-0.1,0.5,0,0.8c-0.1,0.3-0.1,0.5,0,0.8
				c-0.1,0.3-0.1,0.5,0,0.8c-0.1,0.3-0.1,0.5,0,0.8c-0.2,1,0.2,2,1.5,2.7c2.2,1.2,5.7,1.2,7.9,0l46.4-26.8
				C761.7,809.4,762.1,808.4,761.9,807.4z"/>
			<path class="st14" d="M721.9,839.7c-2.2-1.3-2.2-3.3,0-4.6l46.4-26.8c2.2-1.3,5.8-1.3,8,0l0,0c2.2,1.3,2.2,3.3,0,4.6l-46.4,26.8
				C727.7,841,724.1,841,721.9,839.7L721.9,839.7z M751.4,841c2.2,1.3,5.7,1.3,7.9,0l32.8-19c2.2-1.3,2.2-3.3,0-4.6l0,0
				c-2.2-1.3-5.8-1.3-7.9,0l-32.8,18.9C749.2,837.7,749.2,839.8,751.4,841L751.4,841z M706.1,830.5c-2.2-1.3-2.2-3.3,0-4.6
				l46.4-26.8c2.2-1.3,5.8-1.3,7.9,0l0,0c2.2,1.3,2.2,3.3,0,4.6L714,830.6C711.8,831.8,708.2,831.8,706.1,830.5L706.1,830.5z
				 M674.3,812.2c-2.2-1.3-2.2-3.3,0-4.6l46.4-26.8c2.2-1.3,5.8-1.3,7.9,0l0,0c2.2,1.2,2.2,3.3,0,4.6l-46.4,26.8
				C680.1,813.5,676.5,813.5,674.3,812.2L674.3,812.2z M712.4,808.5c2.2,1.3,5.7,1.3,7.9,0l24.2-14c2.2-1.3,2.2-3.3,0-4.6l0,0
				c-2.2-1.3-5.8-1.3-8,0l-24.2,14C710.2,805.2,710.2,807.3,712.4,808.5L712.4,808.5z"/>
			<g>
				<path class="st5" d="M864.2,745.6c-8.3-4.8-18.7-7.5-29.5-8.3c1.8,2.3,2.9,4.7,3.4,7.1c0.2-0.7,0.3-1.4,0.4-2.1
					c0,0.3,0,0.5,0,0.8c0,0.3,0,0.5,0,0.8c0,0.3,0,0.5,0,0.8c0,0.3,0,0.5,0,0.8c0,0.3,0,0.5,0,0.8c0,0.3,0,0.5,0,0.8
					c0,0.3,0,0.5,0,0.8c0,0.9-0.1,1.7-0.3,2.6c0,0,0,0,0,0c-0.2,0.9-0.5,1.7-0.8,2.6c0,0,0,0,0,0s0,0,0,0c-0.9,2.2-2.3,4.4-4.2,6.5
					c6-0.5,12.4,0.5,17.1,3.2c2.4,1.4,4,3.1,4.9,4.9c0.4-0.9,0.8-1.8,0.8-2.8c0,0.3,0,0.5,0,0.8c0,0.3,0,0.5,0,0.8
					c0,0.3,0,0.5,0,0.8c0,0.3,0,0.5,0,0.8c0,0.3,0,0.5,0,0.8c0,0.3,0,0.5,0,0.8c0,0.3,0,0.5,0,0.8c0,0.3,0,0.5,0,0.8v6.4h-0.1
					c-0.2,2.8-1.9,5.5-5.6,7.6c-7.7,4.5-20.3,4.5-28,0c-4.6-2.7-6.4-6.4-5.5-9.9c-10.9,3.5-23.8,3.9-35.3,1.5
					c-0.7-1.1-1.4-2.2-1.9-3.3c2.2,4.9,6.4,9.5,13,13.4c19.7,11.4,51.7,11.4,71.5,0C883.9,775.5,883.9,757,864.2,745.6z"/>
				<path class="st6" d="M864.2,752c8.4,4.9,13.3,11.1,14.5,17.4c1.6-8.5-3.2-17.3-14.4-23.8c-8.3-4.8-18.7-7.5-29.5-8.3
					c1.7,2.2,2.8,4.5,3.4,6.8C847.6,745.2,856.8,747.7,864.2,752z"/>
				<path class="st14" d="M837.4,753.1c-1.4,0-2.8,0-4.2,0.1c3.3-3.4,5-7.1,5.3-10.9c0,0.3,0,0.5,0,0.8c0,0.3,0,0.5,0,0.8
					c0,0.3,0,0.5,0,0.8c0,0.3,0,0.5,0,0.8c0,0.3,0,0.5,0,0.8c0,0.3,0,0.5,0,0.8c0,0.3,0,0.5,0,0.8
					C838.5,749.6,838.1,751.3,837.4,753.1C837.4,753.1,837.4,753.1,837.4,753.1z M856,764.8c0,0.3,0,0.5,0,0.8c0,0.3,0,0.5,0,0.8
					c0,0.3,0,0.5,0,0.8c0,0.3,0,0.5,0,0.8c0,0.3,0,0.5,0,0.8c0,0.3,0,0.5,0,0.8c0,0.3,0,0.5,0,0.8l0,7.2h-0.1
					c-0.2,2.8-1.9,5.5-5.6,7.6c-7.7,4.5-20.3,4.5-28,0c-4.6-2.7-6.4-6.4-5.5-9.9c-10.9,3.5-23.8,3.9-35.3,1.5
					c-1.5-2.3-2.7-4.6-3.2-7c-0.3-1.2-0.3-2.5-0.3-3.7c0-0.3,0-0.5,0-0.8c0-0.3,0-0.5,0-0.8c0-0.3,0-0.5,0-0.8c0-0.3,0-0.5,0-0.8
					c0-0.3,0-0.5,0-0.8c0-0.3,0-0.5,0-0.8c0-0.3,0-0.5,0-0.8l0,0c0,1,0.1,2,0.3,2.9c12.2,3.2,26.6,3,38.5-0.9
					c-0.9,3.5,0.8,7.2,5.5,9.9c7.7,4.5,20.3,4.5,28,0C853.9,770.4,855.8,767.6,856,764.8z"/>
				<path d="M837.4,753.1c-1.4,0-2.8,0-4.2,0.1c3.3-3.4,5-7.1,5.3-10.9c0,0.3,0,0.5,0,0.8c0,0.3,0,0.5,0,0.8c0,0.3,0,0.5,0,0.8
					c0,0.3,0,0.5,0,0.8c0,0.3,0,0.5,0,0.8c0,0.3,0,0.5,0,0.8c0,0.3,0,0.5,0,0.8C838.5,749.6,838.1,751.3,837.4,753.1
					C837.4,753.1,837.4,753.1,837.4,753.1z M856,764.8c0,0.3,0,0.5,0,0.8c0,0.3,0,0.5,0,0.8c0,0.3,0,0.5,0,0.8c0,0.3,0,0.5,0,0.8
					c0,0.3,0,0.5,0,0.8c0,0.3,0,0.5,0,0.8c0,0.3,0,0.5,0,0.8l0,7.2h-0.1c-0.2,2.8-1.9,5.5-5.6,7.6c-7.7,4.5-20.3,4.5-28,0
					c-4.6-2.7-6.4-6.4-5.5-9.9c-10.9,3.5-23.8,3.9-35.3,1.5c-1.5-2.3-2.7-4.6-3.2-7c-0.3-1.2-0.3-2.5-0.3-3.7c0-0.3,0-0.5,0-0.8
					c0-0.3,0-0.5,0-0.8c0-0.3,0-0.5,0-0.8c0-0.3,0-0.5,0-0.8c0-0.3,0-0.5,0-0.8c0-0.3,0-0.5,0-0.8c0-0.3,0-0.5,0-0.8l0,0
					c0,1,0.1,2,0.3,2.9c12.2,3.2,26.6,3,38.5-0.9c-0.9,3.5,0.8,7.2,5.5,9.9c7.7,4.5,20.3,4.5,28,0
					C853.9,770.4,855.8,767.6,856,764.8z"/>
				<path class="st14" d="M792.7,739.3c-11.5,6.6-16.2,15.6-14.4,24.2c12.2,3.2,26.6,3,38.5-0.9c-0.9,3.5,0.8,7.2,5.5,9.9
					c7.7,4.5,20.3,4.5,28,0c7.7-4.5,7.7-11.7,0-16.1c-4.6-2.7-11-3.7-17.1-3.2c6.7-6.9,7.1-15.1,1.5-22.2
					C819.8,729.9,804.2,732.7,792.7,739.3z"/>
			</g>
		</g>
		<g>
			<path class="st1" d="M187.3,1149.4c-27.6-15.9-72.4-15.9-100,0.1c-27.6,15.9-27.7,41.8,0,57.7c27.6,15.9,72.4,15.9,100,0
				C214.9,1191.2,214.9,1165.3,187.3,1149.4z"/>
			<path class="st18" d="M207.6,1065.8L207.6,1065.8c0-10.4-6.8-20.8-20.6-28.7c-27.4-15.8-71.9-15.8-99.4,0.1
				c-13.8,7.9-20.7,18.4-20.6,28.8v18.8c-0.1,10.4,6.8,20.9,20.6,28.8c27.4,15.9,71.9,15.9,99.4,0c13.7-7.9,20.6-18.3,20.6-28.7h0
				V1065.8z"/>
			<path class="st5" d="M207.5,1065.8c0,10.4-6.9,20.7-20.6,28.7c-27.5,15.9-72,15.9-99.4,0c-13.7-7.9-20.5-18.2-20.6-28.5l0,0v18.8
				c-0.1,10.4,6.8,20.9,20.6,28.8c27.4,15.9,71.9,15.9,99.4,0c13.7-7.9,20.6-18.3,20.6-28.7h0L207.5,1065.8L207.5,1065.8z"/>
			<path class="st4" d="M198.1,1037.5c0-43.4-27.8-49.9-27.8-69.1c0-19.2,27.8-25.7,27.8-69.1v-27.5c0.4-9.3-5.5-18.6-17.8-25.7
				c-23.8-13.7-62.3-13.7-86.1,0.1c-12.3,7.1-18.2,16.4-17.8,25.7v27.4c0,43.4,27.8,49.9,27.8,69.1c0,19.2-27.8,25.7-27.8,69.1v27.5
				c-0.4,9.3,5.5,18.6,17.8,25.7c23.8,13.7,62.3,13.7,86.1,0c12.3-7.1,18.1-16.4,17.8-25.7V1037.5z"/>
			<path d="M176.1,953.5c8.1-11.3,22-23.6,22-54.2v-27.5c0.4-9.3-5.5-18.6-17.8-25.7c-15.7-9-37.7-11.9-57.7-8.9V837
				c-1.1,0.1-2.1,0.4-3.1,0.6c-0.6,0.1-1.1,0.2-1.7,0.3c-8.6,1.7-16.7,4.3-23.6,8.3c-12.3,7.1-18.2,16.4-17.8,25.7v27.4
				c0,43.4,27.8,49.9,27.8,69.1c0,19.2-27.8,25.7-27.8,69.1v13.2v14.2c-0.4,9.3,5.5,18.6,17.8,25.7c2.5,1.5,5.3,2.7,8.2,3.9
				c1.1,0.5,2.3,0.9,3.5,1.3c1.5,0.5,3.1,1,4.8,1.4c3.9,1.1,7.8,1.9,12,2.5c0,0,0,0,0,0c20,2.9,42.1-0.1,57.7-9.2
				c12.3-7.1,18.1-16.4,17.8-25.7v-27.4c0-8.9-1.8-16-3.1-22.4c12.5,65.5-71.8,76.9-71.8,2.2C123.2,953.1,145.3,987.6,176.1,953.5z"
				/>
			<path class="st18" d="M207.6,851.9L207.6,851.9c0-10.4-6.8-20.8-20.6-28.7c-27.4-15.8-71.9-15.8-99.4,0.1
				c-13.8,7.9-20.7,18.4-20.6,28.8v18.8c-0.1,10.4,6.8,20.9,20.6,28.8c27.4,15.9,71.9,15.9,99.4,0c13.7-7.9,20.6-18.3,20.6-28.7h0
				V851.9z"/>
			<path class="st5" d="M207.5,851.9c0,10.4-6.9,20.7-20.6,28.7c-27.5,15.9-72,15.9-99.4,0c-13.7-7.9-20.5-18.2-20.6-28.5l0,0v18.8
				c-0.1,10.4,6.8,20.9,20.6,28.8c27.4,15.9,71.9,15.9,99.4,0c13.7-7.9,20.6-18.3,20.6-28.7h0L207.5,851.9L207.5,851.9z"/>
			<path class="st16" d="M175,1044c-10.4-6-24.1-32.4-37.7-32.4c-13.7,0-27.3,26.4-37.8,32.4c-20.9,12-20.9,31.6,0,43.6
				c20.8,12,54.6,12,75.5,0C195.9,1075.5,195.9,1056,175,1044z"/>
			<path class="st5" d="M99.5,1044c-20.9,12-20.9,31.6,0,43.6c20.8,12,54.6,12,75.5,0c15-8.7,19.2-21.2,12.6-32
				c-19.1,24.6-63.4,16.5-64.3-36.4C114.6,1027.4,106.4,1040.1,99.5,1044z"/>
			<path class="st16" d="M164.4,923c-14.9-8.6-39.2-8.6-54.2,0c-8.5,4.9-12,11.6-10.8,18c0.6,3.1,2.2,6.1,5,8.8
				c0.3,0.4,0.7,0.7,1,1.1c14,14.1,22.6,12.8,24.3,17.5c1,2.5,3.4,4.9,7.5,4.9l0,0l0,0c4.2,0,6.6-2.4,7.5-4.9
				c1.8-4.7,10.4-3.4,24.4-17.6c0,0,0,0,0,0c3.4-3,5.3-6.4,5.9-9.8C176.4,934.6,172.9,927.9,164.4,923z"/>
			<path class="st5" d="M164.4,923c-14.9-8.6-39.2-8.6-54.2,0c-8.5,4.9-12,11.6-10.8,18c0.6,3.1,2.2,6.1,5,8.8
				c0.3,0.4,0.7,0.7,1,1.1c14,14.1,22.6,12.8,24.3,17.5c1,2.5,3.4,4.9,7.5,4.9l0,0l0,0c4.2,0,6.6-2.4,7.5-4.9
				c1.8-4.7,10.4-3.4,24.4-17.6c0,0,0,0,0,0c3.4-3,5.3-6.4,5.9-9.8C176.4,934.6,172.9,927.9,164.4,923z"/>
			<path class="st5" d="M157.8,925.7c-11.3-6.5-29.7-6.5-41.1,0c-11.3,6.5-11.4,17.2,0,23.7c11.3,6.5,29.7,6.5,41.1,0
				C169.1,942.9,169.1,932.2,157.8,925.7z"/>
		</g>
		<g>
			<path class="st1" d="M1721.9,653.3l-123.4-70c-6.1-3.5-15.9-3.5-22,0l-20.9,12.2c-6.1,3.5-6.1,9.2,0,12.7l123.4,70
				c6.1,3.5,15.9,3.5,22,0l20.9-12.2C1728,662.5,1728,656.8,1721.9,653.3z"/>
			<path class="st21" d="M1550.2,374L1550.2,374c-2.5,1.4-4,4.5-4,8.9v108c0,8.8,6.1,19.4,13.7,23.8l14,8.1
				c23.7,13.7,29,21.6,39.4,39.6l11.2,19.3c2.2,3.8,5,6.7,7.9,8.3c2.8,1.6,5.7,2,7.9,0.8l11.2-6.4c10.4-6,15.7-7.7,39.4,5.9
				l13.9,8.1c3.8,2.2,7.2,2.4,9.7,1v0l23.1-13.3l0,0c2.4-1.5,3.9-4.5,3.9-8.8l0-108c0-8.8-6.1-19.4-13.7-23.8l-144.8-83.6
				c-3.9-2.2-7.4-2.4-9.8-0.9l0,0L1550.2,374z"/>
			<path class="st5" d="M1727.5,445.3l-144.8-83.6c-3.9-2.2-7.4-2.4-9.8-0.9l0,0l-22.8,13.1c-2.5,1.4-4,4.5-4,8.9
				c0-8.7,6.1-12.3,13.7-7.9l144.8,83.6c7.6,4.4,13.7,15,13.7,23.8l0,108c0,4.4-1.5,7.4-4,8.9l0,0v0l23.1-13.3l0,0
				c2.4-1.5,3.9-4.5,3.9-8.8l0-108C1741.3,460.4,1735.1,449.7,1727.5,445.3z"/>
			<path class="st4" d="M1576.7,459.8c0,6.9,4.9,15.4,10.9,18.8c3,1.7,5.7,1.9,7.7,0.8l4.6-2.6c2-1.1,3.2-3.6,3.2-7.1
				c0-6.9-4.9-15.4-10.9-18.8c-3-1.7-5.7-1.9-7.7-0.8l0,0l-4.6,2.6l0,0C1577.9,453.9,1576.7,456.3,1576.7,459.8z"/>
			<path d="M1587.6,453.5c6,3.5,10.9,11.9,10.9,18.8c0,3.5-1.2,5.9-3.2,7l4.6-2.6c2-1.1,3.2-3.6,3.2-7.1c0-6.9-4.9-15.4-10.9-18.8
				c-3-1.7-5.7-1.9-7.7-0.8l-4.6,2.6l0,0C1581.9,451.6,1584.6,451.8,1587.6,453.5z"/>
			<path class="st4" d="M1616.8,482.9c0,6.9,4.9,15.4,10.9,18.9c3,1.7,5.7,1.9,7.7,0.8l4.6-2.6c2-1.1,3.2-3.6,3.2-7.1
				c0-6.9-4.9-15.4-10.9-18.8c-3-1.7-5.7-1.9-7.7-0.8l0,0l-4.6,2.6l0,0C1618,477,1616.8,479.5,1616.8,482.9z"/>
			<path d="M1627.7,476.7c6,3.5,10.9,11.9,10.9,18.8c0,3.5-1.2,5.9-3.2,7l4.6-2.6c2-1.1,3.2-3.6,3.2-7.1c0-6.9-4.9-15.4-10.9-18.8
				c-3-1.7-5.7-1.9-7.7-0.8l-4.6,2.6l0,0C1622,474.8,1624.7,474.9,1627.7,476.7z"/>
			<path class="st4" d="M1656.9,506.1c0,6.9,4.9,15.4,10.9,18.9c3,1.7,5.7,1.9,7.7,0.8l4.6-2.6c2-1.1,3.2-3.6,3.2-7
				c0-7-4.9-15.4-10.9-18.9c-3-1.7-5.7-1.9-7.7-0.8l0,0l-4.6,2.6l0,0C1658.1,500.2,1656.9,502.6,1656.9,506.1z"/>
			<path d="M1667.8,499.8c6,3.5,10.9,11.9,10.9,18.9c0,3.5-1.2,5.9-3.2,7l4.6-2.6c2-1.1,3.2-3.6,3.2-7c0-7-4.9-15.4-10.9-18.9
				c-3-1.7-5.7-1.9-7.7-0.8l-4.6,2.6l0,0C1662.1,497.9,1664.8,498.1,1667.8,499.8z"/>
		</g>
		<g>
			<path class="st18" d="M787.9,495.3c-9.1,5.3-16.6,1-16.6-9.5V372.8c0-10.5,7.4-23.4,16.6-28.7l99.2-57.3
				c5.6-3.2,10.5-2.9,13.5,0.3c-0.5-0.6-1.1-1.1-1.8-1.5l-5.9-3.4l0,0.1c-3-1.5-6.9-1.2-11.3,1.3L782.3,341
				c-9.1,5.3-16.6,18.1-16.6,28.7v112.9c0,5.2,1.8,8.8,4.7,10.6l0,0l5.7,3.3C779.1,498.1,783.3,497.9,787.9,495.3z"/>
			<path class="st6" d="M787.9,495.3c-9.1,5.3-16.6,1-16.6-9.5V372.8c0-10.5,7.4-23.4,16.6-28.7l99.2-57.3
				c5.6-3.2,10.5-2.9,13.5,0.3c-0.5-0.6-1.1-1.1-1.8-1.5l-5.9-3.4l0,0.1c-3-1.5-6.9-1.2-11.3,1.3L782.3,341
				c-9.1,5.3-16.6,18.1-16.6,28.7v112.9c0,5.2,1.8,8.8,4.7,10.6l0,0l5.7,3.3C779.1,498.1,783.3,497.9,787.9,495.3z"/>
			<path class="st18" d="M903.6,409.3c0,10.5-7.4,23.4-16.6,28.7l-99.2,57.3c-9.1,5.3-16.6,1-16.6-9.5V372.8
				c0-10.5,7.4-23.4,16.6-28.7l99.2-57.3c9.1-5.3,16.6-1,16.6,9.5L903.6,409.3z"/>
			<path class="st18" d="M831.6,374.1c0.9-0.7,1.7-1.3,2.7-1.9c5.3-3,8.9-1.7,10.1-0.8c0.1,0.1,0.3,0.1,0.4,0.2v-4.4l9.6-5.6l0,0.8
				l0.7-0.4v0.8l0.7-0.4l0,0.8l0.7-0.4v0.8l0.7-0.4v0.8l0.7-0.4l0,0.8l0.7-0.4v0.8l0.7-0.4l0,0.8l0.7-0.4l-9.6,5.6v4.6
				c-0.3-0.6-4.3-3.1-10.5,0.5c-9.7,5.6-16,18.9-16,30.5c0,6,2,9.9,4.9,11.8l0,0c-0.2-0.1-0.5-0.2-0.7-0.4c-0.2-0.1-0.5-0.2-0.7-0.4
				c-0.2-0.1-0.5-0.2-0.7-0.4c-0.2-0.1-0.5-0.2-0.7-0.4c-0.2-0.1-0.5-0.2-0.7-0.4c-0.2-0.1-0.5-0.2-0.7-0.4
				c-0.2-0.1-0.5-0.2-0.7-0.4c-3.4-1.7-5.6-5.7-5.6-12.2c0-1.4,0.1-2.8,0.3-4.2c-0.5,1.9-0.9,3.9-1.2,5.8
				C818.8,393.7,824.2,382.6,831.6,374.1z M853,406c0.2,0.1,0.5,0.3,0.7,0.4c0.2,0.2,0.4,0.3,0.7,0.4c-0.8-0.6-1.3-1.5-1.7-2.8
				l-0.1-1c-0.4,0.8-0.8,1.4-1.2,2.2c0.1,0,0.1,0,0.2,0.1c0.2,0.1,0.4,0.3,0.7,0.4C852.5,405.7,852.8,405.9,853,406z M841.7,384.5
				c0.7-0.4,1.3-0.6,1.9-0.8c0.3,1,0.5,2.2,0.5,3.6c0,6.1-2.9,12.8-7.7,15.6c-0.5,0.3-0.9,0.5-1.4,0.6c1.1,3.2,3.5,4.5,6.9,2.6
				c4.9-2.8,7.7-9.5,7.7-15.6C849.7,384.7,846.7,381.7,841.7,384.5z M862.8,397.8c3.2-1.9,6.4-9.7,6.4-18.3
				c0-12.2-4.8-19.6-13.4-19.6c1,0,2,0.1,2.9,0.3c3.2,3.3,4.9,8.9,4.9,16.1c0,6.2-1.7,11.9-3.8,15.3v-26.9V395
				C859.9,398.3,861.1,398.7,862.8,397.8z M837,421.3c-5.9,3.4-11.2,4.3-15.5,3.2c-0.5-0.5-0.8-1.1-1.2-1.7
				c4.3,6.3,12.5,7.3,22.3,1.7c4.5-2.6,10.3-7.7,14.7-14c-0.1,0.1-0.1,0.2-0.2,0.3l-0.5-0.7c-0.1,0.1-0.2,0.2-0.2,0.3l-0.5-0.7
				c-0.1,0.1-0.1,0.2-0.2,0.3l-0.5-0.7c-0.1,0.1-0.1,0.2-0.2,0.3l-0.5-0.7c-0.1,0.1-0.1,0.2-0.2,0.3l-0.5-0.7
				c-0.1,0.1-0.1,0.2-0.2,0.3l-0.5-0.7c-0.1,0.1-0.1,0.2-0.2,0.3l-0.5-0.7c-0.1,0.1-0.1,0.2-0.2,0.3l-0.5-0.7
				C847.4,413.6,841.5,418.7,837,421.3z M809.1,414.5c0-21.9,15.2-47.8,34.4-58.9c9.4-5.4,17.6-6.2,23.5-3c-0.2-0.1-0.4-0.3-0.7-0.4
				c-0.2-0.1-0.4-0.3-0.7-0.4c-0.2-0.1-0.4-0.3-0.7-0.4c-0.2-0.1-0.5-0.3-0.7-0.4c-0.2-0.1-0.5-0.3-0.7-0.4
				c-0.2-0.1-0.5-0.3-0.7-0.4c-0.2-0.1-0.5-0.3-0.7-0.4c-6-3.6-14.5-3-24.2,2.7c-19.2,11.1-34.4,36.9-34.4,58.9
				c0,11,3.7,18.3,9.8,21.5c0.2,0.1,0.5,0.3,0.7,0.4c0.2,0.1,0.4,0.3,0.7,0.4c0.2,0.1,0.4,0.3,0.7,0.4c0.2,0.1,0.5,0.3,0.7,0.4
				c0.2,0.1,0.5,0.3,0.7,0.4c0.2,0.1,0.5,0.3,0.7,0.4c0.2,0.1,0.4,0.3,0.7,0.4C812.5,432.2,809.1,425,809.1,414.5z"/>
			<path class="st6" d="M831.6,374.1c0.9-0.7,1.7-1.3,2.7-1.9c5.3-3,8.9-1.7,10.1-0.8c0.1,0.1,0.3,0.1,0.4,0.2v-4.4l9.6-5.6l0,0.8
				l0.7-0.4v0.8l0.7-0.4l0,0.8l0.7-0.4v0.8l0.7-0.4v0.8l0.7-0.4l0,0.8l0.7-0.4v0.8l0.7-0.4l0,0.8l0.7-0.4l-9.6,5.6v4.6
				c-0.3-0.6-4.3-3.1-10.5,0.5c-9.7,5.6-16,18.9-16,30.5c0,6,2,9.9,4.9,11.8l0,0c-0.2-0.1-0.5-0.2-0.7-0.4c-0.2-0.1-0.5-0.2-0.7-0.4
				c-0.2-0.1-0.5-0.2-0.7-0.4c-0.2-0.1-0.5-0.2-0.7-0.4c-0.2-0.1-0.5-0.2-0.7-0.4c-0.2-0.1-0.5-0.2-0.7-0.4
				c-0.2-0.1-0.5-0.2-0.7-0.4c-3.4-1.7-5.6-5.7-5.6-12.2c0-1.4,0.1-2.8,0.3-4.2c-0.5,1.9-0.9,3.9-1.2,5.8
				C818.8,393.7,824.2,382.6,831.6,374.1z M853,406c0.2,0.1,0.5,0.3,0.7,0.4c0.2,0.2,0.4,0.3,0.7,0.4c-0.8-0.6-1.3-1.5-1.7-2.8
				l-0.1-1c-0.4,0.8-0.8,1.4-1.2,2.2c0.1,0,0.1,0,0.2,0.1c0.2,0.1,0.4,0.3,0.7,0.4C852.5,405.7,852.8,405.9,853,406z M841.7,384.5
				c0.7-0.4,1.3-0.6,1.9-0.8c0.3,1,0.5,2.2,0.5,3.6c0,6.1-2.9,12.8-7.7,15.6c-0.5,0.3-0.9,0.5-1.4,0.6c1.1,3.2,3.5,4.5,6.9,2.6
				c4.9-2.8,7.7-9.5,7.7-15.6C849.7,384.7,846.7,381.7,841.7,384.5z M862.8,397.8c3.2-1.9,6.4-9.7,6.4-18.3
				c0-12.2-4.8-19.6-13.4-19.6c1,0,2,0.1,2.9,0.3c3.2,3.3,4.9,8.9,4.9,16.1c0,6.2-1.7,11.9-3.8,15.3v-26.9V395
				C859.9,398.3,861.1,398.7,862.8,397.8z M837,421.3c-5.9,3.4-11.2,4.3-15.5,3.2c-0.5-0.5-0.8-1.1-1.2-1.7
				c4.3,6.3,12.5,7.3,22.3,1.7c4.5-2.6,10.3-7.7,14.7-14c-0.1,0.1-0.1,0.2-0.2,0.3l-0.5-0.7c-0.1,0.1-0.2,0.2-0.2,0.3l-0.5-0.7
				c-0.1,0.1-0.1,0.2-0.2,0.3l-0.5-0.7c-0.1,0.1-0.1,0.2-0.2,0.3l-0.5-0.7c-0.1,0.1-0.1,0.2-0.2,0.3l-0.5-0.7
				c-0.1,0.1-0.1,0.2-0.2,0.3l-0.5-0.7c-0.1,0.1-0.1,0.2-0.2,0.3l-0.5-0.7c-0.1,0.1-0.1,0.2-0.2,0.3l-0.5-0.7
				C847.4,413.6,841.5,418.7,837,421.3z M809.1,414.5c0-21.9,15.2-47.8,34.4-58.9c9.4-5.4,17.6-6.2,23.5-3c-0.2-0.1-0.4-0.3-0.7-0.4
				c-0.2-0.1-0.4-0.3-0.7-0.4c-0.2-0.1-0.4-0.3-0.7-0.4c-0.2-0.1-0.5-0.3-0.7-0.4c-0.2-0.1-0.5-0.3-0.7-0.4
				c-0.2-0.1-0.5-0.3-0.7-0.4c-0.2-0.1-0.5-0.3-0.7-0.4c-6-3.6-14.5-3-24.2,2.7c-19.2,11.1-34.4,36.9-34.4,58.9
				c0,11,3.7,18.3,9.8,21.5c0.2,0.1,0.5,0.3,0.7,0.4c0.2,0.1,0.4,0.3,0.7,0.4c0.2,0.1,0.4,0.3,0.7,0.4c0.2,0.1,0.5,0.3,0.7,0.4
				c0.2,0.1,0.5,0.3,0.7,0.4c0.2,0.1,0.5,0.3,0.7,0.4c0.2,0.1,0.4,0.3,0.7,0.4C812.5,432.2,809.1,425,809.1,414.5z"/>
			<path class="st14" d="M862.8,397.8c3.2-1.9,6.4-9.7,6.4-18.3c0-17.2-9.6-25-25.8-15.7c-14.7,8.5-26.6,29.2-26.6,46.2
				c0,16.8,11.1,22.9,25.7,14.5c4.5-2.6,10.3-7.7,14.7-14l3.6,5.2c-4.5,6.7-12.3,13.8-18.3,17.3c-19,11-33.4,3.2-33.4-18.4
				c0-21.9,15.2-47.8,34.4-58.9c19.1-11,33.4-3,33.4,19.2c0,13.5-6.4,25.8-15.1,30.8c-4.7,2.7-8.1,2.6-9.1-1.7l-0.1-1
				c-3.1,6.8-7.3,11.4-11.7,13.9c-8.8,5.1-17.1,1.6-17.1-11c0-11.6,6.3-24.9,16-30.5c6.2-3.6,10.2-1.1,10.5-0.5v-4.6l9.6-5.6V395
				C859.9,398.3,861.1,398.7,862.8,397.8z M834.4,399.3c0,6,2.9,9.5,7.5,6.8c4.9-2.8,7.7-9.5,7.7-15.6c0-5.9-3-8.9-7.9-6
				C837.3,387.1,834.4,393.6,834.4,399.3z"/>
		</g>
	</g>
</g>
</svg>
