<?xml version="1.0" encoding="utf-8"?>
<!-- Generator: Adobe Illustrator 26.3.1, SVG Export Plug-In . SVG Version: 6.00 Build 0)  -->
<svg version="1.1" id="Camada_1" xmlns="http://www.w3.org/2000/svg" xmlns:xlink="http://www.w3.org/1999/xlink" x="0px" y="0px"
	 viewBox="0 0 390.9 425.3" style="enable-background:new 0 0 390.9 425.3;" xml:space="preserve">
<style type="text/css">
	.st0{opacity:0.3;}
	.st1{opacity:0.86;fill:url(#SVGID_1_);enable-background:new    ;}
	.st2{fill:#4CFF46;}
	.st3{fill:#3ACC32;}
	.st4{fill:#FFFFFF;}
	.st5{opacity:0.1;enable-background:new    ;}
	.st6{fill:#C560FF;}
	.st7{fill:#4A0094;}
	.st8{opacity:0.66;fill:#C560FF;enable-background:new    ;}
	.st9{fill:#9BE8FC;}
	.st10{fill:#EFEFEF;}
	.st11{opacity:0.2;fill:#FF631B;enable-background:new    ;}
	.st12{opacity:0.64;fill:#4A0094;enable-background:new    ;}
	.st13{opacity:0.69;fill:#4A0094;enable-background:new    ;}
	.st14{fill:#3B3D63;}
	.st15{opacity:0.2;enable-background:new    ;}
</style>
<g class="st0">
	<image style="overflow:visible;" width="323" height="98" xlink:href="36A66EE0.png"  transform="matrix(1 0 0 1 33 321.7)">
	</image>
</g>
<g id="OBJECTS">
	
		<radialGradient id="SVGID_1_" cx="188.4" cy="380.84" r="146.9" gradientTransform="matrix(1 0 0 1 0 -217.74)" gradientUnits="userSpaceOnUse">
		<stop  offset="0" style="stop-color:#FFFFFF"/>
		<stop  offset="1" style="stop-color:#FFFFFF;stop-opacity:0"/>
	</radialGradient>
	<circle class="st1" cx="188.4" cy="163.1" r="146.9"/>
	<g>
		<g>
			<path class="st2" d="M280.4,189.6L280.4,189.6c-0.3,0.5-20.3,36.6-52.8,25.3c-32.7-11.4-20.9-76.6-20.9-76.6s7.4-3,14.4-3.2
				c5-0.1,10,1.2,12,6.1c0,0-1.8,8.2-1.7,18l0,0c0.1,0.5,2.6,18,13.7,20.2c0,0-4.5,2.9-9.6,0c2,3.8,4.8,7,8.8,9.1
				C263.8,198.8,280.4,189.6,280.4,189.6z"/>
			<g>
				<path class="st2" d="M300.1,211.2c4.2,14.2,12.1,32.6-3.2,55c-24.5,35.8-64,9.7-83.2,2.4l0,0c-0.3-1-10.4-33.3-4.5-44.4
					c0,0,11.3-6.3,25,10.8c7,8.8,16.3,14.6,24.7,14.3c0,0,6.7-1.6,6.8-10.1c0,0,1.9,2.9,1.9,7.1c4.3-3,7.9-8.4,10.2-16.9
					c4.6-16.7,2.4-48.2,29.2-47.9l0,0C306.5,181.8,293.6,189.3,300.1,211.2z"/>
				<path class="st3" d="M300.1,211.2c4.2,14.2,12.1,32.6-3.2,55c-24.5,35.8-64,9.7-83.2,2.4l0,0c4.5-4.7,12-9.6,23.8-14.7
					c0,0,18,23.6,45.3,7.5c0,0-0.5,7-4.9,8.8c0,0,15.2,1,17.6-21.5c2.6-24.3-14.2-54.2,11.5-67.1
					C306.5,181.8,293.6,189.3,300.1,211.2z"/>
				<path class="st3" d="M280.4,189.6c-0.3,0.5-20.3,36.6-52.8,25.3c-32.7-11.4-20.9-76.6-20.9-76.6s7.4-3,14.4-3.2
					c-0.3,6.8,0.5,55.5,21.4,62.2C264.7,204.3,280.1,189.8,280.4,189.6z"/>
				<path class="st2" d="M229.8,63.7c2.2,10.2,3.5,29.1-1.5,43.3l-9.8,1.9l-28.6,5.4L183.8,93c1.1-14.6,1-32.1-4.8-39.9
					c0,0,24.1-24.6,23.1-28.8c0,0,1.3,0.8,3.4,2.4l0,0c1.5,1.2,3.5,2.8,5.6,4.8c0,0,0,0,0,0.1c1.1,1,19.9,18,23.4,37
					C234.5,68.4,232.5,66.1,229.8,63.7z"/>
				<path class="st3" d="M218.8,106.9c-0.1,0.6-0.2,1.3-0.3,1.9c-5,24.1-28.1,7.1-28.1,7.1l-0.5-1.7L183.8,93
					c1.1-14.6,1-32.1-4.8-39.9c0,0,24.1-24.6,23.1-28.8c0,0,1.3,0.8,3.4,2.4l0,0c0.1,0.3,5.9,11.5,1.7,23
					C207.2,49.6,223,80.1,218.8,106.9z"/>
				<path class="st4" d="M278,353.1c0,0-1.1,1.4-2.9,3.5c-2.6,3.1-6.6,7.7-10,10.8c-1.8,1.6-3.4,2.9-4.6,3.3
					c0,0-26.6-56.2-37.3-66.8c-6-5.9-12.7-15-18.3-24.6c-1-1.8-2-3.5-3-5.3c-3.1-5.9-5.6-11.7-7.3-16.9c0,0,30.5-15.1,31.7-32.3
					c0,0,4.7,5.9,10.6,16c6.2,10.6,13.7,25.9,18.5,44C265,320.3,278,353.1,278,353.1z"/>
				<path class="st5" d="M278,353.1c0,0-1.1,1.4-2.9,3.5c-4.9-7.2-9.1-17.1-12.9-27.9c0,0-0.6-2.5-2-5.9c-2-4.9-5.6-11.8-11.2-16.4
					c2.8-0.4,6.2,0.8,6.2,0.8c-3-9.7-5.2-16.9-8.2-24.8c-9-23.8-13.8-26.8-13.8-26.8s1.3-3.5,3.9-14.9c6.2,10.6,13.7,25.9,18.5,44
					C265,320.3,278,353.1,278,353.1z"/>
				<path class="st4" d="M178.9,270c-0.4,3.8-2.2,7-5,9.9c-1.5,1.6-3.2,3-5.1,4.4c-0.1,0.1-0.3,0.2-0.4,0.3c0,0,0,0-0.1,0
					c-11.6,8.3-29.4,14.7-36.5,25.7c-6.2,9.5,4.4,43.5,6.3,49.5c0.2,0.6,0.3,0.9,0.3,0.9c-3.9,2.4-9.4,2.4-13.9,1.8
					c-4.5-0.6-8.1-1.8-8.1-1.8s-18.9-43-15.8-68.5c2.6-22.1,24.5-36.9,30.2-40.4c0.8-0.5,1.2-0.7,1.3-0.8l0,0
					C142.3,244.1,178.9,270,178.9,270z"/>
				<g>
					<g>
						<g>
							<path class="st6" d="M338.2,92.8c-1.9,1.6-5.8,3.6-10.4,5.6l0,0c-7.6,3.2-17,6.4-22.2,8.2c-1,0.3-1.8,0.6-2.4,0.8
								c-0.7,0.2-1.2,0.4-1.4,0.4l0,0c-0.1,0-4.6,0.1-4.6,0.1l7.3-18.1l0.1-0.4l0.5-2.9c0,0,13.2-12.5,27.6-13.7
								c0.4,0,1.2-0.1,1.2-0.1l2.6,0.3c0.7,0.2,1.3,0.4,1.9,0.7c2.2,1,3.9,2.8,4.6,4.7l0,0c0.2,0.5,0.3,1.1,0.4,1.6
								C343.7,84.5,341.4,90,338.2,92.8z"/>
						</g>
						<path class="st7" d="M338.2,92.8c-1.9,1.6-5.8,3.6-10.4,5.6l0,0c-7.6,3.2-17,6.4-22.2,8.2c-0.8-3.6-1.8-10.5,4-10
							c0,0,32.4-5.5,33.3-18.1c0.2,0.5,0.3,1.1,0.4,1.6C343.7,84.5,341.4,90,338.2,92.8z"/>
					</g>
				</g>
				<g>
					<path class="st4" d="M237.6,232.7c0,0.6,0,1.2,0,1.8l0,0c0,0.1,0,0.3,0,0.4c0,0.6,0,1.1-0.1,1.7c0,0.7-0.1,1.4-0.2,2
						c-0.1,0.7-0.1,1.4-0.2,2.1c-0.1,0.5-0.1,0.9-0.2,1.4c-0.1,0.5-0.1,0.9-0.2,1.4c-0.1,0.8-0.3,1.6-0.5,2.4c0,0.1,0,0.3-0.1,0.4
						c-0.1,0.5-0.2,1-0.3,1.4c-0.1,0.5-0.2,1-0.4,1.5c-0.3,1-0.5,2-0.9,3c-0.4,1.2-0.8,2.4-1.3,3.5c-1.4,3.2-3.3,6.1-5.7,8.8
						c-2.3,2.6-5,5-7.9,7.1c-3,2.1-6.2,4-9.7,5.6c-1.6,0.7-3.2,1.4-4.9,2.1c-11.4,4.4-24.4,6.1-36.2,5c-2.4-0.2-4.7-0.6-7-1
						c-6.8-1.4-12.9-3.8-17.7-7.4l0,0l0,0l0,0c-3.3-2.5-6-5.6-7.9-9.2c-0.7-1.4-1.4-2.8-1.9-4.2c0-0.1-0.1-0.1-0.1-0.2
						c-0.2-0.5-0.4-1-0.6-1.5c-0.2-0.7-0.5-1.3-0.7-2c0,0,0,0,0-0.1c-0.2-0.6-0.4-1.3-0.6-1.9c0,0,0,0,0-0.1
						c-0.2-0.6-0.4-1.3-0.6-1.9c-0.2-0.6-0.3-1.3-0.5-1.9v-0.1c-0.1-0.3-0.1-0.6-0.2-0.9c-0.1-0.3-0.1-0.6-0.2-0.9
						c0-0.1,0-0.1,0-0.2c-0.1-0.6-0.2-1.3-0.4-1.9c-0.1-0.6-0.2-1.3-0.3-2c-1.4-9.7-0.8-19.1,0.4-27.4c0.1-0.5,0.1-1,0.2-1.5
						c0.3-1.9,0.6-3.8,1-5.6c0.1-0.5,0.2-0.9,0.3-1.4c0.2-0.9,0.3-1.8,0.5-2.6c0.2-0.9,0.3-1.7,0.5-2.5c0.2-1.2,0.5-2.3,0.7-3.4
						c0.7-3.7,1.2-6.8,1-9.1c-0.3-4.6-1.3-8.9-2.4-12.3c-0.1-0.2-0.1-0.3-0.2-0.5c0-0.1-0.1-0.3-0.1-0.4c-0.1-0.2-0.1-0.3-0.2-0.5
						s-0.1-0.3-0.2-0.4c0,0,0,0,0-0.1s-0.1-0.2-0.1-0.4c-0.1-0.4-0.3-0.8-0.5-1.2c-0.1-0.1-0.1-0.2-0.1-0.4c0-0.1,0-0.1-0.1-0.2
						v-0.1c-0.3-0.8-0.7-1.5-1-2.1c-0.1-0.1-0.1-0.2-0.2-0.4c0-0.1-0.1-0.2-0.1-0.2c0-0.1-0.1-0.1-0.1-0.2l-0.2-0.4
						c-0.3-0.6-0.5-0.9-0.5-0.9c-0.7-2.3-1.3-4.5-1.8-6.6c-1-4.3-1.5-8.1-1.7-11.6c-0.8-16.2,6.7-24.4,17.3-28.8
						c0.5-0.2,1-0.4,1.5-0.6l0,0c1.6-0.6,3.2-1.1,4.9-1.6c3-0.8,6.1-1.4,9.2-1.8c2.7-0.4,5.4-0.7,8.1-0.9c9.3-0.9,18.4-1.1,25.2-2.6
						c0.5-0.1,1-0.2,1.5-0.3c0.3-0.1,0.6-0.1,0.9-0.2c0.1,0,0.3-0.1,0.4-0.1c0.4-0.1,0.8-0.1,1.1-0.2c0.1,0,0.2,0,0.3-0.1
						c0.2,0,0.3,0,0.5-0.1l0,0c0.1,0,0.1,0,0.2,0c0.5-0.1,1-0.1,1.5-0.2c0.3,0,0.5,0,0.7-0.1l0,0c0.2,0,0.4,0,0.5,0
						c0.2,0,0.4,0,0.6,0l0,0c0.7,0,1.4,0.1,2.1,0.1c0.1,0,0.2,0,0.3,0c0.2,0,0.5,0.1,0.7,0.1c0.8,0.2,1.5,0.4,2.2,0.7
						c0.4,0.2,0.8,0.4,1.2,0.6c0.8,0.5,1.4,1,2,1.6c0.1,0.2,0.3,0.3,0.4,0.5c0.3,0.3,0.5,0.7,0.8,1c0.2,0.4,0.5,0.8,0.7,1.2
						c0.2,0.3,0.4,0.7,0.5,1.1c0.7,1.7,1.2,3.6,1.5,5.4c0.9,5,0.7,9.8,2.3,10.7c1.1,0.6,1.4,1.3,1.4,2.5c0,1.4-0.4,3.4-0.4,6.6
						c0,4.3,0.7,10.7,3.8,20.5c1.4,4.4,2.8,8.4,4.2,12.3c0.5,1.3,1,2.6,1.4,3.9c1.4,3.9,2.8,7.5,4.1,11c0.4,1.1,0.8,2.3,1.2,3.4
						c0.3,0.8,0.6,1.6,0.9,2.4c0.9,2.5,1.7,4.9,2.5,7.3c0.2,0.6,0.4,1.2,0.5,1.8c0.5,1.8,1,3.5,1.4,5.2c0.2,0.7,0.3,1.3,0.5,2
						c0.2,1.1,0.4,2.1,0.6,3.1c0.1,0.6,0.2,1.1,0.3,1.7c0,0.1,0,0.2,0,0.4c0.2,1.6,0.4,3.2,0.5,4.8
						C237.6,230.3,237.6,231.5,237.6,232.7z"/>
					<path class="st8" d="M161.6,140.6c0,0-14.5,13.6-8.8,37.8c5.8,24.1-8.3,55.9,3.9,71.4s59.7,9.8,58.1-28.5s-13.6-46.3-18.2-66.1
						C191.9,135.3,174.4,127.9,161.6,140.6z"/>
					<polygon class="st4" points="312.1,104.3 312.1,104.4 215.5,149.4 213.9,150.2 212.4,143.3 209.4,130 207.8,122.7 209.5,122 
						230.1,112.9 248.4,106.4 306,85.9 306.2,86.6 309.6,96.6 309.7,97.1 309.7,97.1 309.8,97.4 					"/>
					<path class="st5" d="M212.2,129.6c-0.9,0.2-1.9,0.2-2.8,0.4c-2.2,0.3-4.4,0.7-6.7,1.1c-2.2,0.4-4.5,0.8-6.9,1.2
						c-1.7,0.3-3.1,1.7-3.3,3.4c-1.8,13.3-13.9,24.2-28.2,26.7c-14.9,2.6-22.6-5.8-22.9-6.1c0.3,0.3,5.1,4.4,23.2-0.4
						c15.4-4.1,21.5-17.6,23.1-22.2c-27.5,4.3-59.9,7.4-59.9,7.4c2.3-8.6,26.2-15.2,38.4-20.2c10-0.9,19.7-1.2,26.7-2.9
						c9.2-2.3,14,0,16.6,3.9l20.5-9l18.3-6.5C248.6,129.4,231.8,125.5,212.2,129.6z"/>
				</g>
				<g>
					<path class="st4" d="M210,124c2.6-24.5-5.9-50.8-5.9-50.8c-18.7,11.9-20.1,37.2-19.4,50.8H210L210,124z"/>
					<path class="st9" d="M126.6,74.1c0.1,0.4,0.3,0.9,0.5,1.4l0,0C127.1,75.6,126.9,75.1,126.6,74.1z"/>
					<path class="st10" d="M145,55.1c0.8,9.7-10.8,18-10.8,18c-1-0.2-1.9-0.5-2.8-0.7c-3.9-1.1-7.3-2.4-10.3-3.9
						c-23.6-11.9-20.4-34.4-18.7-41.4c0.2-1,1.4-1.3,2.1-0.7c2.4,2,7.9,5.9,18.3,10c0.9,0.3,1.7,0.7,2.6,1.1
						c5.9,2.8,10.5,6.6,13.7,10C143.1,51.7,145,55.1,145,55.1z"/>
					<path class="st5" d="M139.1,47.5c-0.9,4.8-2.6,10.2-4.1,14.5c-1.3,3.9-2.4,7.6-3.6,10.4c-3.9-1.1-7.3-2.4-10.3-3.9
						c-3.1-8.1-2.4-15.2-0.9-20.6c-2.8-2.7-9.8-9.9-16.3-19.9l19.4,12.5c1.1-1.9,1.9-2.9,1.9-2.9C131.3,40.4,135.9,44.2,139.1,47.5z
						"/>
					<path class="st4" d="M195.7,110.6c-0.5,0.8-1,1.6-1.5,2.2c-0.3,0.5-0.6,0.9-0.9,1.3c-0.7,1-1.2,1.6-1.2,1.6l0,0
						c0.2,0.8,0.3,1.7,0.4,2.6c0.4,4.1,0,8.7-1.2,13.3c-1.2,4.4-3.1,8.9-5.8,12.9c-0.6,0.9-1.2,1.7-1.8,2.5s-1.2,1.5-1.9,2.2
						c-5.9,6.6-14.2,11.2-24.6,11.2c-13.9,0-24.1-8.6-26.8-16.4c-0.1-0.2-0.1-0.4-0.2-0.6l0,0c-0.3-0.8-0.5-1.7-0.7-2.5
						c-0.3-1.1-0.5-2.2-0.6-3.3c-0.1-0.7-0.2-1.5-0.2-2.2c0-0.2,0-0.4,0-0.6c-0.1-1-0.1-1.9,0-2.9c0.1-5.2,0.2-7.9-0.3-13.1
						c-6.4-4.3-10-10.2-11.7-16.8c-3.7-15,3-33.6,10.8-43.9c19.1-25.1,50.9-25.2,68.2-7.3c1.8,1.9,3.5,4,5,6.3
						c0.2,0.3,0.4,0.7,0.6,1c2.2,3.6,3.9,7.7,5,12.3C210.1,85.4,201,102.3,195.7,110.6z"/>
					<path class="st2" d="M185.7,13.3l-7,21.7c0,0-1.6,0-3.7,1.5c-2,1.4-4.4,4.1-6.6,9.2c-1.8,4.5-3.4,10.9-4.1,20.1
						c0,0-0.3,1.3-0.3,4.2c0,1,0.1,2.2,0.2,3.5c1,11.3,10.6,7.9,10.6,7.9c-2.2,6.1-11.1,6.1-15.5,1.2c-4.4-5-7.2-2.4-7.2-2.4
						c7.1,6.8-1.7,14.5-1.9,14.6c0-0.2,0.9-6.8-5.6-6.8c-6.6,0-7.5-6-7.5-6c-1.3,4.2,2,10.6,2.1,10.8c-2.9-1.2-5.3-4-7.4-7.2
						c-2.1,6.2-8.3,9.5-8.3,9.5s2.9-6.5,0.7-15.4c-1.1-4.5-1.1-11-0.9-15.3c0.1-1.3,0.1-2.3,0.2-3.2c0,0,0,0,0-0.1
						c0.1-0.9,0.1-1.4,0.1-1.5l0,0c-0.4-7.8,0.7-17.3,6.4-26.1l0,0c0.1-0.3,3.5-15.8,17.9-21.7c0,0-1.5,3.6-1.2,6.8
						C170,4.8,185.7,13.3,185.7,13.3z"/>
					<path class="st3" d="M175,81.3c-2.2,6.1-11.1,6.1-15.5,1.2c-4.4-5-7.2-2.4-7.2-2.4c7.1,6.8-1.7,14.5-1.9,14.6
						c0-0.2,0.9-6.8-5.6-6.8c-6.6,0-7.5-6-7.5-6c-1.3,4.2,2,10.6,2.1,10.8c-2.9-1.2-5.3-4-7.4-7.2c-2.1,6.2-8.3,9.5-8.3,9.5
						s2.9-6.5,0.7-15.4c-1.1-4.5-1.1-11-0.9-15.3c2.6,17.1,10.3,16.3,10.3,16.3c-1.1-4.5,1.4-8.2,1.4-8.2c7.2,7.6,11.7,2.4,15.4,0.8
						c1.1-0.5,2.3-0.6,3.6-0.7c3-0.1,5.4-2.6,5.5-5.6c0.1-2.3,0.2-5.3,0.4-9.5c1.1-16.8,11.6-30.5,11.6-30.5
						c0.6-1.7,1.9,2.7,3.4,9.5c-2,1.4-4.4,4.1-6.6,9.2c-1.8,4.5-3.4,10.9-4.1,20.1c0,0-0.3,1.3-0.3,4.2c0,1,0.1,2.2,0.2,3.5
						C165.3,84.7,175,81.3,175,81.3z"/>
					<path class="st4" d="M189.2,60.2L189.2,60.2c0,0-14.6,0.2-20.6-9.1c0,0-4-12.9,5.5-28.7c6.6-10.9,8.9-18.2,9.7-21.7
						c0.1-0.3,0.2-0.5,0.4-0.7c0.5-0.5,1.4-0.7,2.1-0.1C193.5,6,217.1,25.9,189.2,60.2z"/>
					<g>
						<path class="st3" d="M138.3,67.2c0,0,9.8,3.1,13.8-5.1c4.1-8.4-8.3-15.1-12.8-6.8c-0.5,1-0.9,2-1.1,3.2L138.3,67.2z"/>
						<path class="st7" d="M143.7,66.5c-2.6,1.2-5.4,0.8-5.4,0.8c-0.6-0.5-1.1-0.9-1.7-1.4c-1.1-0.9-2.1-1.7-3-2.6
							c-1.6-1.5-3.2-2.9-4.6-4.4c-0.7-0.7-1.3-1.4-2-2.1c-1.7-1.8-3.3-3.7-4.7-5.5c-0.4-0.5-0.8-1-1.2-1.6c-1.6-2.2-3.1-4.3-4.3-6.4
							c-0.6-0.9-1.1-1.8-1.6-2.7c-1.1-2-2-3.9-2.8-5.7c-0.4-1-0.8-1.9-1.2-2.9c-0.9-2.3-1.5-4.4-2.1-6.4c-0.3-1.2-0.6-2.3-0.8-3.4
							c-1.3-6.9-0.8-11.4-0.8-11.9l0,0l0,0c0.1,0.2,0.3,0.4,0.4,0.6c1.4,1.9,2.9,3.8,4.2,5.5c0.7,0.9,1.4,1.8,2.1,2.6
							c1.3,1.7,2.6,3.3,3.9,4.8c0.7,0.9,1.5,1.8,2.2,2.6c1.3,1.6,2.6,3.1,3.9,4.5c0.8,0.9,1.6,1.8,2.3,2.6c1.3,1.5,2.6,2.9,3.9,4.2
							c0.8,0.9,1.7,1.8,2.5,2.6c1.4,1.4,2.7,2.7,3.9,3.9c0.9,0.9,1.8,1.8,2.6,2.5c1.5,1.4,2.7,2.6,3.9,3.6c1.1,1,2,1.8,2.7,2.4
							c0.1,0.1,0.1,0.1,0.2,0.2c1.3,1.1,2.1,2.7,2.2,4.5C148.4,62.9,146.2,65.4,143.7,66.5z"/>
						<g>
							<path class="st7" d="M114.4,19.2c-1.3,3.1-3.3,5.2-5.2,6.6c-0.3-1.2-0.6-2.3-0.8-3.4c2-1.9,3.2-4,3.9-5.8
								C113,17.4,113.7,18.3,114.4,19.2z"/>
							<path class="st7" d="M120.5,26.6c-2.1,4.9-5.6,7.3-8.1,8.4c-0.4-1-0.8-1.9-1.2-2.9c3.8-2.2,5.9-5.5,7.1-8.2
								C119,24.9,119.8,25.8,120.5,26.6z"/>
							<path class="st7" d="M126.7,33.8c-2.7,6.5-7.5,8.9-9.9,9.7c-0.6-0.9-1.1-1.8-1.6-2.7c5.1-2.3,7.8-6.2,9.2-9.6
								C125.1,32.1,125.9,32.9,126.7,33.8z"/>
							<path class="st7" d="M133,40.6c-2.9,7.6-8.4,10.1-10.7,10.8c-0.4-0.5-0.8-1-1.2-1.6l-0.7-1c5.4-2.5,8.8-7.1,10.2-10.8
								C131.4,38.9,132.2,39.8,133,40.6z"/>
							<path class="st7" d="M139.4,47.1c-2.6,7.9-7.8,10.8-10.5,11.9c-0.7-0.7-1.3-1.4-2-2.1l-0.1-0.8c5.7-2.7,8.5-7.5,9.9-11.5
								C137.8,45.5,138.6,46.3,139.4,47.1z"/>
							<path class="st7" d="M146,53c-2.1,7.7-6.4,11.3-9.4,12.9c-1.1-0.9-2.1-1.7-3-2.6c5.7-3.1,8.4-8.4,9.7-12.7
								C144.4,51.6,145.3,52.4,146,53z"/>
						</g>
						<path class="st11" d="M143.7,66.5c-2.6,1.2-5.4,0.8-5.4,0.8c-34-27.1-30.9-55.6-30.7-56.9l0,0c0.1,0.2,0.3,0.4,0.5,0.6
							C109.9,16.3,113.5,43.4,143.7,66.5z"/>
					</g>
					<g>
						<path class="st8" d="M186.1,49.9L186.1,49.9c-0.1,0.1-1.7,0.9-3.7,0.6c-1.7-0.2-3.8-1.2-5.8-4c0,0-2.6-11.5,5.4-20.5
							c3.6-4.1,5-6.7,5.6-8.3c0.2-0.7,1.1-0.8,1.5-0.2c0.4,0.5,0.7,1.1,1.2,1.9C193.8,25.4,198.6,38.2,186.1,49.9z"/>
						<path class="st12" d="M186.1,49.9L186.1,49.9c-0.1,0.1-1.7,0.9-3.7,0.6c-1.7-0.2-3.8-1.2-5.8-4c0,0-0.2-10.4,2.9-14.6
							c0,0-2.5,8,5.5,7.3s5.7-13.2,5.7-13.2S198.2,38.1,186.1,49.9z"/>
					</g>
					<path class="st6" d="M185.3,137c1.2,6-5.5,6.4-4.5,8.5c0.4,0.8,0.8,2.1,1,3.8c-5.9,6.6-14.2,11.2-24.6,11.2
						c-7,0-13.1-2.2-17.7-5.3c-0.6-0.4-1.1-0.8-1.7-1.2c-0.7-0.6-1.4-1.2-2-1.8c-1.4-1.3-2.5-2.8-3.5-4.2c-0.8-1.3-1.4-2.5-1.9-3.8
						c-0.4-1.1-0.7-2.1-0.9-3.2c-0.3-1.1-0.5-2.2-0.6-3.3c4.1-4,10.7-8.4,21-10.2C170.5,123.9,184.1,131,185.3,137z"/>
					<g>
						<path class="st7" d="M175.1,140.1c0.4,1.6-0.8,3.4-2.7,3.8c-1.9,0.5-3.8-0.5-4.2-2.1s0.8-3.4,2.7-3.8
							C172.8,137.5,174.7,138.5,175.1,140.1z"/>
						<path class="st13" d="M176.8,139.7c0,0,1.7,3.5-2.2,5.8s-7-0.9-7-0.9s1.8,4.3,6.3,3.2C178.3,146.7,179.3,142.5,176.8,139.7z"
							/>
					</g>
					<g>
						<path class="st7" d="M139,148.2c0.4,1.6-0.8,3.4-2.7,3.8c-0.2,0-0.3,0.1-0.5,0.1c-1.4-1.3-2.5-2.8-3.5-4.2
							c0.5-0.9,1.3-1.6,2.5-1.8C136.7,145.6,138.6,146.6,139,148.2z"/>
						<path class="st13" d="M139.5,155.2c-0.6-0.4-1.1-0.8-1.7-1.2c0.2-0.1,0.4-0.2,0.6-0.3c3.9-2.3,2.2-5.8,2.2-5.8
							C142.9,150.2,142.4,153.5,139.5,155.2z"/>
					</g>
					<path class="st5" d="M201.4,58.1c2.2,3.6,3.9,7.7,5,12.3c3.7,15-5.4,31.9-10.7,40.2c-0.5,0.8-1,1.6-1.5,2.2
						c-0.1,0.1-0.2,0.2-0.2,0.4l-0.1,0.1c-0.1,0.1-0.1,0.1-0.2,0.2c-0.1,0.2-0.3,0.4-0.4,0.6c-0.7,1-1.2,1.6-1.2,1.6l0,0
						c1.8,8.3-0.6,19.6-6.6,28.8c-0.6,0.9-1.2,1.7-1.8,2.5c9.9-16.1,4.7-34.3,4.6-34.6l0,0c-1.4-0.4-3.2-0.6-5.8-0.5
						c0,0,3.1-2.3,8-2.3c0,0,10.6-18.9,10.4-31.7c-0.3-12.6-6.6-17-6.8-17.1c-2.9,0.2-5-0.7-5-0.7l0,0l0,0
						c0.4-0.8,12.8-25.7,8.4-40.4c-3.8-13-11.5-18.4-13.4-19.6c0.5-0.5,1.4-0.7,2.1-0.1c6.6,5.5,26.6,22.3,9.6,50.9
						c1.8,1.9,3.5,3.9,4.9,6.2l0,0c0.1,0.2,0.2,0.3,0.3,0.5C201.2,57.8,201.3,58,201.4,58.1z"/>
					<path class="st5" d="M193.9,113.2c0,0,0,0.1-0.1,0.1l-0.1,0.1C193.8,113.4,193.9,113.3,193.9,113.2z"/>
					<path class="st7" d="M129.7,138.2c0,0,20-18.9,52-4.2C181.7,134,157.2,123,129.7,138.2z"/>
					<path class="st14" d="M183.6,85.5c0,0-2.5,1.5-3.7,5c-0.2,3.5-1.5,7.6-5.7,9.4c-7.6,3.4-11.7-5.5-11.8-5.7
						c15.1,11.8,17-9.7,17-9.7s0.3,1.2,0.4,2.9C180.4,86.6,181.6,85.6,183.6,85.5z"/>
					<path class="st14" d="M141.7,97.2c0,0,1.4,8.4-5.7,9.6c-4.1,0.7-7-2-8.8-4.5c-2.3-0.6-4.1-0.1-4.1-0.1c1.2-1.1,2.4-1.4,3.2-1.4
						c-0.8-1.4-1.2-2.6-1.2-2.6S136.5,112.5,141.7,97.2z"/>
					<path class="st15" d="M191.3,131.6l-61.1,11.9l0,0c-0.3-0.8-0.5-1.7-0.7-2.5c-0.3-1.1-0.5-2.2-0.6-3.3
						c-0.1-0.7-0.2-1.5-0.2-2.2c0-0.2,0-0.4,0-0.6c11.1-5.9,52.6-16.4,61.2-16.8c1.1-0.1,1.9,0,2.7,0.3
						C193,122.3,192.6,126.9,191.3,131.6z"/>
				</g>
				<g>
					<g>
						<g>
							<path class="st6" d="M247.2,104.7L247.2,104.7c0,0.2,0,0.3,0,0.5c-0.5,5-4.3,10.4-8.5,12.8c-2.4,1.4-7.2,2.6-12.7,3.8l0,0
								c-10.6,2.1-24.1,3.7-29,4.2c-0.8,0.1-1.4,0.1-1.6,0.2l0,0c-0.1,0-0.2,0-0.2,0l7.3-19.1l0.1-0.4v-0.1l1.1-3
								c0,0,17.3-10.6,33.3-8.6c0.5,0.1,0.9,0.1,1.3,0.2l0,0c0.9,0.2,2.8,0.9,2.8,0.9c0.7,0.3,1.3,0.7,1.9,1.2
								C245.7,99.1,247.3,101.9,247.2,104.7z"/>
						</g>
					</g>
				</g>
				<path class="st4" d="M226,121.7L226,121.7c-10.6,2.1-24.1,3.7-29,4.2c-0.8,0.1-1.4,0.1-1.6,0.2l0,0c-1.4,0.3-4,0.8-7.6,1.6
					c-11,2.3-31.4,6.5-56.1,11.5c0,0-5.2,1.1-2.4,7c0,0,7.9,2.8,4.2,9.5c-1.5,2.8-1,0.3-2.4,2.1c-2,2.7-3.4,5.1-3.1,8.8
					c0,0-0.4-0.1-1.2-0.3c-6.7-1.8-39.4-11.5-43-27.4c-1.6,1.2-2.2,3-2.2,3c-1.1-1.9,0.4-5,0.4-5c-2.1,0.6-4.3,4.2-4.3,4.2
					c0.3-12.5,15.4-19.3,16.4-19.7h0.1c4.3-2,10.3-4,18.9-5.5c31.6-5.6,90.8-12.4,90.8-12.4l-1.1,3.4l0,0c-0.1,0.6-3,10.8,4,15.4
					C210.4,124.7,226,121.7,226,121.7z"/>
				<path class="st5" d="M312.1,104.4l-96.6,45c0,4.3,0.7,10.7,3.8,20.5c1.4,4.4,2.8,8.4,4.2,12.3c0.5,1.3,1,2.6,1.4,3.9
					c1.4,3.9,2.8,7.5,4.1,11c0.4,1.1,0.8,2.3,1.2,3.4c0.3,0.8,0.6,1.6,0.9,2.4c0.9,2.5,1.7,4.9,2.5,7.3c0.2,0.6,0.4,1.2,0.5,1.8
					c0.5,1.8,1,3.5,1.4,5.2c0.2,0.7,0.3,1.3,0.5,2c0.2,1,0.4,2.1,0.6,3.1c0.1,0.6,0.2,1.1,0.3,1.7c0,0.1,0,0.2,0,0.4
					c0.2,1.6,0.4,3.2,0.5,4.8c0.1,1.2,0.1,2.3,0.1,3.5c0,0.6,0,1.2,0,1.8l0,0c0,0.1,0,0.3,0,0.4c0,0.6,0,1.1-0.1,1.7
					c0,0.7-0.1,1.4-0.2,2c-0.1,0.7-0.1,1.4-0.2,2.1c-0.1,0.4-0.1,0.9-0.2,1.4c-0.1,0.5-0.1,0.9-0.2,1.4c-0.1,0.8-0.3,1.6-0.5,2.4
					c0,0.1-0.1,0.3-0.1,0.4c-0.1,0.5-0.2,1-0.3,1.4c-0.1,0.5-0.2,1-0.4,1.5c-0.3,1-0.5,2-0.9,3c-0.4,1.2-0.8,2.4-1.3,3.5
					c-1.4,3.2-3.3,6.1-5.7,8.8c2.1-5.4,3.1-11.6,3.4-18.1c0.2-5.3-0.1-10.9-0.8-16.6c-0.1-0.7-0.2-1.4-0.3-2.1
					c-3.1-23.2-11.9-46.8-16.1-55.5c-4.7-9.7-4.9-20.3-4.7-25.6c0.1-1.8,1.5-3.2,3.3-3.3l0,0c1.1-0.1,2.3-0.2,3.5-0.5
					c8.4-1.7,19.7-7.3,19.7-7.3c-1.8,0.2-3.5-1.3-3.5-1.3c6.9-0.3,13.6-6.1,26.5-12.8s20.5-8.3,20.5-8.3c-3.8,0-5.4-1.1-5.4-1.1
					c8.3-2.2,18.1-6.5,26-10.3c2.2-1.1,4.4-2.1,6.2-3.1c1.4-0.7,2.6-1.4,3.7-1.9l0.2,0.5l0,0l0.1,0.2L312.1,104.4L312.1,104.4
					L312.1,104.4z"/>
				<path class="st5" d="M203.8,103.5l-1.1,3.4c-4.3,4-21.9,1-33.1,7.6c-11,6.4-22.2,2.4-22.6,2.2c2.5,0.6,7.8-1.6,7.8-1.6
					c-15.7-0.7-46.9,6.5-56.1,10.9c-9.2,4.4,1.4,12.7,1.4,12.7c-2.9,0.4-6.1-1.8-6.1-1.8c6.2,13.4,20.4,14.1,31.2,17.8
					c0.5,0.2,1.1,0.4,1.6,0.6c1.7,0.6,3.1,1.5,4.4,2.5c3.1,2.5,5.1,5.9,6.2,8.8l0,0c0,0.1,0.4,1.2,1,3l0,0
					c1.9,5.9,5.6,19.6,5.1,33.5c-0.6,18.5-14.5,55.9,0.7,72.7l0,0c-3.3-2.5-6.1-5.6-7.9-9.2c-0.7-1.4-1.4-2.8-1.9-4.2
					c0,0-18.5,9.9-24.4,30.1c0,0,2.6-2.9,5.6-3.8c0,0-10.5,18.7,6.6,63.9c0,0,2.7,5.7,2.5,10c-4.5-0.6-8.1-1.8-8.1-1.8
					s-18.9-43-15.8-68.5c2.6-22.1,24.5-36.8,30.2-40.4c-5.6-25,4.3-48.8,3.7-58.4c-0.3-4.6-1.3-8.9-2.4-12.3
					c-0.1-0.2-0.1-0.3-0.2-0.5c-0.1-0.1-0.1-0.3-0.1-0.4c-0.1-0.2-0.1-0.3-0.2-0.5c-0.1-0.1-0.1-0.3-0.2-0.4c0,0,0,0,0-0.1
					s-0.1-0.2-0.1-0.4c-0.2-0.4-0.3-0.8-0.5-1.2c-0.1-0.1-0.1-0.2-0.1-0.4l0,0c-0.1-0.1-0.1-0.2-0.1-0.4c-0.2-0.4-0.4-0.9-0.6-1.3
					c0-0.1-0.1-0.1-0.1-0.2c-0.2-0.3-0.3-0.6-0.4-0.9c0-0.1-0.1-0.2-0.1-0.2c0-0.1-0.1-0.1-0.1-0.2c-0.1-0.1-0.1-0.3-0.2-0.4
					c-0.3-0.6-0.5-0.9-0.5-0.9c-0.7-2.3-1.3-4.5-1.8-6.6c-6.7-1.8-39.4-11.5-43-27.4c-1.6,1.2-2.2,3-2.2,3c-1.1-1.9,0.4-5,0.4-5
					c-2.1,0.6-4.3,4.2-4.3,4.2c0.3-12.5,15.4-19.3,16.4-19.7l0,0c4.3-2,10.3-4,18.9-5.5C144.6,110.3,203.8,103.5,203.8,103.5z"/>
				<path class="st5" d="M265.1,367.4c-1.8,1.6-3.4,2.9-4.6,3.3c0,0-26.6-56.2-37.3-66.8c-6-5.9-12.7-15-18.3-24.6
					c-11.4,4.4-24.4,6.1-36.2,5c-0.1,0.1-0.3,0.2-0.4,0.3c0,0,0,0-0.1,0c-11.6,8.3-29.4,14.7-36.5,25.7c-6.2,9.5,4.4,43.5,6.3,49.5
					c-2.7,0.3-2.4,1.7-2.4,1.7S123,326.6,125,314.3c2.5-15.8,29.8-24.2,36.7-31c0.2-0.2,0.4-0.5,0.6-0.6c0,0-4.1-1.9-6.8-6.8
					c0,0,7.3,3.5,18.3,4c7.9,0.4,18.3,0.3,28.7-4.9c4.1-2,7.5-5.7,11.7-9c0,0-0.7,5.4-4.5,11.2l0,0c0,0,5.1,15.1,14.9,20.5
					c9.8,5.4,29.9,50.5,38.1,66.8C262.8,364.5,264,365.7,265.1,367.4z"/>
				<g>
					<path class="st6" d="M139.1,370.7h-36.8c-1,0-1.9-0.9-1.9-1.9c0,0,0-0.1,0-0.4c0-2,0.4-10.7,6.7-15.4l0,0
						c0.6-0.5,1.4-0.9,2.1-1.3c1-0.5,2.1-0.9,3.4-1.2l0,0c1.3-0.3,2.8-0.5,4.5-0.5c0.1,0,0.3,0,0.4,0c1.4,0,2.7,0.1,3.9,0.2l0,0
						c1.3,0.1,2.6,0.3,3.8,0.6c1.3,0.3,2.6,0.7,3.7,1.1c3.7,1.5,6.5,3.7,8.6,6.4l0,0c2.1,2.7,3.4,5.8,4.2,8.9
						C142.2,369,140.9,370.7,139.1,370.7z"/>
				</g>
				<g>
					<path class="st6" d="M290.5,370.7H255c-1,0-1.9-0.9-1.9-1.9c0,0-0.6-12.7,9.1-17.2l0,0c2-1,4.6-1.6,7.6-1.6
						c9-0.1,15,2.6,19,6.7l0,0c2.6,2.6,4.2,5.8,5.3,9.1C294.9,368.2,293.1,370.7,290.5,370.7z"/>
				</g>
				<path class="st7" d="M158.4,177.7c0,0,6.1,10.9,20.9,7c14.7-3.9,16-15.7,16-15.7s0.7,14.7-13.6,18.2
					C167.3,190.8,160.9,187.1,158.4,177.7z"/>
				<path class="st7" d="M139.1,370.7h-36.8c-1,0-1.9-0.9-1.9-1.9c0,0,0-0.1,0-0.4c0-2,0.4-10.7,6.7-15.4l0,0c0,0-6.4,6.4,1.1,9.9
					c7.5,3.4,34.3,4.5,29.3-4.6c2.1,2.7,3.4,5.8,4.2,8.9C142.2,369,140.9,370.7,139.1,370.7z"/>
				<path class="st7" d="M290.5,370.7H255c-1,0-1.9-0.9-1.9-1.9c0,0-0.6-12.7,9.1-17.2c-0.2,0.2-8.4,8.6,0,11.3
					c8.5,2.7,33.5,4.8,26.6-6.2c2.6,2.6,4.2,5.8,5.3,9.1C294.9,368.2,293.1,370.7,290.5,370.7z"/>
				<path class="st7" d="M247.2,104.7c-0.1-0.2-3-5.7-11.1-6.7c-8.2-1-33.4,8.9-33.4,8.9c0-0.1,0-0.3,0-0.4l1.1-3
					c0,0,17.3-10.6,33.3-8.6c0.5,0.1,0.9,0.1,1.3,0.2l0,0c0.9,0.2,2.8,0.9,2.8,0.9c0.7,0.3,1.3,0.7,1.9,1.2
					C245.7,99.1,247.3,101.9,247.2,104.7z"/>
			</g>
		</g>
	</g>
	<g>
		<path class="st6" d="M292.4,165c-12,1.2-13,2.2-14.2,14.2c-1.2-12-2.2-12.9-14.2-14.2c12-1.2,13-2.2,14.2-14.2
			C279.5,162.8,280.5,163.8,292.4,165z"/>
		<path class="st6" d="M101.3,239c-12,1.2-12.9,2.2-14.2,14.2c-1.2-12-2.2-13-14.2-14.2c12-1.2,12.9-2.2,14.2-14.2
			C88.3,236.7,89.3,237.7,101.3,239z"/>
		<path class="st6" d="M93.7,71.4c-12,1.2-12.9,2.2-14.2,14.2c-1.2-12-2.2-12.9-14.2-14.2c12-1.2,12.9-2.2,14.2-14.2
			C80.8,69.2,81.8,70.2,93.7,71.4z"/>
	</g>
</g>
</svg>
