<?xml version="1.0" encoding="utf-8"?>
<!-- Generator: Adobe Illustrator 26.3.1, SVG Export Plug-In . SVG Version: 6.00 Build 0)  -->
<svg version="1.1" xmlns="http://www.w3.org/2000/svg" xmlns:xlink="http://www.w3.org/1999/xlink" x="0px" y="0px"
	 viewBox="0 0 372.5 451" style="enable-background:new 0 0 372.5 451;" xml:space="preserve">
<style type="text/css">
	.st0{opacity:0.5;fill:url(#SVGID_1_);}
	.st1{opacity:0.3;}
	.st2{fill:#4CFF46;}
	.st3{fill:#3ACC32;}
	.st4{fill:#C560FF;}
	.st5{opacity:0.1;}
	.st6{fill:#FFFFFF;}
	.st7{fill:#4A0094;}
	.st8{fill:#9BE8FC;}
	.st9{fill:#EFEFEF;}
	.st10{opacity:0.2;fill:#FF631B;}
	.st11{opacity:0.66;fill:#C560FF;}
	.st12{opacity:0.64;fill:#4A0094;}
	.st13{opacity:0.69;fill:#4A0094;}
	.st14{fill:#3B3D63;}
	.st15{opacity:0.2;}
	.st16{opacity:0.5;fill:url(#SVGID_00000049221591559743342280000012835034637868768656_);}
	.st17{opacity:0.5;fill:url(#SVGID_00000092442593000976116330000011256077928987776146_);}
</style>
<g id="OBJECTS">
	<g>
		<g>
			<path class="st2" d="M277.1,231.2C277.1,231.2,277.1,231.2,277.1,231.2c-0.3,0.5-20.3,36.6-52.8,25.3
				c-32.7-11.4-20.9-76.6-20.9-76.6s7.3-3,14.4-3.2c5-0.1,10,1.2,12,6.1c0,0-1.8,8.2-1.7,18c0,0,0,0,0,0c0.1,0.5,2.6,18,13.7,20.2
				c0,0-4.5,2.9-9.6,0c2,3.8,4.8,7,8.8,9.1C260.5,240.4,277.1,231.2,277.1,231.2z"/>
			<g>
				<path class="st2" d="M296.8,252.8c4.2,14.2,12.1,32.6-3.2,55c-24.4,35.8-63.9,9.7-83.2,2.4c0,0,0,0,0,0
					c-0.3-1-10.4-33.3-4.5-44.4c0,0,11.3-6.3,25,10.8c7,8.8,16.3,14.6,24.7,14.3c0,0,6.7-1.6,6.8-10.1c0,0,1.9,2.9,1.9,7.1
					c4.3-3,7.9-8.4,10.2-16.9c4.6-16.7,2.4-48.2,29.2-47.9c0,0,0,0,0,0C303.2,223.4,290.3,230.9,296.8,252.8z"/>
				<path class="st3" d="M296.8,252.8c4.2,14.2,12.1,32.6-3.2,55c-24.4,35.8-63.9,9.7-83.2,2.4c0,0,0,0,0,0
					c4.4-4.7,12-9.6,23.8-14.7c0,0,18,23.6,45.3,7.5c0,0-0.5,7-4.9,8.8c0,0,15.2,1,17.6-21.5c2.6-24.3-14.2-54.2,11.5-67.1
					C303.2,223.4,290.3,230.9,296.8,252.8z"/>
				<path class="st3" d="M277.1,231.2c-0.3,0.5-20.3,36.6-52.8,25.3c-32.7-11.4-20.9-76.6-20.9-76.6s7.3-3,14.4-3.2
					c-0.3,6.8,0.5,55.5,21.4,62.1C261.4,245.9,276.8,231.4,277.1,231.2z"/>
				<path class="st2" d="M226.5,105.3c2.2,10.2,3.5,29.1-1.5,43.3l-9.8,1.9l-28.6,5.4l-6.1-21.2c1.1-14.5,1-32.1-4.8-39.9
					c0,0,24.1-24.6,23.1-28.8c0,0,1.3,0.8,3.4,2.4c0,0,0,0,0,0c1.5,1.2,3.5,2.8,5.6,4.8c0,0,0,0,0.1,0c1.1,1,19.9,18,23.4,37
					C231.2,110,229.2,107.7,226.5,105.3z"/>
				<path class="st3" d="M215.5,148.5c-0.1,0.6-0.2,1.3-0.3,1.9c-5,24.1-28.1,7.1-28.1,7.1l-0.5-1.7l-6.1-21.2
					c1.1-14.5,1-32.1-4.8-39.9c0,0,24.1-24.6,23.1-28.8c0,0,1.3,0.8,3.4,2.4c0,0,0,0,0,0c0.1,0.3,5.9,11.5,1.7,23
					C203.9,91.2,219.7,121.7,215.5,148.5z"/>
				<path class="st6" d="M274.7,394.7c0,0-1.1,1.4-2.9,3.5c-2.6,3.1-6.6,7.7-10.1,10.8c-1.8,1.6-3.4,2.9-4.6,3.3
					c0,0-26.6-56.3-37.3-66.8c-6-5.9-12.7-15-18.3-24.6c-1-1.8-2-3.5-3-5.3c-3.1-5.8-5.6-11.7-7.3-16.9c0,0,30.4-15.1,31.7-32.4
					c0,0,4.7,5.8,10.6,16c6.2,10.6,13.7,25.9,18.5,44C261.7,361.9,274.7,394.7,274.7,394.7z"/>
				<path class="st5" d="M274.7,394.7c0,0-1.1,1.4-2.9,3.5c-4.9-7.2-9.1-17.1-12.9-27.9c0,0-0.6-2.5-2-5.9
					c-2-4.9-5.6-11.8-11.2-16.4c2.8-0.3,6.2,0.8,6.2,0.8c-3-9.7-5.2-16.8-8.2-24.7c-9-23.8-13.8-26.8-13.8-26.8s1.3-3.5,3.9-14.9
					c6.2,10.6,13.7,25.9,18.5,44C261.7,361.9,274.7,394.7,274.7,394.7z"/>
				<path class="st6" d="M175.6,311.6c-0.4,3.7-2.2,7-5,9.9c-1.5,1.6-3.2,3-5.1,4.4c-0.1,0.1-0.3,0.2-0.4,0.3c0,0,0,0-0.1,0
					c-11.6,8.3-29.4,14.7-36.5,25.7c-6.2,9.5,4.4,43.5,6.3,49.5c0.2,0.6,0.3,0.9,0.3,0.9c-3.9,2.4-9.4,2.4-13.9,1.8
					c-4.5-0.6-8.1-1.8-8.1-1.8s-18.9-43.1-15.8-68.5c2.6-22.1,24.5-36.9,30.2-40.4c0.8-0.5,1.3-0.7,1.3-0.8c0,0,0,0,0,0
					C139,285.7,175.6,311.6,175.6,311.6z"/>
				<g>
					<g>
						<g>
							<path class="st4" d="M334.9,134.4c-1.9,1.6-5.8,3.6-10.4,5.6c0,0,0,0,0,0c-7.6,3.2-17,6.4-22.2,8.2c-1,0.3-1.8,0.6-2.4,0.8
								c-0.7,0.2-1.2,0.4-1.4,0.5l0,0c-0.1,0-4.6,0-4.6,0l7.3-18.1l0.1-0.4l0.5-2.9c0,0,13.2-12.5,27.6-13.7c0.4,0,1.2-0.1,1.2-0.1
								l2.6,0.3c0.7,0.2,1.3,0.4,1.9,0.7c2.2,1,3.9,2.7,4.6,4.7v0c0.2,0.5,0.3,1.1,0.4,1.6C340.4,126.1,338.1,131.6,334.9,134.4z"/>
						</g>
						<path class="st7" d="M334.9,134.4c-1.9,1.6-5.8,3.6-10.4,5.6c0,0,0,0,0,0c-7.6,3.2-17,6.4-22.2,8.2c-0.8-3.6-1.8-10.5,4-10
							c0,0,32.4-5.5,33.3-18.2c0.2,0.5,0.3,1.1,0.4,1.6C340.4,126.1,338.1,131.6,334.9,134.4z"/>
					</g>
				</g>
				<g>
					<path class="st6" d="M234.3,274.3c0,0.6,0,1.2,0,1.8v0c0,0.1,0,0.3,0,0.4c0,0.6-0.1,1.1-0.1,1.7c0,0.7-0.1,1.3-0.2,2
						c-0.1,0.7-0.2,1.4-0.2,2.1c-0.1,0.5-0.1,0.9-0.2,1.4c-0.1,0.5-0.2,0.9-0.2,1.4c-0.1,0.8-0.3,1.6-0.5,2.4c0,0.1-0.1,0.3-0.1,0.4
						c-0.1,0.5-0.2,0.9-0.3,1.4c-0.1,0.5-0.2,1-0.4,1.5c-0.3,1-0.5,2-0.9,3c-0.4,1.2-0.8,2.4-1.3,3.5c-1.4,3.2-3.3,6.1-5.7,8.8
						c-2.3,2.6-4.9,5-7.9,7.1c-3,2.1-6.2,4-9.7,5.6c-1.6,0.7-3.2,1.4-4.9,2.1c-11.4,4.4-24.4,6.1-36.2,5c-2.4-0.2-4.7-0.6-7-1
						c-6.8-1.4-12.9-3.8-17.7-7.4c0,0,0,0,0,0s0,0,0,0c0,0,0,0,0,0c-3.3-2.5-6-5.6-7.9-9.2c-0.7-1.4-1.4-2.8-1.9-4.2
						c0-0.1-0.1-0.1-0.1-0.2c-0.2-0.5-0.4-1-0.6-1.5c-0.2-0.7-0.5-1.3-0.7-2c0,0,0,0,0-0.1c-0.2-0.6-0.4-1.3-0.6-1.9c0,0,0,0,0-0.1
						c-0.2-0.6-0.4-1.3-0.6-1.9c-0.2-0.6-0.3-1.3-0.5-1.9c0,0,0-0.1,0-0.1c-0.1-0.3-0.1-0.6-0.2-0.9c-0.1-0.3-0.1-0.6-0.2-0.9
						c0-0.1,0-0.1,0-0.2c-0.1-0.6-0.2-1.3-0.4-1.9c-0.1-0.6-0.2-1.3-0.3-2c-1.5-9.7-0.8-19.1,0.4-27.4c0.1-0.5,0.2-1,0.2-1.5
						c0.3-1.9,0.6-3.8,1-5.6c0.1-0.5,0.2-0.9,0.3-1.4c0.2-0.9,0.3-1.7,0.5-2.6c0.2-0.9,0.3-1.7,0.5-2.5c0.2-1.2,0.5-2.3,0.7-3.4
						c0.7-3.7,1.2-6.8,1-9.1c-0.3-4.6-1.3-8.9-2.4-12.3c-0.1-0.2-0.1-0.3-0.2-0.5c0-0.1-0.1-0.3-0.1-0.4c-0.1-0.2-0.1-0.3-0.2-0.5
						c-0.1-0.2-0.1-0.3-0.2-0.4c0,0,0,0,0-0.1c0-0.1-0.1-0.2-0.1-0.4c-0.2-0.4-0.3-0.8-0.5-1.2c-0.1-0.1-0.1-0.2-0.2-0.4
						c0-0.1,0-0.1-0.1-0.2c0,0,0-0.1,0-0.1c-0.3-0.8-0.7-1.5-1-2.1c-0.1-0.1-0.1-0.2-0.2-0.4c0-0.1-0.1-0.2-0.1-0.2
						c0-0.1-0.1-0.1-0.1-0.2l-0.2-0.4c-0.3-0.6-0.5-0.9-0.5-0.9c-0.7-2.3-1.3-4.5-1.8-6.6c-1-4.3-1.5-8.1-1.7-11.6
						c-0.8-16.2,6.7-24.4,17.3-28.8c0.5-0.2,1-0.4,1.5-0.6h0c1.6-0.6,3.2-1.1,4.9-1.6c3-0.8,6.1-1.4,9.2-1.8
						c2.7-0.4,5.4-0.7,8.1-0.9c9.3-0.9,18.4-1.1,25.2-2.6c0.5-0.1,1-0.2,1.5-0.3c0.3-0.1,0.6-0.2,0.9-0.2c0.1,0,0.3-0.1,0.4-0.1
						c0.4-0.1,0.8-0.2,1.2-0.2c0.1,0,0.2,0,0.3-0.1c0.2,0,0.3,0,0.5-0.1l0,0c0.1,0,0.1,0,0.2,0c0.5-0.1,1-0.1,1.5-0.2
						c0.3,0,0.5,0,0.7-0.1h0c0.2,0,0.4,0,0.5,0c0.2,0,0.4,0,0.6,0h0c0.7,0,1.4,0.1,2.1,0.2c0.1,0,0.2,0,0.3,0c0.2,0,0.5,0.1,0.7,0.1
						c0.8,0.2,1.5,0.4,2.2,0.7c0.4,0.2,0.8,0.4,1.2,0.6c0.8,0.5,1.4,1,2,1.6c0.2,0.2,0.3,0.3,0.4,0.5c0.3,0.3,0.5,0.7,0.8,1
						c0.2,0.4,0.5,0.8,0.7,1.2c0.2,0.3,0.4,0.7,0.5,1.1c0.7,1.7,1.2,3.6,1.5,5.4c0.9,5,0.7,9.8,2.3,10.7c1.1,0.6,1.3,1.3,1.3,2.5
						c0,1.4-0.4,3.4-0.4,6.6c0,4.3,0.7,10.7,3.8,20.5c1.4,4.4,2.8,8.4,4.2,12.3c0.5,1.3,0.9,2.6,1.4,3.9c1.4,3.9,2.8,7.5,4.1,11
						c0.4,1.1,0.8,2.3,1.2,3.4c0.3,0.8,0.6,1.6,0.9,2.4c0.9,2.5,1.7,4.9,2.5,7.3c0.2,0.6,0.4,1.2,0.5,1.8c0.5,1.8,1,3.5,1.4,5.2
						c0.2,0.7,0.3,1.3,0.5,2c0.2,1.1,0.4,2.1,0.6,3.1c0.1,0.6,0.2,1.1,0.3,1.7c0,0.1,0,0.2,0,0.4c0.2,1.6,0.4,3.2,0.5,4.8
						C234.3,271.9,234.3,273.1,234.3,274.3z"/>
					<path class="st11" d="M158.3,182.2c0,0-14.5,13.6-8.8,37.8c5.8,24.1-8.3,55.9,3.9,71.4c12.2,15.5,59.7,9.9,58.1-28.5
						c-1.6-38.4-13.6-46.3-18.2-66.1C188.6,176.9,171.1,169.5,158.3,182.2z"/>
					<polygon class="st6" points="308.8,146 308.8,146 212.2,191 210.6,191.8 209.1,184.9 206.1,171.6 204.5,164.3 206.2,163.6 
						226.8,154.5 245.1,148 302.7,127.5 302.9,128.2 306.2,138.2 306.4,138.7 306.4,138.7 306.5,139 					"/>
					<path class="st5" d="M208.9,171.2c-0.9,0.2-1.9,0.2-2.8,0.4c-2.2,0.3-4.4,0.7-6.7,1.1c-2.2,0.4-4.5,0.8-6.9,1.3
						c-1.7,0.3-3.1,1.7-3.3,3.4c-1.8,13.3-13.9,24.2-28.2,26.7c-14.9,2.6-22.6-5.8-22.9-6.1c0.3,0.3,5.1,4.4,23.2-0.4
						c15.5-4.1,21.5-17.6,23.1-22.2c-27.5,4.3-59.9,7.4-59.9,7.4c2.3-8.6,26.2-15.2,38.4-20.2c10-0.9,19.7-1.2,26.7-2.9
						c9.2-2.3,14,0,16.6,3.9l20.5-9l18.3-6.5C245.3,171,228.5,167.1,208.9,171.2z"/>
				</g>
				<g>
					<path class="st6" d="M206.7,165.7c2.6-24.5-5.9-50.8-5.9-50.8c-18.7,12-20.1,37.2-19.4,50.8H206.7z"/>
					<path class="st8" d="M123.3,115.7c0.2,0.4,0.3,0.9,0.5,1.4c0,0,0,0,0,0C123.8,117.2,123.6,116.7,123.3,115.7z"/>
					<path class="st9" d="M141.7,96.7c0.8,9.7-10.8,18-10.8,18c-1-0.2-1.9-0.5-2.8-0.7c-3.9-1.1-7.3-2.4-10.3-3.9
						C94.3,98.2,97.5,75.7,99.1,68.7c0.2-1,1.4-1.3,2.1-0.7c2.4,2,7.9,5.9,18.3,10c0.9,0.3,1.7,0.7,2.6,1.1
						c5.9,2.8,10.5,6.6,13.7,10C139.8,93.3,141.7,96.7,141.7,96.7z"/>
					<path class="st5" d="M135.8,89.1c-0.9,4.8-2.6,10.2-4.1,14.5c-1.3,3.9-2.4,7.6-3.6,10.4c-3.9-1.1-7.3-2.4-10.3-3.9
						c-3.1-8.1-2.4-15.2-0.9-20.6c-2.8-2.7-9.7-9.9-16.3-19.9l19.4,12.5c1.1-1.9,1.9-2.9,1.9-2.9C128,82,132.6,85.8,135.8,89.1z"/>
					<path class="st6" d="M192.4,152.2c-0.5,0.8-1,1.6-1.5,2.2c-0.3,0.5-0.6,0.9-0.9,1.3c-0.7,1-1.2,1.6-1.2,1.6l0,0
						c0.2,0.8,0.3,1.7,0.4,2.6c0.4,4.1,0,8.7-1.2,13.3c-1.2,4.4-3.1,8.9-5.8,12.9c-0.6,0.9-1.2,1.7-1.8,2.5
						c-0.6,0.8-1.2,1.5-1.9,2.2c-5.9,6.6-14.2,11.2-24.6,11.3c-13.9,0-24.1-8.6-26.8-16.4c-0.1-0.2-0.2-0.4-0.2-0.7c0,0,0,0,0,0
						c-0.3-0.8-0.5-1.7-0.7-2.5c-0.3-1.1-0.5-2.2-0.6-3.3c-0.1-0.7-0.2-1.5-0.2-2.2c0-0.2,0-0.4,0-0.6c-0.1-1-0.1-2,0-2.9
						c0.1-5.2,0.2-7.9-0.3-13.1c-6.4-4.3-10-10.2-11.7-16.8c-3.7-15,3-33.6,10.8-43.9c19.1-25.1,50.9-25.1,68.2-7.3
						c1.8,1.9,3.5,4,5,6.3c0.2,0.3,0.4,0.7,0.6,1c2.2,3.6,3.9,7.7,5,12.3C206.8,127,197.7,143.9,192.4,152.2z"/>
					<path class="st2" d="M182.4,54.9l-7,21.7c0,0-1.6,0-3.7,1.5c-2,1.4-4.5,4.1-6.6,9.2c-1.8,4.5-3.4,10.9-4.1,20
						c0,0-0.3,1.3-0.3,4.2c0,1,0.1,2.2,0.2,3.5c1,11.3,10.6,7.9,10.6,7.9c-2.2,6-11.1,6.1-15.5,1.2c-4.4-5-7.2-2.4-7.2-2.4
						c7.1,6.8-1.7,14.5-1.9,14.6c0-0.2,0.9-6.8-5.6-6.7c-6.6,0-7.5-6-7.5-6c-1.3,4.2,2,10.6,2.1,10.8c-2.8-1.2-5.3-4-7.4-7.2
						c-2.1,6.2-8.3,9.5-8.3,9.5s2.9-6.5,0.7-15.4c-1.1-4.5-1.1-11-0.9-15.3c0.1-1.3,0.1-2.3,0.2-3.2c0,0,0,0,0-0.1
						c0.1-0.9,0.1-1.4,0.1-1.5c0,0,0,0,0,0c-0.4-7.8,0.7-17.3,6.4-26.1v0c0.1-0.3,3.5-15.8,17.9-21.7c0,0-1.5,3.6-1.2,6.8
						C166.7,46.4,182.4,54.9,182.4,54.9z"/>
					<path class="st3" d="M171.7,122.9c-2.2,6-11.1,6.1-15.5,1.2c-4.4-5-7.2-2.4-7.2-2.4c7.1,6.8-1.7,14.5-1.9,14.6
						c0-0.2,0.9-6.8-5.6-6.7c-6.6,0-7.5-6-7.5-6c-1.3,4.2,2,10.6,2.1,10.8c-2.8-1.2-5.3-4-7.4-7.2c-2.1,6.2-8.3,9.5-8.3,9.5
						s2.9-6.5,0.7-15.4c-1.1-4.5-1.1-11-0.9-15.3c2.6,17.1,10.3,16.3,10.3,16.3c-1.1-4.5,1.4-8.2,1.4-8.2c7.2,7.6,11.7,2.4,15.4,0.8
						c1.1-0.5,2.3-0.7,3.6-0.7c3-0.1,5.4-2.6,5.5-5.6c0.1-2.3,0.2-5.3,0.4-9.5c1.1-16.8,11.6-30.5,11.6-30.5
						c0.6-1.7,1.9,2.7,3.4,9.5c-2,1.4-4.5,4.1-6.6,9.2c-1.8,4.5-3.4,10.9-4.1,20c0,0-0.3,1.3-0.3,4.2c0,1,0.1,2.2,0.2,3.5
						C162,126.4,171.7,122.9,171.7,122.9z"/>
					<path class="st6" d="M185.9,101.8C185.9,101.8,185.9,101.8,185.9,101.8c0,0-14.7,0.2-20.6-9.1c0,0-4-12.9,5.5-28.7
						c6.6-10.9,8.9-18.2,9.7-21.7c0.1-0.3,0.2-0.5,0.4-0.7c0.5-0.5,1.4-0.6,2-0.1C190.2,47.6,213.8,67.5,185.9,101.8z"/>
					<g>
						<path class="st3" d="M135,108.8c0,0,9.8,3.1,13.8-5.1c4.1-8.4-8.3-15-12.8-6.8c-0.5,1-0.9,2-1.1,3.2L135,108.8z"/>
						<path class="st7" d="M140.4,108.1c-2.6,1.2-5.4,0.8-5.4,0.8c-0.6-0.5-1.1-0.9-1.7-1.4c-1.1-0.9-2.1-1.7-3-2.6
							c-1.6-1.5-3.2-2.9-4.6-4.4c-0.7-0.7-1.3-1.4-2-2.1c-1.7-1.8-3.3-3.7-4.7-5.5c-0.4-0.5-0.8-1-1.2-1.6c-1.6-2.2-3.1-4.3-4.3-6.4
							c-0.5-0.9-1.1-1.8-1.6-2.7c-1.1-2-2-3.9-2.8-5.7c-0.4-1-0.8-1.9-1.2-2.9c-0.9-2.3-1.5-4.4-2.1-6.5c-0.3-1.2-0.6-2.3-0.8-3.4
							c-1.3-6.9-0.8-11.4-0.8-11.9c0,0,0,0,0,0c0,0,0,0,0,0c0.2,0.2,0.3,0.4,0.4,0.6c1.4,1.9,2.8,3.7,4.2,5.5
							c0.7,0.9,1.4,1.8,2.1,2.6c1.3,1.7,2.6,3.3,3.9,4.8c0.7,0.9,1.5,1.8,2.2,2.6c1.3,1.6,2.6,3.1,3.9,4.5c0.8,0.9,1.6,1.8,2.3,2.6
							c1.3,1.5,2.6,2.9,3.9,4.2c0.8,0.9,1.7,1.8,2.5,2.6c1.4,1.4,2.7,2.7,3.9,3.9c0.9,0.9,1.8,1.7,2.6,2.5c1.5,1.4,2.7,2.6,3.9,3.6
							c1.1,1,2,1.7,2.7,2.4c0.1,0.1,0.1,0.1,0.2,0.2c1.3,1.1,2.1,2.7,2.2,4.5C145.1,104.5,142.8,107,140.4,108.1z"/>
						<g>
							<path class="st7" d="M111.1,60.8c-1.3,3.1-3.3,5.2-5.2,6.6c-0.3-1.2-0.6-2.3-0.8-3.4c2-1.9,3.2-4,3.9-5.8
								C109.7,59,110.4,59.9,111.1,60.8z"/>
							<path class="st7" d="M117.2,68.2c-2.1,4.9-5.6,7.3-8.1,8.4c-0.4-1-0.8-1.9-1.2-2.9c3.8-2.2,5.9-5.5,7.1-8.2
								C115.7,66.5,116.4,67.4,117.2,68.2z"/>
							<path class="st7" d="M123.4,75.4c-2.7,6.5-7.5,8.9-9.9,9.7c-0.5-0.9-1.1-1.8-1.6-2.7c5.1-2.3,7.8-6.2,9.2-9.6
								C121.8,73.7,122.6,74.5,123.4,75.4z"/>
							<path class="st7" d="M129.7,82.2c-2.9,7.6-8.4,10.1-10.7,10.8c-0.4-0.5-0.8-1-1.2-1.6l-0.7-1c5.4-2.5,8.8-7.1,10.2-10.8
								C128.1,80.5,128.9,81.4,129.7,82.2z"/>
							<path class="st7" d="M136.1,88.7c-2.6,7.9-7.8,10.8-10.5,11.9c-0.7-0.7-1.3-1.4-2-2.1l-0.1-0.8c5.7-2.7,8.5-7.5,9.9-11.5
								C134.5,87.1,135.3,87.9,136.1,88.7z"/>
							<path class="st7" d="M142.7,94.6c-2.1,7.7-6.4,11.3-9.4,12.9c-1.1-0.9-2.1-1.7-3-2.6c5.7-3.1,8.4-8.4,9.7-12.7
								C141.1,93.2,142,94,142.7,94.6z"/>
						</g>
						<path class="st10" d="M140.4,108.1c-2.6,1.2-5.4,0.8-5.4,0.8c-34-27.1-30.8-55.6-30.7-56.9c0,0,0,0,0,0
							c0.1,0.2,0.3,0.4,0.5,0.6C106.6,57.9,110.2,85,140.4,108.1z"/>
					</g>
					<g>
						<path class="st11" d="M182.8,91.5C182.8,91.5,182.8,91.6,182.8,91.5c-0.2,0.1-1.7,0.9-3.7,0.6c-1.7-0.2-3.8-1.2-5.8-4
							c0,0-2.6-11.5,5.4-20.5c3.6-4.1,5-6.7,5.6-8.3c0.2-0.7,1.1-0.8,1.5-0.2c0.3,0.5,0.7,1.1,1.2,1.9
							C190.5,67,195.3,79.8,182.8,91.5z"/>
						<path class="st12" d="M182.8,91.5C182.8,91.5,182.8,91.6,182.8,91.5c-0.2,0.1-1.7,0.9-3.7,0.6c-1.7-0.2-3.8-1.2-5.8-4
							c0,0-0.2-10.4,2.9-14.6c0,0-2.5,8,5.5,7.3c8-0.7,5.7-13.2,5.7-13.2S194.9,79.7,182.8,91.5z"/>
					</g>
					<path class="st4" d="M182,178.6c1.2,6-5.5,6.4-4.5,8.5c0.4,0.8,0.8,2.1,1,3.8c-5.9,6.6-14.2,11.2-24.6,11.3
						c-7,0-13.1-2.2-17.7-5.3c-0.6-0.4-1.2-0.8-1.7-1.3c-0.7-0.6-1.4-1.2-2-1.8c-1.4-1.3-2.5-2.8-3.5-4.2c-0.8-1.3-1.4-2.5-1.9-3.8
						c-0.4-1.1-0.7-2.1-0.9-3.2c-0.3-1.1-0.5-2.2-0.6-3.3c4.1-4,10.7-8.4,21-10.2C167.2,165.5,180.8,172.6,182,178.6z"/>
					<g>
						<path class="st7" d="M171.8,181.7c0.4,1.6-0.8,3.4-2.7,3.8c-1.9,0.5-3.8-0.5-4.2-2.1c-0.4-1.6,0.8-3.4,2.7-3.8
							C169.5,179.1,171.4,180.1,171.8,181.7z"/>
						<path class="st13" d="M173.5,181.3c0,0,1.7,3.5-2.2,5.8s-7-0.9-7-0.9s1.8,4.3,6.3,3.2C175,188.3,176,184.1,173.5,181.3z"/>
					</g>
					<g>
						<path class="st7" d="M135.7,189.8c0.4,1.6-0.8,3.4-2.7,3.8c-0.2,0-0.3,0.1-0.5,0.1c-1.4-1.3-2.5-2.8-3.5-4.2
							c0.5-0.9,1.3-1.6,2.5-1.8C133.4,187.2,135.3,188.2,135.7,189.8z"/>
						<path class="st13" d="M136.2,196.8c-0.6-0.4-1.2-0.8-1.7-1.3c0.2-0.1,0.4-0.2,0.6-0.3c3.9-2.3,2.2-5.8,2.2-5.8
							C139.6,191.8,139.1,195.1,136.2,196.8z"/>
					</g>
					<path class="st5" d="M198.1,99.7c2.2,3.6,3.9,7.7,5,12.3c3.7,15-5.4,31.9-10.7,40.2c-0.5,0.8-1,1.6-1.5,2.2
						c-0.1,0.1-0.2,0.2-0.2,0.3c0,0,0,0.1-0.1,0.1c-0.1,0.1-0.1,0.1-0.2,0.2c-0.1,0.2-0.3,0.4-0.4,0.6c-0.7,1-1.2,1.6-1.2,1.6l0,0
						c1.8,8.3-0.6,19.6-6.6,28.8c-0.6,0.9-1.2,1.7-1.8,2.5c9.9-16.1,4.7-34.3,4.6-34.5c0,0,0,0,0,0c-1.4-0.4-3.2-0.6-5.8-0.5
						c0,0,3.1-2.3,8-2.3c0,0,10.6-18.9,10.4-31.7c-0.3-12.6-6.6-17-6.8-17.1c-2.9,0.1-5-0.7-5-0.7l0,0c0,0,0,0,0,0
						c0.4-0.8,12.8-25.7,8.4-40.4c-3.9-13.1-11.6-18.6-13.5-19.7c0.5-0.5,1.4-0.6,2-0.1c6.6,5.5,26.6,22.3,9.6,50.9
						c1.8,1.9,3.5,4,4.9,6.2c0,0,0,0,0,0c0.1,0.2,0.2,0.3,0.3,0.5C197.9,99.4,198,99.6,198.1,99.7z"/>
					<path class="st5" d="M190.6,154.8C190.6,154.9,190.6,154.9,190.6,154.8c-0.1,0.1-0.1,0.2-0.2,0.2
						C190.5,155,190.6,154.9,190.6,154.8z"/>
					<path class="st7" d="M126.4,179.8c0,0,20-18.9,52-4.2C178.4,175.6,153.9,164.6,126.4,179.8z"/>
					<path class="st14" d="M180.3,127.1c0,0-2.5,1.5-3.7,5c-0.2,3.5-1.5,7.6-5.7,9.4c-7.6,3.4-11.7-5.5-11.8-5.7
						c15,11.8,17-9.7,17-9.7s0.3,1.2,0.4,2.9C177.1,128.2,178.2,127.2,180.3,127.1z"/>
					<path class="st14" d="M138.4,138.8c0,0,1.4,8.4-5.7,9.6c-4.1,0.7-7-2-8.8-4.5c-2.3-0.6-4.1-0.1-4.1-0.1
						c1.2-1.2,2.4-1.4,3.2-1.3c-0.8-1.4-1.2-2.6-1.2-2.6S133.2,154.1,138.4,138.8z"/>
					<path class="st15" d="M188,173.2l-61.1,11.9c0,0,0,0,0,0c-0.3-0.8-0.5-1.7-0.7-2.5c-0.3-1.1-0.5-2.2-0.6-3.3
						c-0.1-0.7-0.2-1.5-0.2-2.2c0-0.2,0-0.4,0-0.6c11.1-5.9,52.6-16.4,61.2-16.8c1.1-0.1,1.9,0,2.7,0.3
						C189.7,163.9,189.3,168.5,188,173.2z"/>
				</g>
				<g>
					<g>
						<g>
							<path class="st4" d="M243.9,146.3C243.9,146.3,243.9,146.3,243.9,146.3c0,0.2,0,0.3,0,0.5c-0.5,5-4.3,10.4-8.5,12.8
								c-2.4,1.4-7.2,2.6-12.7,3.7c0,0,0,0,0,0c-10.6,2.1-24.1,3.7-29,4.2c-0.8,0.1-1.4,0.1-1.6,0.2h0c-0.1,0-0.2,0-0.2,0l7.3-19.1
								l0.2-0.4l0-0.1l1.1-3c0,0,17.3-10.6,33.3-8.7c0.5,0.1,0.9,0.1,1.3,0.2c0,0,0,0,0,0c0.9,0.2,2.8,0.9,2.8,0.9
								c0.7,0.3,1.3,0.7,1.9,1.2C242.4,140.7,244,143.5,243.9,146.3z"/>
						</g>
					</g>
				</g>
				<path class="st6" d="M222.7,163.3C222.7,163.3,222.7,163.3,222.7,163.3c-10.6,2.1-24.1,3.7-29,4.2c-0.8,0.1-1.4,0.1-1.6,0.2h0
					c-1.4,0.3-4,0.8-7.6,1.6c-11,2.3-31.4,6.5-56.1,11.5c0,0-5.3,1.1-2.5,7c0,0,7.9,2.8,4.2,9.5c-1.5,2.8-1,0.3-2.4,2.1
					c-2,2.7-3.4,5.1-3,8.8c0,0-0.4-0.1-1.2-0.3c-6.7-1.8-39.4-11.5-43-27.4c-1.6,1.2-2.2,3-2.2,3c-1.1-1.9,0.4-5,0.4-5
					c-2.1,0.6-4.3,4.2-4.3,4.2c0.3-12.5,15.4-19.3,16.4-19.7c0,0,0,0,0,0c4.3-2,10.3-4,18.9-5.5c31.6-5.6,90.8-12.5,90.8-12.5
					l-1.1,3.4c0,0,0,0,0,0c-0.2,0.6-3,10.8,4,15.4C207.1,166.3,222.7,163.3,222.7,163.3z"/>
				<path class="st5" d="M308.8,146l-96.6,45c0,4.3,0.7,10.7,3.8,20.5c1.4,4.4,2.8,8.4,4.2,12.3c0.5,1.3,1,2.6,1.4,3.9
					c1.4,3.9,2.8,7.5,4.1,11c0.4,1.1,0.8,2.3,1.2,3.4c0.3,0.8,0.6,1.6,0.9,2.4c0.9,2.5,1.7,4.9,2.5,7.3c0.2,0.6,0.4,1.2,0.5,1.8
					c0.5,1.8,1,3.5,1.4,5.2c0.2,0.7,0.3,1.3,0.5,2c0.2,1,0.4,2.1,0.6,3.1c0.1,0.6,0.2,1.1,0.3,1.7c0,0.1,0,0.2,0,0.4
					c0.2,1.6,0.4,3.2,0.5,4.8c0.1,1.2,0.1,2.3,0.1,3.5c0,0.6,0,1.2,0,1.8v0c0,0.1,0,0.3,0,0.4c0,0.6-0.1,1.1-0.1,1.7
					c0,0.7-0.1,1.3-0.2,2c-0.1,0.7-0.2,1.4-0.2,2.1c-0.1,0.4-0.1,0.9-0.2,1.3c-0.1,0.5-0.2,0.9-0.2,1.4c-0.1,0.8-0.3,1.6-0.5,2.4
					c0,0.1-0.1,0.3-0.1,0.4c-0.1,0.5-0.2,0.9-0.3,1.4c-0.1,0.5-0.2,1-0.4,1.5c-0.3,1-0.5,2-0.9,3c-0.4,1.2-0.8,2.4-1.3,3.5
					c-1.4,3.2-3.3,6.1-5.7,8.8c2.1-5.4,3.1-11.6,3.4-18.1c0.2-5.3-0.1-10.9-0.8-16.6c-0.1-0.7-0.2-1.4-0.3-2.1
					c-3.1-23.2-11.9-46.8-16.1-55.5c-4.7-9.7-4.9-20.3-4.7-25.6c0.1-1.8,1.5-3.2,3.3-3.3c0,0,0,0,0,0c1.1-0.1,2.3-0.2,3.5-0.5
					c8.4-1.7,19.7-7.3,19.7-7.3c-1.8,0.2-3.5-1.3-3.5-1.3c6.9-0.3,13.6-6.2,26.5-12.7c12.9-6.6,20.5-8.3,20.5-8.3
					c-3.8,0-5.4-1.1-5.4-1.1c8.3-2.2,18.1-6.5,26-10.3c2.3-1.1,4.4-2.1,6.2-3.1c1.4-0.7,2.6-1.3,3.7-1.9l0.2,0.5v0l0.1,0.2
					L308.8,146L308.8,146z"/>
				<path class="st5" d="M200.5,145.1l-1.1,3.4c-4.3,4-21.9,1-33.1,7.6c-11,6.4-22.2,2.4-22.6,2.2c2.5,0.6,7.8-1.6,7.8-1.6
					c-15.7-0.7-46.9,6.5-56.1,10.9c-9.2,4.4,1.4,12.7,1.4,12.7c-2.9,0.4-6.1-1.8-6.1-1.8c6.2,13.4,20.4,14.1,31.2,17.8
					c0.5,0.2,1,0.4,1.6,0.6c1.7,0.6,3.1,1.5,4.3,2.5c3.1,2.5,5.1,5.9,6.2,8.8c0,0,0,0,0,0c0,0.1,0.4,1.2,1,3c0,0,0,0,0,0
					c1.9,5.9,5.6,19.6,5.1,33.5c-0.7,18.5-14.5,55.9,0.7,72.7c0,0,0,0,0,0c-3.3-2.5-6.1-5.6-7.9-9.2c-0.7-1.4-1.3-2.8-1.9-4.2
					c0,0-18.5,9.9-24.4,30.1c0,0,2.6-2.9,5.6-3.8c0,0-10.5,18.7,6.6,63.8c0,0,2.7,5.7,2.5,10c-4.5-0.6-8.1-1.8-8.1-1.8
					s-18.9-43-15.8-68.5c2.6-22.1,24.5-36.9,30.2-40.4c-5.6-25,4.3-48.8,3.7-58.3c-0.3-4.6-1.3-8.9-2.4-12.3
					c-0.1-0.2-0.1-0.3-0.2-0.5c-0.1-0.1-0.1-0.3-0.1-0.4c-0.1-0.2-0.1-0.3-0.2-0.5c-0.1-0.1-0.1-0.3-0.2-0.4c0,0,0,0,0-0.1
					c0-0.1-0.1-0.2-0.1-0.4c-0.2-0.4-0.3-0.8-0.5-1.2c0-0.1-0.1-0.2-0.1-0.4c0,0,0,0,0,0c0-0.1-0.1-0.2-0.2-0.4
					c-0.2-0.5-0.4-0.9-0.6-1.3c0-0.1-0.1-0.1-0.1-0.2c-0.2-0.3-0.3-0.6-0.4-0.9c0-0.1-0.1-0.2-0.1-0.2c0-0.1-0.1-0.1-0.1-0.2
					c-0.1-0.1-0.1-0.3-0.2-0.4c-0.3-0.6-0.5-0.9-0.5-0.9c-0.7-2.3-1.3-4.5-1.8-6.6c-6.7-1.8-39.4-11.5-43-27.4c-1.6,1.2-2.2,3-2.2,3
					c-1.1-1.9,0.4-5,0.4-5c-2.1,0.5-4.3,4.2-4.3,4.2c0.3-12.5,15.4-19.3,16.4-19.7c0,0,0,0,0,0c4.3-2,10.3-4,18.9-5.5
					C141.3,151.9,200.5,145.1,200.5,145.1z"/>
				<path class="st5" d="M261.8,409c-1.8,1.6-3.4,2.9-4.6,3.3c0,0-26.6-56.3-37.3-66.8c-6-5.9-12.7-15-18.3-24.6
					c-11.4,4.4-24.4,6.1-36.2,5c-0.1,0.1-0.3,0.2-0.4,0.3c0,0,0,0-0.1,0c-11.6,8.3-29.4,14.7-36.5,25.7c-6.2,9.5,4.4,43.5,6.3,49.5
					c-2.7,0.3-2.5,1.7-2.5,1.7s-12.6-34.9-10.6-47.2c2.5-15.8,29.7-24.2,36.7-31c0.2-0.2,0.4-0.4,0.6-0.7c0,0-4.1-1.9-6.8-6.8
					c0,0,7.3,3.5,18.3,4c7.9,0.4,18.3,0.3,28.7-4.8c4.1-2,7.5-5.7,11.7-9c0,0-0.7,5.4-4.6,11.2l0,0c0,0,5.1,15.1,14.9,20.5
					c9.8,5.4,29.9,50.5,38.1,66.7C259.5,406.1,260.7,407.3,261.8,409z"/>
				<g>
					<path class="st4" d="M135.8,412.3H98.9c-1,0-1.9-0.8-1.9-1.9c0,0,0-0.1,0-0.4c0-2,0.4-10.7,6.7-15.4c0,0,0,0,0,0
						c0.7-0.5,1.4-0.9,2.1-1.3c1-0.5,2.1-0.9,3.4-1.2h0c1.3-0.3,2.8-0.5,4.5-0.5c0.1,0,0.3,0,0.4,0c1.4,0,2.7,0.1,3.9,0.2
						c0,0,0,0,0,0c1.3,0.1,2.6,0.3,3.8,0.6c1.3,0.3,2.6,0.7,3.7,1.1c3.7,1.5,6.5,3.7,8.6,6.4c0,0,0,0,0,0c2.1,2.7,3.4,5.7,4.2,8.9
						C138.9,410.6,137.6,412.3,135.8,412.3z"/>
				</g>
				<g>
					<path class="st4" d="M287.2,412.3h-35.5c-1,0-1.9-0.8-1.9-1.9c0,0-0.6-12.7,9.1-17.2c0,0,0,0,0,0c2-1,4.6-1.6,7.6-1.6
						c9-0.1,15,2.6,19,6.7v0c2.6,2.6,4.2,5.8,5.3,9.1C291.6,409.8,289.7,412.3,287.2,412.3z"/>
				</g>
				<path class="st7" d="M155,219.3c0,0,6.1,10.9,20.8,7c14.7-3.9,16-15.7,16-15.7s0.7,14.7-13.6,18.3
					C164,232.4,157.6,228.7,155,219.3z"/>
				<path class="st7" d="M135.8,412.3H98.9c-1,0-1.9-0.8-1.9-1.9c0,0,0-0.1,0-0.4c0-2,0.4-10.7,6.7-15.4c0,0,0,0,0,0
					c0,0-6.4,6.4,1.2,9.9c7.5,3.4,34.3,4.5,29.3-4.6c2.1,2.7,3.4,5.7,4.2,8.9C138.9,410.6,137.6,412.3,135.8,412.3z"/>
				<path class="st7" d="M287.2,412.3h-35.5c-1,0-1.9-0.8-1.9-1.9c0,0-0.6-12.7,9.1-17.2c-0.2,0.2-8.4,8.6,0,11.3
					c8.4,2.7,33.5,4.8,26.6-6.2c2.6,2.6,4.2,5.8,5.3,9.1C291.6,409.8,289.7,412.3,287.2,412.3z"/>
				<path class="st7" d="M243.9,146.3c-0.1-0.2-3-5.7-11.1-6.7c-8.2-1-33.4,8.9-33.4,8.9c0-0.1,0-0.3,0-0.4l1.1-3
					c0,0,17.3-10.6,33.3-8.7c0.5,0.1,0.9,0.1,1.3,0.2c0,0,0,0,0,0c0.9,0.2,2.8,0.9,2.8,0.9c0.7,0.3,1.3,0.7,1.9,1.2
					C242.4,140.7,244,143.5,243.9,146.3z"/>
			</g>
		</g>
	</g>
	<g>
		<path class="st4" d="M289.4,208.1c-12,1.2-12.9,2.2-14.2,14.2c-1.2-12-2.2-12.9-14.2-14.2c12-1.2,12.9-2.2,14.2-14.2
			C276.5,205.9,277.5,206.9,289.4,208.1z"/>
		<path class="st4" d="M98.3,282.1c-12,1.2-12.9,2.2-14.2,14.2c-1.2-12-2.2-12.9-14.2-14.2c12-1.2,12.9-2.2,14.2-14.2
			C85.3,279.9,86.3,280.9,98.3,282.1z"/>
		<path class="st4" d="M90.7,114.5c-12,1.2-12.9,2.2-14.2,14.2c-1.2-12-2.2-12.9-14.2-14.2c12-1.2,12.9-2.2,14.2-14.2
			C77.8,112.3,78.8,113.3,90.7,114.5z"/>
	</g>
</g>
<g id="DESIGNED_BY_FREEPIK">
</g>
</svg>
